<?xml version="1.0" encoding="utf-8"?>
<!-- Generator: Adobe Illustrator 18.1.0, SVG Export Plug-In . SVG Version: 6.00 Build 0)  -->
<!DOCTYPE svg PUBLIC "-//W3C//DTD SVG 1.1//EN" "http://www.w3.org/Graphics/SVG/1.1/DTD/svg11.dtd">
<svg version="1.1" id="Layer_1" xmlns="http://www.w3.org/2000/svg" xmlns:xlink="http://www.w3.org/1999/xlink" x="0px" y="0px"
	 viewBox="0 0 150 150" enable-background="new 0 0 150 150" xml:space="preserve">
<g>
	<g>
		<path fill="#FFFFFF" d="M33.3,134H15.9c-0.7,0-1.2-0.5-1.2-1.2V39.3c0-0.7,0.5-1.2,1.2-1.2h17.4c0.7,0,1.2,0.5,1.2,1.2v93.5
			C34.5,133.5,33.9,134,33.3,134z M17.1,131.6h15V40.5h-15V131.6z"/>
	</g>
	<path fill="#FFFFFF" d="M56.3,75.3c-0.4,0-0.8-0.2-1-0.5l-23-34.8l2-1.3l22,33.2l22.1-33.4l2,1.3L57.3,74.7
		C57.1,75.1,56.7,75.3,56.3,75.3z"/>
	<g>
		<g>
			<path fill="#FFFFFF" d="M107.4,135.8c-6.9,0-13.2-2.3-18.7-6.9c-7.1-5.7-10.6-14.1-10.6-24.7V39.3c0-0.7,0.5-1.2,1.2-1.2h18.3
				c0.7,0,1.2,0.5,1.2,1.2v64.9c0,4.2,1.1,7.7,3.3,10.3c1.6,1.9,3.7,2.8,6.3,2.8c1.8,0,3.6-0.6,5.4-1.7c1.9-1.2,4.4-3.8,7.4-7.6
				c0.2-0.3,0.5-0.4,0.9-0.5c0.3,0,0.7,0.1,0.9,0.3l11.9,10.6c0.5,0.4,0.6,1.2,0.1,1.7C126.7,130.5,117.3,135.8,107.4,135.8z
				 M80.5,40.5v63.7c0,9.9,3.3,17.5,9.7,22.8c5.1,4.2,10.8,6.3,17.1,6.3c8.9,0,17.3-4.7,25.1-13.9l-10.1-8.9
				c-2.9,3.5-5.2,5.9-7.2,7.1c-2.2,1.4-4.5,2.1-6.7,2.1c-3.4,0-6.1-1.2-8.2-3.7c-2.6-3.1-3.9-7.1-3.9-11.9V40.5H80.5z"/>
		</g>
	</g>
	<g>
		<path fill="#FFFFFF" d="M89,34.6c-5.6,0-10.2-4.6-10.2-10.2S83.3,14.2,89,14.2s10.2,4.6,10.2,10.2S94.6,34.6,89,34.6z M89,17
			c-4.1,0-7.4,3.3-7.4,7.4s3.3,7.4,7.4,7.4c4.1,0,7.4-3.3,7.4-7.4S93,17,89,17z"/>
	</g>
</g>
</svg>
