<?xml version="1.0" encoding="utf-8"?>
<!-- Generator: Adobe Illustrator 18.1.1, SVG Export Plug-In . SVG Version: 6.00 Build 0)  -->
<!DOCTYPE svg PUBLIC "-//W3C//DTD SVG 1.1//EN" "http://www.w3.org/Graphics/SVG/1.1/DTD/svg11.dtd">
<svg version="1.1" id="Layer_1" xmlns="http://www.w3.org/2000/svg" xmlns:xlink="http://www.w3.org/1999/xlink" x="0px" y="0px"
	 width="216px" height="216px" viewBox="0 0 216 216" enable-background="new 0 0 216 216" xml:space="preserve">
<g>
	<path fill="#FFFFFF" d="M83.5,114.6c-2.9,0.5-4.8,0.9-6.6,1.2c-1-0.1-1.9-0.1-2.8-0.2c-0.5,0-1.2,0.1-1.4-0.2
		c-1.4-1.9-4-2.9-4.5-5.5c-0.5-2.8-1.2-5.5-1.6-8.3c-1-7.2-1.9-14.3-2.9-21.5C63.4,78,62.9,76,62,73.9c-0.5,0.9-1.2,1.7-1.6,2.7
		c-2.1,5.3-4.3,10.5-6.1,15.8c-1.7,5-3.4,10-4.4,15.2c-0.5,2.7-1.5,5.1-2.6,7.4c-1.2,2.4-1.9,2.5-3.5,0.3c-0.2-0.3-0.3-0.5-0.7-1.1
		c-1.3,3.5-4.3,2.5-6.4,2.1c-1.9-0.3-3.5-2-5.1-3.3c-0.4-0.3-0.3-1.4-0.3-2.1c-0.2-5.2,0.3-10.2,1.9-15.2c2.3-7.1,4.1-14.4,6.9-21.4
		c2.9-7.4,5.4-15,10-21.6c1.1-1.6,1.1-3.9,3.5-3.9c1.1-4.1,4.3-6.1,7.4-7.9c1.7-1,3.2-0.1,4.1,1.8c0.4,0.7,0.8,1.4,1.1,2.1
		c4.7,0.1,10.6,4.5,12.1,8.9c0.4,1.2,1,2.3,1.8,3.9c2.2-3.3,4-6.1,6-8.9c4-5.4,8.6-10.2,14.9-13.1c6.3-2.8,12.2-2.1,17.3,2.2
		c4.8,4,9.8,8,13.8,13c2.9,3.6,5,7.4,6.7,11.7c2.4,6,3.4,12.3,4.7,18.6c0.7,3.3,1,6.7,1.6,10.5c1.3-0.3,2.5-0.4,3.6-0.7
		c6.4-1.7,12.7-4.1,19.5-4c1.5,0,2.9,1,4.4,1.6c0.4,0.1,0.9,0.2,1.3,0.3c0.9,0.1,1.7,0.2,2,0.3c1.1,2.4,1.9,4.4,2.9,6.2
		c0.2,0.4,1.1,0.5,1.7,0.8c1.5,0.9,3,1.8,4.3,2.6c-0.4,1.7-0.7,2.9-1,4c-0.7,2.3-4.8,5.1-7.2,5.1c-0.2,0-0.3,0-0.5,0
		c-7.4-2.9-14.1,0.3-20.9,2.6c-2.6,0.9-5.1,2.2-7.6,3.2c-2.3,1-3.3,2.7-3.5,5.1c-0.5,4.7-0.9,9.4-1.6,14.1c-1,6.4-2.2,12.8-3.6,19.1
		c-1.5,6.7-3.4,13.3-5.4,19.9c-1.1,3.6-2.7,7-4.1,10.4c-0.8,2.2-1.5,4.5-2.4,6.6c-2.4,5.3-5.3,10.3-9.3,14.5
		c-3.2,3.3-6.8,6.4-10.2,9.5c-0.3,0.3-0.9,0.5-1.3,0.5c-3.8,0.6-7.5,1.3-11.3,1.8c-1.1,0.1-2.5-0.1-3.5-0.5c-1.9-0.8-4-1.7-5.5-3.1
		c-1.5-1.4-3.5-2.3-4.6-4c-1.2-1.8-2.2-3.8-3.2-5.7c-3.3-6-3.8-12.6-4.3-19.2c-0.4-5.8,0.4-11.5,2-17.1c1.3-4.5,2.2-9.2,4.1-13.5
		c2-4.7,4.7-9.1,7.5-13.4c2.1-3.4,4.6-6.5,7.2-9.5c1.7-2.1,3.7-3.9,5.6-5.7c4.2-3.8,8.5-7.6,12.8-11.2c2.7-2.3,5.5-4.3,8.3-6.4
		c0.8-0.6,1.5-1.2,2.4-1.6c1.9-0.9,2.6-2.5,2.5-4.4c-0.3-5.5-0.4-11.1-1.3-16.5c-1.2-7.2-2.6-14.4-6.2-20.9c-1.7-3-3.4-6.1-5.2-9.1
		c-0.8-1.5-2-1.7-3.2-0.5c-2.3,2.3-4.6,4.5-6.8,6.9c-4.1,4.7-6.5,10.2-8.6,16c-3.3,9-4.8,18.4-6,27.8c-0.3,2.3-0.2,4.7-0.3,7
		c0,1,0.1,2.2-0.3,3.1C87,115.8,86.3,115.9,83.5,114.6z M98.6,199.3c1-1.1,2-2.1,2.9-3.1c3.8-4.2,6.7-9,9.2-14
		c1.2-2.4,2-5.1,2.8-7.7c1.7-5.3,3.6-10.6,4.9-16c1.7-7,2.9-14.1,4.2-21.2c0.4-2.2,0.6-4.4,0.9-7.1c-1.2,0.6-2.2,0.8-2.8,1.3
		c-5.1,5-10.5,9.7-15.1,15.2c-3.7,4.3-6.5,9.4-9.3,14.4c-2.5,4.6-3.8,9.6-4.7,14.8c-1.2,7.1,0.1,13.7,2.1,20.3
		C94.7,198.4,95.9,199.9,98.6,199.3z"/>
	<path fill="#FFFFFF" d="M127,3.6c2.6-0.1,4.4,1.1,5.6,4.1c0.4,1.1,0.7,2.2,1,3.3c0.5,1.8-0.9,3.5-2.8,3.1
		c-3.7-0.8-7.4-1.6-11.1-2.5c-0.8-0.2-1.4-1-2.1-1.6c-0.8-0.6-1.7-1.2-2.4-1.7c0-1.5,0-3,0-4.4c2.2-3.3,5.7-3.2,9.1-3
		C125.2,0.9,125.9,2.5,127,3.6z"/>
</g>
</svg>
