<?xml version="1.0" encoding="utf-8"?>
<!-- Generator: Adobe Illustrator 18.1.0, SVG Export Plug-In . SVG Version: 6.00 Build 0)  -->
<!DOCTYPE svg PUBLIC "-//W3C//DTD SVG 1.1//EN" "http://www.w3.org/Graphics/SVG/1.1/DTD/svg11.dtd">
<svg version="1.1" id="Layer_1" xmlns="http://www.w3.org/2000/svg" xmlns:xlink="http://www.w3.org/1999/xlink" x="0px" y="0px"
	 viewBox="0 0 144 144" enable-background="new 0 0 144 144" xml:space="preserve">
<g>
	<g>
		<path fill="#FFFFFF" d="M104.4,103.3c-0.5,0.4-1.1,0.6-1.8,0.6c-2.1,0-4-2-4.2-2.2c-0.7-0.8-6.3-7.4-13.8-16.2
			c-0.2-0.3-0.5-0.6-0.7-0.9l0,0c-0.9-1.1-1.8-2.1-2.8-3.3c-0.3-0.4-0.6-0.7-0.9-1.1c-0.9-1-1.7-2-2.6-3.1c-0.4-0.4-0.7-0.9-1.1-1.3
			c-7-8.2-14.6-17.1-21.3-24.9c-0.4-0.4-0.7-0.8-1-1.2l0,0c-8.9-10.5-15.8-18.6-16.5-19.4c-0.9-1.1-0.8-2.7,0-4.4
			c-2.6-0.7-4.8-2.1-6.5-4.1c-5-5.8-4-14.8-4-15.2c0-0.2,0.2-0.4,0.3-0.6c0.2-0.2,0.4-0.2,0.6-0.2c0.4,0.1,8.8,1.2,13,7.4
			c1.5,2.2,2.2,4.7,2.3,7.5c0.7-0.3,1.5-0.4,2.2-0.4c1,0,1.9,0.4,2.5,1c2.1,2.3,53.9,73,56.1,76C105.3,99,106.4,101.8,104.4,103.3z"
			/>
		<path fill="#A09C9E" d="M41.1,24l0.4,0.4c0.1-0.3,0.1-0.6,0.1-0.8C41.4,23.8,41.3,23.9,41.1,24z M41.1,24l0.4,0.4
			c0.1-0.3,0.1-0.6,0.1-0.8C41.4,23.8,41.3,23.9,41.1,24z M41.1,24l0.4,0.4c0.1-0.3,0.1-0.6,0.1-0.8C41.4,23.8,41.3,23.9,41.1,24z
			 M104.2,97.5c-2.2-3-54-73.7-56.1-76c-0.6-0.7-1.5-1-2.5-1c-0.7,0-1.5,0.2-2.2,0.4c-0.1-2.8-0.8-5.3-2.3-7.5
			c-4.2-6.2-12.7-7.4-13-7.4c-0.2,0-0.5,0-0.6,0.2c-0.2,0.1-0.3,0.3-0.3,0.6c0,0.4-1,9.4,4,15.2c1.7,2,3.9,3.3,6.5,4.1
			c-0.8,1.7-0.8,3.2,0,4.4c0.6,0.8,7.5,9,16.5,19.4l0,0c0.3,0.4,0.7,0.8,1,1.2c6.6,7.8,14.3,16.7,21.3,24.9c0.4,0.4,0.8,0.9,1.1,1.3
			c0.9,1,1.8,2.1,2.6,3.1c0.3,0.4,0.6,0.7,0.9,1.1c1,1.1,1.9,2.2,2.8,3.3l0,0c0.3,0.3,0.5,0.6,0.7,0.9c7.5,8.8,13.1,15.3,13.8,16.2
			c0.2,0.2,2.1,2.2,4.2,2.2c0.7,0,1.3-0.2,1.8-0.6C106.4,101.8,105.3,99,104.2,97.5z M32.4,20.8c-3.3-3.9-3.7-9.6-3.6-12.3
			l11.3,14.3c-0.4,0.3-0.7,0.6-1,1c-0.2,0.3-0.4,0.5-0.6,0.7C36,23.8,34,22.6,32.4,20.8z M39,29.3c-0.6-0.8-0.2-2,0.3-3
			c0.4-0.6,0.8-1.2,1.1-1.5v0c0.2-0.3,0.5-0.5,0.7-0.7l0.4,0.4l1.3,1.7l6.1,7.7l3.8,11.7C45.1,36.6,39.5,30,39,29.3z M54.2,47.3
			L54.2,47.3l-3.8-11.5l2,2.5l0,0l3.6,11.2C55.4,48.7,54.8,48,54.2,47.3z M57.5,51.2L57.5,51.2l-3.6-11.1l2,2.6l0,0l3.5,10.7
			C58.8,52.7,58.2,52,57.5,51.2z M60.9,55.1l-3.4-10.5l2,2.5l0,0l3.3,10.2C62.2,56.6,61.5,55.9,60.9,55.1z M64.1,58.9
			c0-0.1,0-0.2,0-0.3L61,49.1l11.3,14.3l2.7,8.3C71.4,67.5,67.7,63.2,64.1,58.9z M76.4,73.4l-2.7-8.1l2.4,3.1l0,0l2.5,7.7
			C78,75.2,77.2,74.3,76.4,73.4z M80.2,77.8l-2.4-7.5l2.4,3.1l0,0l2.3,7.1C81.7,79.6,81,78.7,80.2,77.8z M99.7,100.6
			c-0.2-0.2-6.9-8-15.7-18.4l-2.3-6.9l21.3,26.9C101.8,102.4,100.1,101,99.7,100.6z M41.1,24l0.4,0.4c0.1-0.3,0.1-0.6,0.1-0.8
			C41.4,23.8,41.3,23.9,41.1,24z M41.1,24l0.4,0.4c0.1-0.3,0.1-0.6,0.1-0.8C41.4,23.8,41.3,23.9,41.1,24z"/>
		<g>
			<path fill="#282626" d="M103.6,101.6c-0.1,0.1-0.1,0.2-0.3,0.3c-0.1,0.1-0.3,0.2-0.4,0.2l0.6,0.7l0.7-0.5L103.6,101.6z
				 M41.8,21.6c-0.2,0.1-0.4,0.2-0.6,0.3c-0.2,0.1-0.3,0.2-0.5,0.3c-0.2,0.2-0.5,0.3-0.7,0.5c-0.4,0.3-0.7,0.6-1,1
				c-0.2,0.3-0.4,0.5-0.6,0.7c-0.4,0.5-0.7,1-0.9,1.5c0.5,0.2,1.1,0.3,1.7,0.4c0.4-0.6,0.8-1.2,1.1-1.5v0c0.2-0.3,0.5-0.5,0.7-0.7
				c0.2-0.1,0.3-0.3,0.5-0.4c0.1-0.1,0.1-0.1,0.2-0.1c0.1-0.1,0.2-0.1,0.3-0.2c0.5-0.3,0.9-0.5,1.3-0.7c0.1-0.6,0.1-1.2,0.1-1.8
				C42.9,21,42.3,21.3,41.8,21.6z"/>
			<path fill="#282626" d="M103.6,101.6c-0.1,0.1-0.1,0.2-0.3,0.3c-0.1,0.1-0.3,0.2-0.4,0.2L81.7,75.2l0,0l-1.5-1.9l0,0l-2.4-3.1
				l0,0l-1.5-1.9l0,0l-2.4-3.1l-1.5-1.9L61,49.1l-1.5-1.9l0,0l-2-2.5L56,42.8l0,0l-2-2.6l-1.5-1.9l0,0l-2-2.5l0,0l-1.5-1.9l-6.1-7.7
				c0.1-0.1,0.1-0.1,0.1-0.2c0.1-0.3,0.1-0.6,0.2-0.8l5.5,7l1,1.3l0,0l2,2.5l0,0l1.5,1.9l2,2.6l0,0l1.5,1.9l2,2.5l0,0l1.5,1.9l0,0
				l11.3,14.3L73,63l2.4,3.1l1.5,1.9l0,0l2.4,3.1l1.5,1.9l0,0L103.6,101.6z"/>
			<path fill="#282626" d="M43.1,25.1C43,25.4,43,25.7,42.9,26c0,0.1,0,0.1-0.1,0.2l-1.3-1.7L41.1,24l-1-1.3L28.8,8.4l-1.1-1.4
				l0.7-0.5L29.5,8l11.3,14.2l0.9,1.1l0.2,0.2L43.1,25.1z"/>
			<path fill="#282626" d="M104.2,102.3l-0.7,0.5l-0.6-0.7c0.2-0.1,0.3-0.1,0.4-0.2c0.1-0.1,0.2-0.2,0.3-0.3L104.2,102.3z"/>
			<g>
				<path fill="#282626" d="M43.4,22.7c0.1-0.6,0.1-1.2,0.1-1.8c-0.1-2.8-0.8-5.3-2.3-7.5c-4.2-6.2-12.7-7.4-13-7.4
					c-0.2,0-0.5,0-0.6,0.2c-0.2,0.1-0.3,0.3-0.3,0.6c0,0.4-1,9.4,4,15.2c1.7,2,3.9,3.3,6.5,4.1c0.5,0.2,1.1,0.3,1.7,0.4
					c0.4-0.6,0.8-1.2,1.1-1.5c-0.7-0.1-1.3-0.2-1.9-0.4c-2.5-0.6-4.5-1.9-6.1-3.7c-3.3-3.9-3.7-9.6-3.6-12.3c0-0.3,0-0.5,0-0.7
					C29,7.8,29.3,7.9,29.5,8c2.5,0.6,7.5,2.3,10.3,6.4c1.4,2,2.1,4.5,2,7.2c0,0.6-0.1,1.1-0.1,1.7c0,0.1,0,0.2-0.1,0.3
					c0,0.3-0.1,0.5-0.1,0.8l1.3,1.7c0.1-0.1,0.1-0.1,0.1-0.2c0.1-0.3,0.1-0.6,0.2-0.8l-1.3-1.6c0.1-0.1,0.2-0.1,0.3-0.2
					C42.5,23.1,43,22.8,43.4,22.7z"/>
			</g>
		</g>
		<path fill="#282626" d="M54.2,47.3c-0.5-0.6-1-1.1-1.4-1.7l0,0l-3.8-11.7l1.5,1.9l0,0L54.2,47.3z"/>
		<path fill="#282626" d="M57.5,51.2c-0.5-0.6-0.9-1.1-1.4-1.7l0,0l-3.6-11.2l1.5,1.9L57.5,51.2z"/>
		<path fill="#282626" d="M60.9,55.1c-0.5-0.6-1-1.1-1.4-1.7l0,0L56,42.8l1.5,1.9L60.9,55.1z"/>
		<path fill="#282626" d="M104.4,103.3c-0.5,0.4-1.1,0.6-1.8,0.6c-2.1,0-4-2-4.2-2.2c-0.7-0.8-6.3-7.4-13.8-16.2
			c-0.2-0.3-0.5-0.6-0.7-0.9l0,0c-0.9-1.1-1.8-2.1-2.8-3.3c-0.3-0.4-0.6-0.7-0.9-1.1c-0.9-1-1.7-2-2.6-3.1c-0.4-0.4-0.7-0.9-1.1-1.3
			c-7-8.2-14.6-17.1-21.3-24.9c-0.4-0.4-0.7-0.8-1-1.2l0,0c-8.9-10.5-15.8-18.6-16.5-19.4c-0.9-1.1-0.8-2.7,0-4.4
			c0.5,0.2,1.1,0.3,1.7,0.4c-0.6,1-0.9,2.1-0.3,3c0.5,0.7,6.1,7.3,13.7,16.3l0,0c0.5,0.6,0.9,1.1,1.4,1.7l0,0
			c0.6,0.7,1.3,1.5,1.9,2.2l0,0c0.5,0.6,1,1.1,1.4,1.7l0,0c0.6,0.7,1.3,1.5,1.9,2.2l0,0c0.5,0.6,0.9,1.1,1.4,1.7
			c0.6,0.7,1.3,1.5,1.9,2.3l0,0c0.5,0.5,0.8,1,1.3,1.5c3.6,4.2,7.3,8.5,10.9,12.8c0.5,0.6,1,1.1,1.5,1.7c0.8,0.9,1.5,1.8,2.3,2.7
			l0,0c0.5,0.6,1,1.1,1.4,1.7c0.8,0.9,1.6,1.8,2.3,2.7l0,0c0.5,0.6,1,1.1,1.4,1.7c8.9,10.4,15.5,18.2,15.7,18.4
			c0.5,0.5,2.1,1.9,3.3,1.6l0.6,0.7l0.7-0.5l-0.6-0.7c0.6-1-0.8-3.2-0.8-3.2C84.2,73,48.6,24.4,46.9,22.6c-0.3-0.3-0.7-0.5-1.3-0.5
			c-0.6,0-1.4,0.2-2.2,0.6c0.1-0.6,0.1-1.2,0.1-1.8c0.7-0.3,1.5-0.4,2.2-0.4c1,0,1.9,0.4,2.5,1c2.1,2.3,53.9,73,56.1,76
			C105.3,99,106.4,101.8,104.4,103.3z"/>
		<path fill="#282626" d="M64.1,58.6c0,0.1,0,0.2,0,0.3c-0.4-0.5-0.8-1-1.3-1.5l0,0l-3.3-10.2l1.5,1.9L64.1,58.6z"/>
		<path fill="#282626" d="M76.4,73.4c-0.5-0.6-1-1.1-1.5-1.7l-2.7-8.3l1.5,1.9L76.4,73.4z"/>
		<path fill="#282626" d="M80.2,77.8c-0.5-0.6-0.9-1.1-1.4-1.7l0,0l-2.5-7.7l1.5,1.9l0,0L80.2,77.8z"/>
		<path fill="#282626" d="M83.9,82.2c-0.5-0.6-0.9-1.1-1.4-1.7l0,0l-2.3-7.1l1.5,1.9l0,0L83.9,82.2z"/>
	</g>
	<g>
		<path fill="#FFFFFF" d="M116.4,11.9l-12.6,25.5l-0.2,0.3c-0.1,0.2,0,0-0.1,0.1l-62.1,62.4c-0.2,0.2-0.3,0.3-0.6,0.4
			c0,0-0.3,0.1-0.4,0.1c-0.2,0-0.5,0-0.7-0.1c-0.2-0.1-5-1-8-3.6c-0.4-0.4-0.8-0.7-1.1-1.2c-0.1-0.1-0.1-0.2-0.2-0.3
			c-2.3-3-2.2-6.6-2.3-6.8c-0.2-0.6,0-1.2,0.4-1.6l26-26.2l36-36.2c0.1-0.1,0.2-0.2,0.4-0.3l0.7-0.2l22.7-13.9
			c0.1-0.1,0.3-0.1,0.4-0.2c0.5-0.1,1.1,0,1.5,0.4C116.9,11.1,116.8,11.2,116.4,11.9z"/>
		<g>
			<path fill="#FCFCFC" d="M63.9,65.3l0.2,0l0,0L63.9,65.3z M43.6,93.9L43.6,93.9l0.2,0L43.6,93.9z M39.8,97.6l0,0.1L39.8,97.6
				C39.8,97.6,39.8,97.6,39.8,97.6z M38.8,90.9l-1,1L37,92.7l-0.6,0.6l-1,1L34.7,95c0.2,0.2,0.5,0.3,0.8,0.5c0.3,0.2,0.7,0.4,1,0.6
				c0.2,0.1,0.5,0.3,0.8,0.4c0.3,0.1,0.6,0.3,0.8,0.4c0.3,0.1,0.7,0.3,1,0.4c0.3,0.1,0.6,0.2,0.8,0.3l-0.5-7.3L38.8,90.9z
				 M52.7,76.6l0.2,0l0,0L52.7,76.6z"/>
			<path fill="#282626" d="M116.3,10.6c-0.4-0.4-1-0.5-1.5-0.4c-0.1,0-0.3,0.1-0.4,0.2L89.8,23.8l0,0c-0.1,0.1-0.3,0.2-0.4,0.3
				l-36,36.2l-26,26.2c-0.4,0.4-0.6,1.1-0.4,1.6c0.1,0.2,1.3,4.4,3.6,7.3c0.1,0.1,0.1,0.2,0.2,0.3c0.3,0.4,0.7,0.8,1.1,1.2
				c3,2.7,8,4.3,8.2,4.3c0.2,0.1,0.4,0.1,0.7,0.1c0,0,0.1,0,0.1,0c0.3-0.1,0.6-0.2,0.9-0.5l62.1-62.4c0.1-0.1,0.2-0.3,0.3-0.4l0,0
				l12.6-25.5C117,11.9,116.9,11.1,116.3,10.6z M33.2,93.5c-1.3-1.6-2.3-3.9-2.8-5.4l25.5-25.6l32.1-32.2c0,0,0,0,0,0l0.2-0.2
				c0.3-0.3,0.7-0.7,1.2-1.3l0.4-0.4l0,0c1-1,2.2-2,2.7-2.3l12.1-6.6l0.7-0.4c0.3,0.4,0.6,0.8,0.9,1.2l-5.8,5.9l-0.3,0.3l-3.6,3.7
				l-1.2,1.2l-1.9,2l-0.4,0.4l-0.3,0.3l-1.8,1.8l-1.9,1.9l-3.3,3.3l-0.5,0.5l-3.5,3.6l-0.1,0.1L70.9,56l-0.6,0.6L66.9,60l-0.3,0.3
				L50.7,76.4l-8,8l-0.1,0.1l-1.8,1.9l0,0l-0.3,0.3l-0.6,0.6l-0.8,0.8l-0.8,0.8l-0.2,0.2l-0.5,0.5l-0.5,0.5l-0.7,0.7L36.3,91
				l-1.1,1.1l-1.8,1.8C33.4,93.7,33.3,93.6,33.2,93.5z M102,34.7l-0.2,0.5l0,0l-0.1,0.2l0,0.1c-0.1,0.2-0.2,0.4-0.4,0.5
				c-0.2,0.3-0.5,0.7-0.8,1c-0.3,0.3-0.5,0.6-0.8,0.9c-0.1,0.1-0.2,0.2-0.2,0.3l-0.9,0.9l-0.6,0.6c-0.1,0.1-0.2,0.2-0.2,0.3
				c0,0-0.1,0.1-0.1,0.1l-0.7,0.7l-2.1,2.1l-0.8,0.8l-0.8,0.8L91,46.6l-0.8,0.8l-0.8,0.8l-2.2,2.2l-0.8,0.8L85.5,52l-2.1,2.1
				l-0.8,0.8l-0.8,0.8l-2,2.1L79,58.6l-0.8,0.8l-2,2l-0.8,0.8l-0.8,0.8l-2.1,2.1L71.6,66l-0.8,0.8L68.6,69l-0.8,0.8L67,70.7l-2,2
				l-0.8,0.8l-0.8,0.8l-2,2.1l-0.8,0.8L59.7,78l-2,2.1l-0.8,0.8L56,81.7L53.7,84l-1.6,1.6l-1.7,1.7l-0.8,0.8L48.7,89l-1.5,1.5
				l-0.8,0.8l-0.8,0.8l-0.9,0.9l-0.8,0.8l0,0l-0.8,0.8l-0.9,0.9l-0.8,0.8l-0.8,0.8l-0.5,0.5c-0.1,0-0.1,0-0.2-0.1l-0.1,0.1l0-0.1
				c-0.2-0.1-0.5-0.2-0.8-0.3c-0.3-0.1-0.6-0.3-1-0.4c-0.3-0.1-0.5-0.3-0.8-0.4c-0.2-0.1-0.5-0.3-0.8-0.4c-0.4-0.2-0.7-0.4-1-0.6
				c-0.3-0.2-0.5-0.3-0.8-0.5l0.7-0.7l1-1l0.6-0.6l0.8-0.8l1-1l0.6-0.6l0.7-0.8l1-1l0.6-0.6l1.1-1.1l0.8-0.8l0.8-0.8l0.9-0.9
				l0.8-0.8l0.8-0.8l1.5-1.6l0.8-0.8l0.8-0.8l1.7-1.7l0.8-0.8l0.2-0.2l-0.2,0l0.2,0l0.6-0.6l2.2-2.3l0.8-0.8l0.8-0.8l2.1-2.1
				l0.8-0.8l0.8-0.8l2.1-2l0.8-0.8l0.2-0.2l-0.2,0l0.2,0l0.6-0.6l2-2.1l0.8-0.8l0.8-0.8l2.1-2.1l0.8-0.8l0.8-0.8l2.2-2.2l1.6-1.6
				l2-2.1l1.6-1.6l2-2.1l1.6-1.6l2-2.1l0.8-0.8l0.8-0.8l2.2-2.2l0.8-0.8l0.8-0.8l1.4-1.4l0.6-0.6l0.8-0.8l0.6-0.6l0.2-0.2l2.2-2.2
				l0,0l0.8-0.8l0.4-0.4l0.4-0.4l2-2.1l0.8-0.8l0.8-0.8l5.4-5.5l0.1-0.1c0.3,0.2,0.6,0.5,0.9,0.6L102,34.7z"/>
			<polygon fill="#75073C" points="43.8,93.9 43.6,93.9 43.6,93.9 			"/>
			<polygon fill="#75073C" points="43.8,93.9 43.6,93.9 43.6,93.9 			"/>
			<polygon fill="#75073C" points="40.8,86.4 40.8,86.4 40.6,86.4 			"/>
			<path fill="#A09C9E" d="M106.1,20.4l-5.8,5.9l-0.3,0.3l-3.6,3.7l-1.2,1.2l-1.9,2l-0.4,0.4l-0.3,0.3l-1.8,1.8l-1.9,1.9l-3.3,3.3
				l-0.5,0.5l-3.5,3.6l-0.1,0.1L70.9,56l-0.6,0.6L66.9,60l-0.3,0.3L50.7,76.4l-7.9,8l-0.1,0.1l-1.8,1.9l-0.2,0l0.2,0l-0.3,0.3
				l-0.6,0.6l-0.8,0.8l-0.8,0.8l-0.2,0.2l-0.5,0.5l-0.5,0.5l-0.7,0.7L36.3,91l-1.1,1.1l-1.8,1.8c-0.1-0.1-0.2-0.2-0.3-0.3
				c-1.3-1.6-2.3-3.9-2.8-5.4l25.5-25.6l32.1-32.2c0,0,0,0,0,0l0.2-0.2c0.3-0.3,0.7-0.7,1.2-1.3l0.4-0.4l0,0c1-1,2.2-2,2.7-2.3
				l12.1-6.6l0.7-0.4C105.5,19.5,105.8,20,106.1,20.4z"/>
			<polygon fill="#75073C" points="52.8,76.6 52.8,76.7 52.7,76.7 			"/>
			<polygon fill="#75073C" points="52.8,76.6 52.8,76.7 52.7,76.7 			"/>
			<polygon fill="#75073C" points="64.1,65.3 64.1,65.3 63.9,65.3 			"/>
			<polygon fill="#75073C" points="64.1,65.3 64.1,65.3 63.9,65.3 			"/>
			<g>
				<path fill="#75073C" d="M43.6,93.9L43.6,93.9l0.2,0L43.6,93.9z M40.6,86.4l0.2,0l0,0L40.6,86.4z"/>
			</g>
			<g>
				<path d="M63.9,65.3l0.2,0l0,0L63.9,65.3z M52.7,76.6l0.2,0l0,0L52.7,76.6z M39.8,97.6l0,0.1L39.8,97.6
					C39.8,97.6,39.8,97.6,39.8,97.6z"/>
			</g>
		</g>
	</g>
</g>
<rect x="14.2" y="119" fill="none" width="115.3" height="26"/>
<text transform="matrix(1 0 0 1 14.1596 127.5671)" font-family="'HelveticaNeue'" font-size="12">Illustration &amp; Painting</text>
</svg>
