<?xml version="1.0" encoding="utf-8"?>
<!-- Generator: Adobe Illustrator 18.1.0, SVG Export Plug-In . SVG Version: 6.00 Build 0)  -->
<!DOCTYPE svg PUBLIC "-//W3C//DTD SVG 1.1//EN" "http://www.w3.org/Graphics/SVG/1.1/DTD/svg11.dtd">
<svg version="1.1" id="Layer_1" xmlns="http://www.w3.org/2000/svg" xmlns:xlink="http://www.w3.org/1999/xlink" x="0px" y="0px"
	 viewBox="0 0 144 144" enable-background="new 0 0 144 144" xml:space="preserve">
<g>
	<g>
		<g>
			<polygon fill="#A09C9E" points="107.4,57.9 107.4,60 98,66.6 98,64.5 			"/>
			<polygon fill="#A09C9E" points="107.4,61.3 107.4,63.4 98,70 98,68 			"/>
			<polygon fill="#A09C9E" points="107.4,64.8 107.4,66.8 98,73.4 98,71.4 			"/>
			<polygon fill="#A09C9E" points="107.4,68.2 107.4,70.3 98,76.9 98,74.8 			"/>
			<polygon fill="#A09C9E" points="107.4,71.6 107.4,73.7 98,80.3 98,78.3 			"/>
			<polygon fill="#A09C9E" points="107.4,75 107.4,77.1 98,83.7 98,81.7 			"/>
			<polygon fill="#A09C9E" points="98,87.1 98,87.3 97.9,87.3 			"/>
			<polygon fill="#A09C9E" points="107.4,81.9 107.4,84 103.8,86.5 102.4,87.5 99.6,87.4 101.1,86.3 			"/>
			<polygon fill="#A09C9E" points="105.6,86.6 107.4,85.3 107.4,87 105.2,87.7 104.1,87.6 			"/>
			<polygon fill="#A09C9E" points="107.4,78.5 107.4,80.5 99.3,86.2 98,87.1 98,85.1 			"/>
			<polygon fill="#A09C9E" points="107.4,54.5 107.4,56.5 98,63.2 98,61.1 			"/>
			<polygon fill="#A09C9E" points="107.4,51.1 107.4,53.1 98,59.7 98,57.7 			"/>
			<polygon fill="#A09C9E" points="107.4,47.6 107.4,49.7 98,56.3 98,54.3 			"/>
			<polygon fill="#A09C9E" points="107.4,44.2 107.4,46.3 98,52.9 98,50.8 			"/>
			<polygon fill="#A09C9E" points="107.4,40.8 107.4,42.8 98,49.5 98,47.4 			"/>
			<path fill="#A09C9E" d="M105.2,20.6l-3.1,1.1l-5.4,1.9l-0.2,0.1c-0.5,0.2-0.7,0.6-0.7,1.1v1.1l-34.3-0.2h-1.1v-5.2h3.4l19,0h1.1
				L105.2,20.6z"/>
			<polygon fill="#A09C9E" points="107.4,22.2 107.4,22.3 98,28.9 98,25.6 			"/>
			<polygon fill="#A09C9E" points="107.4,23.6 107.4,25.7 98,32.3 98,30.3 			"/>
			<polygon fill="#A09C9E" points="107.4,27.1 107.4,29.1 98,35.8 98,33.7 			"/>
			<polygon fill="#A09C9E" points="107.4,30.5 107.4,32.6 98,39.2 98,37.1 			"/>
			<polygon fill="#A09C9E" points="107.4,33.9 107.4,36 98,42.6 98,40.6 			"/>
			<polygon fill="#A09C9E" points="107.4,37.3 107.4,39.4 98,46 98,44 			"/>
			<path d="M98,86.1v1l1.3-0.9L98,86.1z M101.1,86.3l-1.5,1l2.7,0.2l1.5-1.1L101.1,86.3z M98,86.1v1l1.3-0.9L98,86.1z M101.1,86.3
				l-1.5,1l2.7,0.2l1.5-1.1L101.1,86.3z M98,86.1v1l1.3-0.9L98,86.1z M93.4,19.4H73.1l-1.2,0H60.4c-0.1,0-0.2,0-0.3,0c0,0,0,0-0.1,0
				l0,0l-0.2,0.1c-0.1,0-0.1,0.1-0.2,0.2c-0.2,0.2-0.3,0.5-0.3,0.8v5.2h2.3v-4h2.2l19.2,0H84l18.1,0l3.1-1.1l2.9-1.1
				c0.1,0,0.2-0.1,0.4-0.1L93.4,19.4z M101.1,86.3l-1.5,1h0l-1.4,1.1l2.7,0.1l1.5-1l1.5-1.1L101.1,86.3z M105.6,86.6l-1.5,1l-1,0.7
				l2.1-0.7l2.1-0.7v-0.4L105.6,86.6z M98,86.1v1l1.3-0.9L98,86.1z M97.9,87.3l0.2,0v-0.2L97.9,87.3z M101.1,86.3l-1.5,1l2.7,0.2
				l1.5-1.1L101.1,86.3z M98,86.1v1l1.3-0.9L98,86.1z M101.1,86.3l-1.5,1l2.7,0.2l1.5-1.1L101.1,86.3z M98,86.1v1l1.3-0.9L98,86.1z"
				/>
		</g>
		<g>
			<polygon fill="#A09C9E" points="60.4,20.6 49.7,24.5 49.7,33.8 60.4,33.8 			"/>
			<path d="M61,19.6c-0.2-0.1-0.4-0.2-0.6-0.2h0c-0.1,0-0.2,0-0.3,0c0,0,0,0-0.1,0l0,0l-0.2,0.1l-10.5,3.9l0,0
				c-0.1,0-0.3,0.1-0.4,0.2c-0.1,0.1-0.2,0.2-0.2,0.4c-0.1,0.1-0.1,0.3-0.1,0.4v9.2c0,0.6,0.5,1.1,1.1,1.1h10.7
				c0.6,0,1.1-0.5,1.1-1.1V20.5C61.5,20.2,61.3,19.8,61,19.6z M59.3,32.6h-8.5v-7.3l2.1-0.8h0l3-1.1l3.4-1.3V32.6z"/>
		</g>
		<g>
			<polygon fill="#FFFFFF" points="95.8,24.8 95.8,25.9 61.5,25.7 59.3,25.7 50.8,25.7 50.8,34.9 49.7,34.9 49.7,24.5 52.9,24.6 
				52.9,24.6 59.3,24.6 60.4,24.6 61.5,24.6 63.8,24.6 82.8,24.7 83.9,24.7 			"/>
			<polygon fill="#FFFFFF" points="95.8,25.9 95.8,90.1 95.6,90.2 93.8,90.1 91.2,90 89.4,89.9 86.7,89.7 84.9,89.6 82.2,89.4 
				80.5,89.3 77.8,89.2 76,89.1 73.3,88.9 71.5,88.8 68.9,88.7 67.1,88.5 64.4,88.4 62.6,88.3 59.9,88.1 58.1,88 55.5,87.9 
				53.7,87.8 51,87.6 50.8,87.6 50.8,25.7 59.3,25.7 61.5,25.7 			"/>
			<polygon fill="#FFFFFF" points="95.8,90.1 95.8,90.2 95.6,90.2 			"/>
			<polygon fill="#FFFFFF" points="96.4,88.3 95.8,88.7 95.8,88.3 			"/>
			<path d="M95.8,88.3v0.5l0.6-0.4L95.8,88.3z M95.8,88.3v0.5l0.6-0.4L95.8,88.3z M95.8,88.3v0.5l0.6-0.4L95.8,88.3z M95.8,88.3v0.5
				l0.6-0.4L95.8,88.3z M95.8,88.3v0.5l0.6-0.4L95.8,88.3z M97.9,87.3l0.2,0v-0.2L97.9,87.3z M84,23.6h-1.2l-19.2-0.1h-2.2l-1.1,0
				h-1.1l-3.4,0h-3.2l-3,0c-0.2,0-0.3,0-0.4,0.1c-0.1,0-0.3,0.1-0.4,0.2c-0.1,0.1-0.2,0.2-0.2,0.4c-0.1,0.1-0.1,0.3-0.1,0.4v9.2
				c0,0.6,0.5,1.1,1.1,1.1h1.1v-9.2l8.5,0h2.3l34.3,0.2v-1.1c0-0.5,0.3-0.9,0.7-1.1l0.2-0.1L84,23.6z M95.8,88.3v0.5l0.6-0.4
				L95.8,88.3z M95.8,88.3v0.5l0.6-0.4L95.8,88.3z M95.8,88.3v0.5l0.6-0.4L95.8,88.3z"/>
		</g>
		<g>
			<polygon fill="#A09C9E" points="107.4,57.9 107.4,60 98,66.6 98,64.5 			"/>
			<polygon fill="#A09C9E" points="107.4,61.3 107.4,63.4 98,70 98,68 			"/>
			<polygon fill="#A09C9E" points="107.4,64.8 107.4,66.8 98,73.4 98,71.4 			"/>
			<polygon fill="#A09C9E" points="107.4,68.2 107.4,70.3 98,76.9 98,74.8 			"/>
			<polygon fill="#A09C9E" points="107.4,71.6 107.4,73.7 98,80.3 98,78.3 			"/>
			<polygon fill="#A09C9E" points="107.4,75 107.4,77.1 98,83.7 98,81.7 			"/>
			<polygon fill="#A09C9E" points="98,87.1 98,87.3 97.9,87.3 			"/>
			<polygon fill="#A09C9E" points="107.4,82 107.4,84 103.8,86.5 102.4,87.5 100.9,88.6 99.7,89.4 98,89.9 98,88.7 			"/>
			<polygon fill="#A09C9E" points="107.4,85.4 107.4,87 105.2,87.7 103.5,88.2 			"/>
			<polygon fill="#A09C9E" points="107.4,78.5 107.4,80.4 98,87.1 98,85.1 			"/>
			<polygon fill="#A09C9E" points="107.4,54.5 107.4,56.5 98,63.2 98,61.1 			"/>
			<polygon fill="#A09C9E" points="107.4,51.1 107.4,53.1 98,59.7 98,57.7 			"/>
			<polygon fill="#A09C9E" points="107.4,47.6 107.4,49.7 98,56.3 98,54.3 			"/>
			<polygon fill="#A09C9E" points="107.4,44.2 107.4,46.3 98,52.9 98,50.8 			"/>
			<polygon fill="#A09C9E" points="107.4,40.8 107.4,42.8 98,49.5 98,47.4 			"/>
			<polygon fill="#A09C9E" points="107.4,22.2 107.4,22.3 98,28.9 98,25.6 			"/>
			<polygon fill="#A09C9E" points="107.4,23.6 107.4,25.7 98,32.3 98,30.3 			"/>
			<polygon fill="#A09C9E" points="107.4,27.1 107.4,29.1 98,35.8 98,33.7 			"/>
			<polygon fill="#A09C9E" points="107.4,30.5 107.4,32.6 98,39.2 98,37.1 			"/>
			<polygon fill="#A09C9E" points="107.4,33.9 107.4,36 98,42.6 98,40.6 			"/>
			<polygon fill="#A09C9E" points="107.4,37.3 107.4,39.4 98,46 98,44 			"/>
			<path d="M97.9,87.3l0.2,0v-0.2L97.9,87.3z"/>
			<polygon points="98,87.1 98,87.3 97.9,87.3 			"/>
			<path d="M109.6,20.4c0-0.1,0-0.1-0.1-0.2c0-0.1,0-0.1-0.1-0.2c-0.1-0.1-0.2-0.2-0.3-0.3c-0.1,0-0.2-0.1-0.2-0.1c0,0-0.1,0-0.1,0
				c-0.1,0-0.2,0-0.3,0c-0.1,0-0.3,0-0.4,0.1l-2.9,1.1l-3.1,1.1l-5.4,1.9l-0.2,0.1c-0.5,0.2-0.7,0.6-0.7,1.1v65.5h-0.2l-1.8-0.1
				L91.2,90l-1.8-0.1l-2.7-0.2l-1.8-0.1l-2.7-0.2l-1.8-0.1l-2.7-0.2L76,89.1l-2.7-0.2l-1.8-0.1l-2.7-0.2l-1.8-0.1l-2.7-0.2l-1.8-0.1
				l-2.7-0.2L58.1,88l-2.7-0.2l-1.8-0.1L51,87.6l-0.2,0V34.9h-1.1c-0.6,0-1.1-0.5-1.1-1.1v54.9c0,0.2,0.1,0.4,0.2,0.6
				c0.2,0.3,0.5,0.5,0.9,0.5l1.2,0.1l1.8,0.1l2.7,0.2l1.8,0.1l2.7,0.2l1.8,0.1l2.7,0.2l1.8,0.1l2.7,0.2l1.8,0.1l2.7,0.2l1.8,0.1
				l2.7,0.2l1.8,0.1l2.7,0.2l1.8,0.1l2.7,0.2l1.8,0.1l2.7,0.2l1.8,0.1l2.7,0.2l1.5,0.1h0.1c0.1,0,0.2,0,0.3,0h0l11.5-3.5l0.1,0
				c0,0,0.1,0,0.1,0c0.1,0,0.2-0.1,0.3-0.2c0,0,0.1-0.1,0.1-0.1c0.1,0,0.1-0.1,0.1-0.2c0.1-0.1,0.1-0.1,0.1-0.2
				c0-0.1,0.1-0.2,0.1-0.4V20.6C109.6,20.5,109.6,20.4,109.6,20.4z M98,87.1v0.2l-0.2,0L98,87.1z M107.4,87l-2.1,0.7l-1.7,0.5
				l3.9-2.8V87z M107.4,84l-3.6,2.5l-1.5,1.1l-1.5,1l-1.2,0.8L98,89.9v-1.2l9.3-6.7V84z M107.4,80.4L98,87.1v-2l9.3-6.6V80.4z
				 M107.4,77.1L98,83.7v-2.1l9.3-6.6V77.1z M107.4,73.7L98,80.3v-2.1l9.3-6.6V73.7z M107.4,70.3L98,76.9v-2.1l9.3-6.6V70.3z
				 M107.4,66.8L98,73.4v-2.1l9.3-6.6V66.8z M107.4,63.4L98,70V68l9.3-6.6V63.4z M107.4,60L98,66.6v-2.1l9.3-6.6V60z M107.4,56.5
				L98,63.2v-2.1l9.3-6.6V56.5z M107.4,53.1L98,59.7v-2.1l9.3-6.6V53.1z M107.4,49.7L98,56.3v-2.1l9.3-6.6V49.7z M107.4,46.3
				L98,52.9v-2.1l9.3-6.6V46.3z M107.4,42.8L98,49.5v-2.1l9.3-6.6V42.8z M107.4,39.4L98,46V44l9.3-6.6V39.4z M107.4,36L98,42.6v-2.1
				l9.3-6.6V36z M107.4,32.6L98,39.2v-2.1l9.3-6.6V32.6z M107.4,29.1L98,35.8v-2.1l9.3-6.6V29.1z M107.4,25.7L98,32.3v-2.1l9.3-6.6
				V25.7z M107.4,22.3L98,28.9v-3.3L107.4,22.3L107.4,22.3z"/>
		</g>
		<path d="M63.2,25.1c-0.3,0-0.5-0.2-0.6-0.5c0-0.3-0.9-7.6,2.9-11.8c1.8-2,4.5-2.9,7.7-2.8c3.2-0.2,5.8,0.8,7.7,2.8
			c3.8,4.2,3,11.4,2.9,11.7c0,0.3-0.3,0.5-0.6,0.5c-0.3,0-0.5-0.3-0.5-0.6c0-0.1,0.9-7.1-2.6-10.8c-1.6-1.7-3.9-2.6-6.9-2.4
			c-3-0.1-5.3,0.7-6.9,2.4c-3.5,3.8-2.6,10.8-2.6,10.8C63.8,24.8,63.6,25.1,63.2,25.1C63.3,25.1,63.2,25.1,63.2,25.1z"/>
		<path d="M92.7,20.5C92.7,20.5,92.7,20.5,92.7,20.5c-0.4,0-0.6-0.3-0.6-0.6c0-0.1,0.9-7.1-2.6-10.8c-1.6-1.7-3.9-2.6-6.9-2.4
			c-3-0.1-5.3,0.7-6.9,2.4c-3.5,3.8-2.6,10.8-2.6,10.8c0,0.3-0.2,0.6-0.5,0.6c-0.3,0-0.6-0.2-0.6-0.5c0-0.3-0.9-7.6,2.9-11.7
			c1.8-2,4.4-2.9,7.7-2.8c3.2-0.2,5.8,0.8,7.7,2.8c3.8,4.2,3,11.4,2.9,11.7C93.3,20.3,93,20.5,92.7,20.5z"/>
		<polygon points="98,87.1 98,87.3 97.9,87.3 		"/>
		<polygon points="98.2,88.4 98,88.5 98,88.4 		"/>
		<polygon points="102.1,88.6 99.7,89.4 100.9,88.6 		"/>
	</g>
	<g>
		<path fill="#FFFFFF" d="M58.3,91V54.2c0.2-5.6-2.3-8.4-2.4-8.5c-0.7-0.8-1.5-3.2-1.8-4.7c0.2-1.8,0-4.7-0.3-7.8H38.4
			c-0.3,3.1-0.4,6-0.3,7.8c-0.3,1.4-1.1,3.9-1.8,4.7c-0.1,0.1-2.6,2.9-2.4,8.5v36.7c0,0.5-0.2,5.2,1.6,7.5c0.2,0.2,0.4,0.4,0.7,0.4
			c0.2,0,4.1,0.7,9.6,0.7h0.5c5.6,0,9.4-0.7,9.6-0.7c0.3,0,0.5-0.2,0.7-0.4C58.5,96.1,58.3,91.4,58.3,91z M49.3,91.2
			c-0.4,0-0.8,0-1.1,0.1c-7,0.3-10.5-0.1-12-0.4l0-35.8c1.3,0.2,3.6,0.5,7.5,0.5c1.2,0,2.6,0,4.1-0.1c0.4,0,0.7,0,1.1-0.1
			c2.1-0.1,4.4-0.3,7.2-0.5v35.8C53.5,90.9,51.2,91.1,49.3,91.2z"/>
		<path fill="#FFFFFF" d="M58.3,91V54.2c0.2-5.6-2.3-8.4-2.4-8.5c-0.7-0.8-1.5-3.2-1.8-4.7c0.2-1.8,0-4.7-0.3-7.8
			c-0.5-6.1-1.6-13-1.8-14.7c0.2,0,0.3-0.1,0.4-0.2c0.4-0.5,0.7-1.7-0.6-2.8c-0.1-0.1-0.2-0.1-0.4-0.1H40.7c-0.1,0-0.2,0-0.3,0.1
			c-0.1,0-0.7,0.5-0.9,1.3c-0.1,0.4-0.1,0.9,0.3,1.6c0.1,0.2,0.2,0.2,0.4,0.2c-0.2,1.6-1.3,8.6-1.8,14.7c-0.3,3.1-0.4,6-0.3,7.8
			c-0.3,1.4-1.1,3.9-1.8,4.7c-0.1,0.1-2.6,2.9-2.4,8.5v36.7c0,0.5-0.2,5.2,1.6,7.5c0.2,0.2,0.4,0.4,0.7,0.4c0.2,0,4.1,0.7,9.6,0.7
			h0.5c5.6,0,9.4-0.7,9.6-0.7c0.3,0,0.5-0.2,0.7-0.4C58.5,96.1,58.3,91.4,58.3,91z M49.3,91.2c-0.4,0-0.8,0-1.1,0.1
			c-7,0.3-10.5-0.1-12-0.4l0-35.8c1.3,0.2,3.6,0.5,7.5,0.5c1.2,0,2.6,0,4.1-0.1c0.4,0,0.7,0,1.1-0.1c2.1-0.1,4.4-0.3,7.2-0.5v35.8
			C53.5,90.9,51.2,91.1,49.3,91.2z"/>
		<path fill="#A09C9E" d="M58.3,91V54.2c0.2-5.6-2.3-8.4-2.4-8.5c-0.7-0.8-1.5-3.2-1.8-4.7c0.2-1.8,0-4.7-0.3-7.8
			c-0.5-6.1-1.6-13-1.8-14.7c0-0.2-0.1-0.3-0.1-0.3c0-0.1,0-0.2-0.1-0.2c-0.1-0.2-0.2-0.5-0.4-0.6c-0.2-0.2-0.5-0.2-0.7-0.2
			c-0.4,0.1-0.8,0.1-1.2,0.2c-4.2,0.5-6.5,0.2-7.3,0c-0.3-0.1-0.4-0.1-0.4-0.1c-0.3-0.1-0.7-0.1-1,0.1c0,0,0,0,0,0
			c-0.2,0.1-0.4,0.3-0.5,0.6c0,0.1-0.1,0.2-0.1,0.2c0,0,0,0.2,0,0.3c-0.2,1.6-1.3,8.6-1.8,14.7c-0.3,3.1-0.4,6-0.3,7.8
			c-0.3,1.4-1.1,3.9-1.8,4.7c-0.1,0.1-2.6,2.9-2.4,8.5v36.7c0,0.5-0.2,5.2,1.6,7.5c0.2,0.2,0.4,0.4,0.7,0.4c0.2,0,4.1,0.7,9.6,0.7
			h0.5c5.6,0,9.4-0.7,9.6-0.7c0.3,0,0.5-0.2,0.7-0.4C58.5,96.1,58.3,91.4,58.3,91z M49.3,91.2c-0.4,0-0.8,0-1.1,0.1
			c-7,0.3-10.5-0.1-12-0.4l0-35.8c1.3,0.2,3.6,0.5,7.5,0.5c1.2,0,2.6,0,4.1-0.1c0.4,0,0.7,0,1.1-0.1c2.1-0.1,4.4-0.3,7.2-0.5v35.8
			C53.5,90.9,51.2,91.1,49.3,91.2z M37.9,47.2c1.4-1.6,2.3-5.4,2.4-5.9c0-0.1,0-0.2,0-0.4c-0.2-1.7,0-4.6,0.3-7.7
			c0.5-5.1,1.3-11,1.6-13.5c0.8,0.1,1.9,0.2,3.4,0.2c0,0.3,0.1,0.6,0.1,1c0.2,2.2,0.5,5.7,0.7,9.1c0,0.5,0,0.9,0,1.3
			c0,0.6,0,1.2,0,1.9c0,1.3,0,2.5-0.1,3.5c0,0.5-0.1,0.9-0.1,1.3c0,0.3-0.1,0.6-0.1,0.9c-0.1,0.4-0.2,0.8-0.2,1.1
			c0,0.3-0.2,2.8,0,3.7c0,0.1,0.1,0.4,0.3,0.8c0.6,1.9,2.5,7.3,1.7,9.8c-6.8,0.3-10.3-0.2-11.8-0.5C36.1,49.4,37.9,47.3,37.9,47.2z
			 M46,97.3c-2.7,0-5.8-0.2-9-0.6c-0.7-1.2-0.9-3.3-0.9-4.7c1.3,0.2,3.6,0.5,7.5,0.5c1.3,0,2.8,0,4.5-0.1c-0.1,1.6-0.4,3.7-0.8,4.9
			C46.8,97.3,46.4,97.3,46,97.3z"/>
		<path fill="#020000" d="M58.3,91V54.2c0.2-5.6-2.3-8.4-2.4-8.5c-0.7-0.8-1.5-3.2-1.8-4.7c0.2-1.8,0-4.7-0.3-7.8
			c-0.5-6.1-1.6-13-1.8-14.7c0-0.2-0.1-0.3-0.1-0.3c0-0.1,0-0.2-0.1-0.2c-0.1-0.2-0.2-0.5-0.4-0.6c-0.2-0.2-0.5-0.2-0.7-0.2
			c-0.4,0.1-0.8,0.1-1.2,0.2c-4.2,0.5-6.5,0.2-7.3,0c-0.3-0.1-0.4-0.1-0.4-0.1c-0.3-0.1-0.7-0.1-1,0.1c0,0,0,0,0,0
			c-0.2,0.1-0.4,0.3-0.5,0.6c0,0.1-0.1,0.2-0.1,0.2c0,0,0,0.2,0,0.3c-0.2,1.6-1.3,8.6-1.8,14.7c-0.3,3.1-0.4,6-0.3,7.8
			c-0.3,1.4-1.1,3.9-1.8,4.7c-0.1,0.1-2.6,2.9-2.4,8.5v36.7c0,0.5-0.2,5.2,1.6,7.5c0.2,0.2,0.4,0.4,0.7,0.4c0.2,0,4.1,0.7,9.6,0.7
			h0.5c5.6,0,9.4-0.7,9.6-0.7c0.3,0,0.5-0.2,0.7-0.4C58.5,96.1,58.3,91.4,58.3,91z M55.1,96.7c-2.3,0.3-4.6,0.5-6.7,0.6
			c-0.4,0-0.8,0-1.2,0c-0.4,0-0.8,0-1.2,0c-2.7,0-5.8-0.2-9-0.6c-0.7-1.2-0.9-3.3-0.9-4.7v0c0-0.4,0-0.7,0-1v-0.1l0-35.8v-1.2
			c-0.1-4.5,1.8-6.6,1.8-6.7c1.4-1.6,2.3-5.4,2.4-5.9c0-0.1,0-0.2,0-0.4c-0.2-1.7,0-4.6,0.3-7.7c0.5-5.1,1.3-11,1.6-13.5
			c0.8,0.1,1.9,0.2,3.4,0.2c0.4,0,0.7,0,1.1,0c0.9,0,1.9-0.1,3-0.3C50.2,22,51,28,51.5,33.2c0.3,3.2,0.5,6,0.3,7.7
			c0,0.1,0,0.2,0,0.4c0.1,0.4,0.9,4.3,2.4,5.9c0.1,0.1,1.9,2.2,1.8,6.6v37.3c0,0.2,0,0.5,0,0.7C56,93.1,55.8,95.3,55.1,96.7z"/>
		<path fill="#FFFFFF" d="M56,54.9v35.8c-2.5,0.2-4.8,0.4-6.7,0.5c-0.4,0-0.8,0-1.1,0.1c-7,0.3-10.5-0.1-12-0.4l0-35.8
			c1.3,0.2,3.6,0.5,7.5,0.5c1.2,0,2.6,0,4.1-0.1c0.4,0,0.7,0,1.1-0.1C50.9,55.3,53.3,55.1,56,54.9z"/>
		<g>
			<path d="M40.2,18h11.7c0,0,0.8-1-0.5-2.1H40.7C40.7,15.9,39.4,16.6,40.2,18z"/>
			<path fill="#020000" d="M42.1,17.4c0.8,0.2,3.1,0.5,7.3,0H42.1z M42.1,17.4c0.8,0.2,3.1,0.5,7.3,0H42.1z M51.8,15.5
				c-0.1-0.1-0.2-0.1-0.4-0.1H40.7c-0.1,0-0.2,0-0.3,0.1c-0.1,0-0.7,0.5-0.9,1.3c-0.1,0.4-0.1,0.9,0.3,1.6c0.1,0.2,0.2,0.2,0.4,0.2
				c0,0,0,0,0.1,0h11.7c0,0,0,0,0,0c0.2,0,0.3-0.1,0.4-0.2C52.8,17.8,53.1,16.6,51.8,15.5z M40.6,17.4c-0.2-0.5,0.1-0.8,0.2-0.9
				h10.4c0.4,0.4,0.4,0.7,0.4,0.9H40.6z M42.1,17.4c0.8,0.2,3.1,0.5,7.3,0H42.1z"/>
		</g>
		<path fill="#020000" d="M57.7,54.1c0,0.3-0.2,0.6-0.5,0.6c-0.4,0-0.8,0.1-1.2,0.1c-2.7,0.3-5.1,0.5-7.2,0.5c-0.4,0-0.8,0-1.1,0.1
			c-1.5,0.1-2.9,0.1-4.1,0.1c-3.9,0-6.2-0.3-7.5-0.5c-0.9-0.2-1.3-0.3-1.3-0.3c-0.3-0.1-0.5-0.5-0.3-0.7c0.1-0.3,0.4-0.5,0.7-0.3
			c0,0,0.3,0.1,0.9,0.2c1.5,0.3,5,0.7,11.8,0.5c0.4,0,0.8,0,1.2-0.1c2-0.1,4.3-0.3,6.9-0.5c0.3,0,0.7-0.1,1.1-0.1
			C57.4,53.6,57.6,53.8,57.7,54.1z"/>
		<path fill="#020000" d="M57.7,91.1c0,0.3-0.2,0.6-0.5,0.6c-0.4,0-0.8,0.1-1.2,0.1c-2.6,0.3-4.8,0.5-6.8,0.6c-0.4,0-0.8,0-1.1,0
			c-1.7,0.1-3.2,0.1-4.5,0.1c-3.9,0-6.2-0.3-7.5-0.5v0c-0.9-0.2-1.3-0.3-1.3-0.3c-0.3-0.1-0.5-0.5-0.3-0.7c0.1-0.3,0.4-0.4,0.7-0.3
			c0,0,0.3,0.1,0.9,0.2c1.5,0.3,5.1,0.7,12,0.4c0.4,0,0.7,0,1.1-0.1c2-0.1,4.2-0.3,6.7-0.5c0.3,0,0.7-0.1,1.1-0.1
			C57.4,90.5,57.6,90.8,57.7,91.1z"/>
		<path fill="#020000" d="M49.1,54.3c0,0.3-0.2,0.6-0.3,0.9v0.2c-0.4,0-0.8,0-1.1,0.1V55c0-0.1,0-0.2,0.1-0.3
			c0.1-0.1,0.1-0.3,0.2-0.4c0.8-2.5-1.1-7.9-1.7-9.8c-0.1-0.4-0.2-0.7-0.3-0.8c-0.2-0.9,0-3.4,0-3.7c0.1-0.3,0.2-0.7,0.2-1.1
			c0-0.3,0.1-0.6,0.1-0.9c0.1-0.4,0.1-0.9,0.1-1.3c0-1.1,0.1-2.3,0.1-3.5c0-0.6,0-1.2,0-1.9c0-0.5,0-0.9,0-1.3
			c-0.2-3.4-0.5-6.8-0.7-9.1c0-0.4-0.1-0.7-0.1-1c-0.1-0.7-0.1-1.2-0.2-1.4c0-0.1,0-0.1,0-0.1c0-0.2,0-0.3,0.2-0.5
			c0.1-0.1,0.2-0.2,0.3-0.2c0.2,0,0.4,0,0.5,0.2c0.1,0.1,0.1,0.2,0.1,0.3c0,0,0,0.1,0,0.2c0,0.3,0.1,0.7,0.2,1.4
			c0.3,2.8,0.8,8.4,0.9,13.3c0,2.9-0.1,5.5-0.6,7c0,0.9-0.1,2.7,0,3.2c0,0.1,0.1,0.4,0.2,0.7C48.5,47.6,49.7,51.7,49.1,54.3z"/>
		<path fill="#020000" d="M49.3,91.2v0.3c0,0.2,0,0.5,0,0.8c-0.1,1.2-0.3,3.4-0.8,4.9c-0.2,0.7-0.5,1.2-0.8,1.6
			c-0.1,0.1-0.2,0.2-0.4,0.2c-0.1,0-0.3-0.1-0.4-0.2c-0.2-0.2-0.2-0.6,0-0.8c0.2-0.2,0.3-0.4,0.4-0.7c0.4-1.2,0.7-3.2,0.8-4.9
			c0-0.3,0-0.6,0-0.9v-0.2C48.5,91.3,48.9,91.3,49.3,91.2z"/>
	</g>
	<g>
		<path fill="#FFFFFF" d="M73.4,61.7l0.1,3.4c0,0.3,0.1,0.3,0.3,0.5c0.2,0.1,0.3,0.2,0.5,0.2h0.2c0.1,0,0.3-0.1,0.4-0.1l3.7,37.6
			c0,0.4,0.3,0.7,0.7,0.7c3.4,0.6,6.8,0.9,10.1,0.9c5.6,0,9-0.9,9.2-1c0.3-0.1,0.6-0.4,0.6-0.7l5-37c0,0,0,0,0,0
			c0.2,0.1,0.5,0,0.7-0.2c0.2-0.2,0.3-0.4,0.3-0.7v-3.8c0-0.4-0.3-0.7-0.6-0.8c-0.5-0.1-0.9-0.2-1.4-0.3v-3.3c0-0.4-0.2-0.7-0.6-0.8
			c-0.2-0.1-6-2.1-13.7-2.1c-4.5,0-8.8,0.7-12.7,2.1c-0.3,0.1-0.6,0.4-0.6,0.8v3.2c-1,0.3-1.6,0.4-1.6,0.5
			C73.6,61,73.4,61.3,73.4,61.7z"/>
		<path fill="#A09C9E" d="M73.2,61.3v3.8c0,0.3,0.1,0.5,0.3,0.7c0.2,0.1,0.3,0.2,0.5,0.2h0.2c0.1,0,0.3-0.1,0.4-0.1l3.9,37.3
			c0,0.4,0.3,0.7,0.7,0.8c3.5,0.6,6.9,0.9,10.3,0.9c5.7,0,9.2-0.9,9.3-1c0.3-0.1,0.6-0.4,0.6-0.7l5.1-37.3c0,0,0,0,0,0
			c0.2,0.1,0.5,0,0.7-0.2c0.2-0.2,0.3-0.4,0.3-0.7v-3.8c0-0.4-0.3-0.7-0.6-0.8c-0.5-0.1-0.9-0.2-1.4-0.3v-3.3c0-0.4-0.2-0.7-0.6-0.8
			c-0.2-0.1-6.1-2.1-13.9-2.1c-4.6,0-9,0.7-13,2.1c-0.3,0.1-0.6,0.4-0.6,0.8V60c-1,0.3-1.6,0.4-1.7,0.5
			C73.4,60.6,73.2,60.9,73.2,61.3z M76.5,61.5C76.5,61.5,76.5,61.5,76.5,61.5c0.1,0,0.3-0.1,0.6-0.1c0.3-0.1,0.6-0.1,1-0.2
			c0.3-0.1,0.6-0.1,0.9-0.2c2.2-0.4,5.2-0.8,8.6-0.8c-0.1,0.8-0.2,1.8-0.1,2.8c-7.4,0-11.4,0.9-12.3,1.1c0,0-0.1,0-0.1,0
			c-0.1,0-0.2,0-0.3,0v-2.2C75.3,61.8,75.8,61.7,76.5,61.5z M77.3,75.8c3.7,0.9,7.4,1.3,11.2,1.4c0.3,0,0.6,0,0.9,0h0.3
			c5.7,0,9.9-0.9,11.8-1.4l-2.1,15.7c-2.3,1-5.2,1.5-8.6,1.5c-0.4,0-0.9,0-1.3,0c-0.3,0-0.6,0-0.9,0c-4.2-0.3-8-1.2-9.6-1.6
			L77.3,75.8z M77.2,57.4c3.6-1.2,7.6-1.8,11.8-1.8v2.8c-3.9,0-7.2,0.4-9.5,0.8c-0.5,0.1-1,0.2-1.4,0.3c-0.3,0.1-0.6,0.1-0.8,0.2
			V57.4z M79.1,92.2c1.7,0.4,5.4,1.3,9.5,1.5v9.5c-2.8,0-5.6-0.3-8.4-0.8L79.1,92.2z M76.3,65.6c3.9-0.6,8-0.9,12.2-0.9v11.6
			c-3.8-0.1-7.6-0.6-11.3-1.5L76.3,65.6z"/>
		<path fill="#020000" d="M74.5,65l0.1,0.9l3.9,37.3c0,0.4,0.3,0.7,0.7,0.8c3.5,0.6,6.9,0.9,10.3,0.9c5.7,0,9.2-0.9,9.3-1
			c0.3-0.1,0.6-0.4,0.6-0.7l5.1-37.3l0.1-0.9c0.1-0.5-0.3-0.9-0.7-1h-0.1c-1-0.1-2-0.3-3-0.4c-0.5-0.1-1.1-0.1-1.7-0.2
			c-0.3,0-0.7-0.1-1-0.1c-0.7-0.1-1.4-0.1-2.1-0.2c-0.5,0-1-0.1-1.5-0.1c-0.4,0-0.9,0-1.3-0.1c-1.6-0.1-3.3-0.2-4.8-0.2h-0.9
			c-7.4,0-11.4,0.9-12.3,1.1c0,0-0.1,0-0.1,0c0,0,0,0-0.1,0C74.7,64.2,74.4,64.6,74.5,65z M76.3,65.6L76.3,65.6
			c1.5-0.3,5.5-1,11.7-1c0.2,0,0.3,0,0.5,0c0.3,0,0.6,0,0.9,0c2.3,0,4.7,0.1,7.2,0.3c0.6,0.1,1.2,0.1,1.7,0.2c0.2,0,0.5,0,0.7,0.1
			c0.6,0.1,1.1,0.1,1.6,0.2c0.3,0,0.6,0.1,0.9,0.1c0.4,0,0.8,0.1,1.3,0.1v0.1l-1.3,9.2l-0.1,0.9l-2.1,15.7l-0.1,1l-1.4,10
			c-1.2,0.2-4.1,0.8-8.3,0.8h-0.1c-0.3,0-0.6,0-0.9,0c-2.8,0-5.6-0.3-8.4-0.8l-1.1-10.2l-0.1-0.9l-1.6-15.6l-0.1-0.9L76.3,65.6z"/>
		<path fill="#020000" d="M77.1,61.4c0.3-0.1,0.6-0.1,1-0.2C77.7,61.2,77.4,61.3,77.1,61.4z M79,61c2.2-0.4,5.2-0.8,8.6-0.8
			c0.3,0,0.6,0,0.9,0c0,0,0-0.1,0-0.1c-0.3,0-0.6,0-0.9,0C84.1,60.2,81,60.6,79,61z M77.1,61.4c0.3-0.1,0.6-0.1,1-0.2
			C77.7,61.2,77.4,61.3,77.1,61.4z M79,61c2.2-0.4,5.2-0.8,8.6-0.8c0.3,0,0.6,0,0.9,0c0,0,0-0.1,0-0.1c-0.3,0-0.6,0-0.9,0
			C84.1,60.2,81,60.6,79,61z M73.2,61.3v3.8c0,0.3,0.1,0.5,0.3,0.7c0.2,0.1,0.3,0.2,0.5,0.2h0.2c0.1,0,0.3-0.1,0.4-0.1
			c0.5-0.1,1.1-0.2,1.7-0.3c3.9-0.6,8-0.9,12.2-0.9h0.9c1.9,0,3.7,0.1,5.3,0.2c0.6,0,1.2,0.1,1.9,0.1c0.6,0.1,1.2,0.1,1.7,0.2
			c0.3,0,0.5,0,0.7,0.1c0.6,0.1,1.1,0.1,1.6,0.2c0.3,0,0.6,0.1,0.9,0.1c0.5,0.1,0.9,0.1,1.3,0.2c1,0.1,1.5,0.2,1.7,0.3c0,0,0,0,0,0
			c0.2,0.1,0.5,0,0.7-0.2c0.2-0.2,0.3-0.4,0.3-0.7v-3.8c0-0.4-0.3-0.7-0.6-0.8c-0.5-0.1-0.9-0.2-1.4-0.3c-4.5-1.1-9.1-1.6-13.7-1.7
			c-0.3,0-0.5,0-0.8,0c0,0,0,0,0,0c-3.8,0-7,0.3-9.5,0.7c-0.5,0.1-1,0.2-1.4,0.3c-0.3,0.1-0.6,0.1-0.8,0.2c-0.7,0.2-1.2,0.3-1.7,0.4
			c-1,0.3-1.6,0.4-1.7,0.5C73.4,60.6,73.2,60.9,73.2,61.3z M75.2,64.1c-0.1,0-0.2,0-0.3,0v-2.2c0.4-0.1,0.9-0.3,1.6-0.4c0,0,0,0,0,0
			c0,0,0.2-0.1,0.6-0.1c0.3-0.1,0.6-0.1,1-0.2c0.3-0.1,0.6-0.1,0.9-0.2c2.2-0.4,5.2-0.8,8.6-0.8c0.3,0,0.6,0,0.9,0H89
			c4.4,0,8.7,0.5,13,1.4c0.2,0,0.3,0.1,0.4,0.1c0,0,0,0,0,0c0.1,0,0.1,0,0.2,0c0.4,0.1,0.8,0.2,1.2,0.3v2.2c-0.7-0.1-1.7-0.3-3-0.4
			c-0.5-0.1-1.1-0.1-1.7-0.2c-0.3,0-0.7-0.1-1-0.1c-0.7-0.1-1.4-0.1-2.1-0.2c-0.5,0-1-0.1-1.5-0.1c-0.4,0-0.9,0-1.3-0.1
			C91.9,63,90.5,63,89,63h-0.6c-0.3,0-0.6,0-0.9,0c-4.3,0.1-8.4,0.4-12.3,1C75.2,64.1,75.2,64.1,75.2,64.1z M79,61
			c2.2-0.4,5.2-0.8,8.6-0.8c0.3,0,0.6,0,0.9,0c0,0,0-0.1,0-0.1c-0.3,0-0.6,0-0.9,0C84.1,60.2,81,60.6,79,61z M77.1,61.4
			c0.3-0.1,0.6-0.1,1-0.2C77.7,61.2,77.4,61.3,77.1,61.4z"/>
		<path fill="#020000" d="M75.4,56.8v3.9c0,0.3,0.1,0.5,0.3,0.7c0.2,0.2,0.5,0.2,0.7,0.2c0,0,0,0,0,0c0,0,0.2-0.1,0.6-0.1
			c0.3-0.1,0.6-0.1,1-0.2c0.3-0.1,0.6-0.1,0.9-0.2c2-0.4,5-0.8,8.6-0.9c0.3,0,0.6,0,0.9,0c0.4,0,0.7,0,1.1,0c4.4,0,8.5,0.5,12.3,1.5
			c0.2,0,0.3,0.1,0.4,0.1c0,0,0,0,0,0c0.1,0,0.1,0,0.2,0c0.2,0,0.4-0.1,0.5-0.2c0.2-0.2,0.3-0.4,0.3-0.7v-4c0-0.4-0.2-0.7-0.6-0.8
			c-0.2-0.1-6.1-2.1-13.9-2.1c-4.6,0-9,0.7-13,2.1C75.7,56.1,75.4,56.4,75.4,56.8z M77.2,59.6v-2.2c3.6-1.2,7.6-1.8,11.8-1.8
			c0,0,0,0,0,0c0.3,0,0.5,0,0.8,0c5.8,0.1,10.4,1.4,12,1.8v2.3c-3.7-0.9-7.7-1.4-12-1.4h-0.2c-0.2,0-0.5,0-0.7,0
			c-3.9,0-7.2,0.4-9.5,0.8c-0.5,0.1-1,0.2-1.4,0.3C77.7,59.5,77.4,59.6,77.2,59.6z"/>
		<path fill="#020000" d="M76,75.1l1.7,16.5c0,0.2,0.1,0.3,0.3,0.4c0,0,0.4,0.1,1.1,0.3c1.7,0.4,5.4,1.3,9.5,1.5
			c0.3,0,0.6,0,0.9,0.1c0.4,0,0.9,0,1.3,0c3.3,0,6.1-0.5,8.4-1.4c0.4-0.2,0.8-0.3,1.2-0.5c0.1-0.1,0.2-0.2,0.2-0.3l2.2-16.5
			c0-0.2,0-0.3-0.1-0.4c-0.1-0.1-0.3-0.1-0.4-0.1c0,0-0.3,0.1-0.7,0.2c-1.6,0.4-6,1.4-11.9,1.4h-0.3c-0.3,0-0.6,0-0.9,0
			c-3.8-0.1-7.6-0.6-11.3-1.5c-0.2-0.1-0.5-0.1-0.7-0.2c-0.1,0-0.3,0-0.4,0.1C76,74.9,76,75,76,75.1z M76.9,75.6
			c0.1,0,0.3,0.1,0.4,0.1c3.7,0.9,7.4,1.3,11.2,1.4c0.3,0,0.6,0,0.9,0h0.3c5.7,0,9.9-0.9,11.8-1.4c0.2-0.1,0.3-0.1,0.4-0.1
			l-2.1,15.6c-0.2,0.1-0.3,0.1-0.5,0.2c-2.3,1-5.2,1.5-8.6,1.5c-0.4,0-0.9,0-1.3,0c-0.3,0-0.6,0-0.9,0c-4.2-0.3-8-1.2-9.6-1.6
			c-0.2-0.1-0.3-0.1-0.4-0.1L76.9,75.6z"/>
		<path fill="#020000" d="M88.9,54.7v4.5c0,0.2,0.2,0.4,0.4,0.4c0.2,0,0.4-0.2,0.4-0.4v-4.5c0-0.2-0.2-0.4-0.4-0.4
			C89.1,54.3,88.9,54.5,88.9,54.7z"/>
		<path fill="#020000" d="M87.5,62.9c0,0,0,0.1,0,0.1c0.1,0.4,0.1,0.7,0.3,1c0.1,0.2,0.2,0.2,0.4,0.2c0.1,0,0.1,0,0.2,0
			c0.1,0,0.1-0.1,0.2-0.1c0,0,0,0,0-0.1c0.1-0.1,0.1-0.3,0-0.4c-0.1-0.2-0.2-0.4-0.2-0.7c0,0,0-0.1,0-0.1c-0.1-0.8,0-2,0.1-2.8
			c0,0,0-0.1,0-0.1c0.1-0.3,0.1-0.6,0.1-0.7c0.1-0.2-0.1-0.5-0.3-0.5c-0.2-0.1-0.5,0.1-0.5,0.3c0,0.1-0.1,0.4-0.2,0.9
			c0,0,0,0.1,0,0.1C87.5,60.9,87.4,62,87.5,62.9z"/>
		<path fill="#020000" d="M88.5,64.4v12.8c0.3,0,0.6,0,0.9,0V64.4c0-0.2-0.2-0.4-0.4-0.4c-0.1,0-0.2,0.1-0.3,0.1c0,0,0,0,0,0.1
			C88.5,64.2,88.5,64.3,88.5,64.4z"/>
		<path fill="#020000" d="M89.4,92.9c-0.3,0-0.6,0-0.9,0v11.2c0,0.2,0.2,0.4,0.4,0.4s0.4-0.2,0.4-0.4V92.9z"/>
	</g>
</g>
<rect x="20.3" y="119" fill="none" width="102.8" height="26"/>
<text transform="matrix(1 0 0 1 28.1771 127.5671)" font-family="'HelveticaNeue'" font-size="12">Package Design</text>
</svg>
