<?xml version="1.0" encoding="utf-8"?>
<!-- Generator: Adobe Illustrator 18.1.0, SVG Export Plug-In . SVG Version: 6.00 Build 0)  -->
<!DOCTYPE svg PUBLIC "-//W3C//DTD SVG 1.1//EN" "http://www.w3.org/Graphics/SVG/1.1/DTD/svg11.dtd">
<svg version="1.1" id="Layer_1" xmlns="http://www.w3.org/2000/svg" xmlns:xlink="http://www.w3.org/1999/xlink" x="0px" y="0px"
	 viewBox="0 0 144 144" enable-background="new 0 0 144 144" xml:space="preserve">
<path fill="#FFFFFF" d="M67.6,90.1c0,0.3-0.2,0.6-0.5,0.6H41.9c0,0-0.1,0-0.2,0c-0.2-0.1-0.4-0.3-0.4-0.5c0-0.3,0.3-0.6,0.5-0.6
	h25.2C67.4,89.5,67.6,89.8,67.6,90.1z"/>
<path fill="#FFFFFF" d="M67.6,86.9c0,0.3-0.2,0.6-0.5,0.6H41.9c-0.2,0-0.4-0.1-0.4-0.3c-0.1-0.1-0.1-0.2-0.1-0.3
	c0-0.3,0.3-0.6,0.5-0.6h25.2C67.4,86.3,67.6,86.6,67.6,86.9z"/>
<path fill="#FFFFFF" d="M67.6,83.7c0,0.3-0.2,0.6-0.5,0.6H41.9c-0.3,0-0.5-0.3-0.5-0.6c0,0,0-0.1,0-0.1c0-0.3,0.3-0.4,0.5-0.4h25.2
	C67.4,83.1,67.6,83.4,67.6,83.7z"/>
<path fill="#FFFFFF" d="M67.6,80.5c0,0.3-0.2,0.6-0.5,0.6H41.9c0,0-0.1,0-0.2,0c-0.2-0.1-0.4-0.3-0.4-0.5c0-0.3,0.3-0.6,0.5-0.6
	h25.2C67.4,79.9,67.6,80.2,67.6,80.5z"/>
<path fill="#FFFFFF" d="M67.6,77.4c0,0.3-0.2,0.6-0.5,0.6H41.9c-0.2,0-0.4-0.1-0.4-0.3c-0.1-0.1-0.1-0.2-0.1-0.3
	c0-0.3,0.3-0.6,0.5-0.6h25.2C67.4,76.8,67.6,77,67.6,77.4z"/>
<path fill="#FFFFFF" d="M67.6,74.2c0,0.3-0.2,0.6-0.5,0.6H41.9c-0.3,0-0.5-0.2-0.5-0.6c0,0,0-0.1,0-0.1c0-0.2,0.3-0.4,0.5-0.4h25.2
	C67.4,73.6,67.6,73.8,67.6,74.2z"/>
<path fill="#FFFFFF" d="M67.6,70.8c0,0,0,0.1,0,0.2c0,0.3-0.2,0.6-0.5,0.6H41.9c-0.3,0-0.5-0.2-0.5-0.6c0-0.3,0.3-0.6,0.5-0.6h25.2
	C67.4,70.4,67.6,70.6,67.6,70.8z"/>
<path fill="#FFFFFF" d="M101,64.8c0,0.6-0.5,1.1-1.1,1.1h-58c-0.3,0-0.6-0.1-0.8-0.3c-0.2-0.2-0.3-0.5-0.3-0.8
	c0-0.6,0.5-1.1,1.1-1.1h58C100.5,63.7,101,64.2,101,64.8z"/>
<path fill="#FFFFFF" d="M101,59.9c0,0.6-0.5,1.1-1.1,1.1h-58c-0.6,0-1.1-0.5-1.1-1.1c0,0,0,0,0,0c0-0.6,0.5-1.1,1.1-1.1h58
	C100.5,58.8,101,59.3,101,59.9z"/>
<path fill="#FFFFFF" d="M100.3,89.7c0.1,0.1,0.2,0.2,0.2,0.4c0,0.2-0.1,0.3-0.2,0.4c-0.1,0.1-0.2,0.2-0.4,0.2H74.7
	c-0.2,0-0.3-0.1-0.4-0.2c-0.1-0.1-0.2-0.2-0.2-0.4c0-0.3,0.2-0.6,0.5-0.6h25.2C100,89.5,100.2,89.6,100.3,89.7z"/>
<path fill="#FFFFFF" d="M100.3,86.5c0.1,0.1,0.2,0.2,0.2,0.4c0,0.2-0.1,0.4-0.3,0.5c-0.1,0-0.1,0-0.2,0H74.7c-0.1,0-0.1,0-0.2,0
	c-0.1,0-0.1-0.1-0.2-0.1c-0.1-0.1-0.2-0.2-0.2-0.4c0-0.1,0-0.2,0.1-0.3c0,0,0,0,0-0.1c0.1-0.1,0.2-0.2,0.4-0.2h25.2
	c0.1,0,0.2,0,0.2,0.1C100.2,86.4,100.2,86.4,100.3,86.5z"/>
<path fill="#FFFFFF" d="M100.4,83.5c0,0.1,0.1,0.1,0.1,0.2c0,0.2-0.1,0.3-0.2,0.4c-0.1,0.1-0.2,0.2-0.4,0.2H74.7
	c-0.2,0-0.3-0.1-0.4-0.2c-0.1-0.1-0.2-0.2-0.2-0.4c0-0.3,0.2-0.6,0.5-0.6h25.2c0.1,0,0.3,0.1,0.4,0.2
	C100.3,83.3,100.3,83.3,100.4,83.5C100.4,83.4,100.4,83.4,100.4,83.5z"/>
<path fill="#FFFFFF" d="M100.3,80.1c0.1,0.1,0.2,0.2,0.2,0.4s-0.1,0.3-0.2,0.4c-0.1,0.1-0.2,0.2-0.4,0.2H74.7
	c-0.3,0-0.5-0.3-0.5-0.6c0-0.3,0.2-0.6,0.5-0.6h25.2C100,79.9,100.2,80,100.3,80.1z"/>
<path fill="#FFFFFF" d="M100.3,73.8c0.1,0.1,0.2,0.2,0.2,0.4c0,0.2-0.1,0.3-0.2,0.4c-0.1,0.1-0.2,0.2-0.4,0.2H74.7
	c-0.3,0-0.5-0.3-0.5-0.6c0-0.1,0-0.2,0.1-0.3c0,0,0,0,0-0.1l0,0c0,0,0.1-0.1,0.1-0.1c0.1,0,0.1,0,0.2,0h25.2
	C100.1,73.6,100.2,73.7,100.3,73.8z"/>
<path fill="#FFFFFF" d="M100.4,77.1c0,0.1,0.1,0.2,0.1,0.2c0,0.1-0.1,0.3-0.2,0.4c-0.1,0.1-0.2,0.2-0.4,0.2H74.7
	c-0.2,0-0.3-0.1-0.4-0.2c-0.1-0.1-0.2-0.3-0.2-0.4c0-0.3,0.2-0.6,0.5-0.6h25.2c0.1,0,0.3,0.1,0.4,0.2
	C100.3,77,100.4,77.1,100.4,77.1z"/>
<path fill="#FFFFFF" d="M100.4,70.8c0,0.1,0.1,0.1,0.1,0.2c0,0.2-0.1,0.3-0.2,0.4c-0.1,0.1-0.2,0.2-0.4,0.2H74.7
	c-0.3,0-0.5-0.2-0.5-0.6c0-0.1,0-0.1,0-0.2c0-0.1,0-0.1,0.1-0.2c0.1-0.1,0.2-0.2,0.4-0.2h25.2c0.1,0,0.2,0,0.2,0.1
	C100.2,70.5,100.3,70.6,100.4,70.8z"/>
<path fill="#FFFFFF" d="M101,19.7v33.7c0,0.6-0.5,1.1-1.1,1.1h-58c-0.2,0-0.3,0-0.5-0.1c-0.3-0.2-0.6-0.6-0.6-1V19.7
	c0-0.6,0.5-1.1,1.1-1.1h58C100.5,18.6,101,19.1,101,19.7z"/>
<path fill="#FFFFFF" d="M108.6,9.8H33c-0.6,0-1.1,0.5-1.1,1.1v96c0,0.6,0.5,1.1,1.1,1.1h61.7c0.1,0,0.1,0,0.2,0
	c0.2,0,0.4-0.1,0.6-0.3l13.8-12c0.2-0.2,0.3-0.4,0.3-0.6c0-0.1,0-0.2,0-0.3v-84C109.7,10.3,109.2,9.8,108.6,9.8z M94.7,93.8
	c-0.6,0-1.1,0.5-1.1,1.1v10.9H34.1V12h73.5v81.8H94.7z"/>
<g>
	<g>
		<path fill="#FFFFFF" d="M101.5,89.7c-0.1-0.1-0.2-0.2-0.4-0.2H77.7c-0.3,0-0.5,0.3-0.5,0.6c0,0.2,0.1,0.3,0.1,0.4
			c0.1,0.1,0.2,0.2,0.4,0.2h23.4c0.1,0,0.3-0.1,0.3-0.2c0.1-0.1,0.2-0.2,0.2-0.4C101.6,89.9,101.6,89.8,101.5,89.7z M101.5,86.5
			c0,0-0.1-0.1-0.2-0.1c-0.1,0-0.1,0-0.2,0H77.8c-0.1,0-0.3,0.1-0.4,0.2c0,0,0,0,0,0.1c-0.1,0.1-0.1,0.2-0.1,0.3
			c0,0.1,0.1,0.3,0.1,0.4c0,0,0.1,0.1,0.2,0.1c0.1,0,0.1,0,0.2,0h23.4c0.1,0,0.1,0,0.2,0c0.2-0.1,0.3-0.3,0.3-0.5
			C101.6,86.7,101.6,86.6,101.5,86.5z M101.6,83.5C101.6,83.4,101.6,83.4,101.6,83.5c-0.1-0.1-0.1-0.2-0.1-0.2
			c-0.1-0.1-0.2-0.2-0.4-0.2H77.7c-0.3,0-0.5,0.2-0.5,0.6c0,0.2,0.1,0.3,0.1,0.4c0.1,0.1,0.2,0.2,0.4,0.2h23.4
			c0.1,0,0.3-0.1,0.3-0.2c0.1-0.1,0.2-0.2,0.2-0.4C101.6,83.6,101.6,83.5,101.6,83.5z M101.5,80.1c-0.1-0.1-0.2-0.2-0.4-0.2H77.7
			c-0.3,0-0.5,0.3-0.5,0.6c0,0.3,0.2,0.6,0.5,0.6h23.4c0.1,0,0.3-0.1,0.4-0.2c0.1-0.1,0.2-0.2,0.2-0.4S101.6,80.2,101.5,80.1z
			 M101.6,77.1c0-0.1-0.1-0.1-0.1-0.2c-0.1-0.1-0.2-0.2-0.4-0.2H77.7c-0.3,0-0.5,0.2-0.5,0.6c0,0.1,0.1,0.3,0.1,0.4
			c0.1,0.1,0.2,0.2,0.4,0.2h23.4c0.1,0,0.3-0.1,0.3-0.2c0.1-0.1,0.2-0.2,0.2-0.4C101.6,77.3,101.6,77.2,101.6,77.1z M101.5,73.8
			c-0.1-0.1-0.2-0.2-0.4-0.2H77.7c-0.1,0-0.1,0-0.2,0c0,0-0.1,0-0.1,0.1l0,0c0,0,0,0,0,0.1c-0.1,0.1-0.1,0.2-0.1,0.3
			c0,0.3,0.2,0.6,0.5,0.6h23.4c0.1,0,0.3-0.1,0.4-0.2c0.1-0.1,0.2-0.2,0.2-0.4C101.6,74,101.6,73.9,101.5,73.8z M101.6,70.8
			c0-0.1-0.1-0.2-0.3-0.3c-0.1,0-0.1,0-0.2,0H77.8c-0.1,0-0.3,0.1-0.4,0.2c-0.1,0-0.1,0.1-0.1,0.2c0,0.1,0,0.1,0,0.2
			c0,0.3,0.2,0.6,0.5,0.6h23.4c0.1,0,0.3-0.1,0.4-0.2c0.1-0.1,0.2-0.2,0.2-0.4C101.6,70.9,101.6,70.8,101.6,70.8z M101.6,70.8
			c0-0.1-0.1-0.2-0.3-0.3c-0.1,0-0.1,0-0.2,0H77.8c-0.1,0-0.3,0.1-0.4,0.2c-0.1,0-0.1,0.1-0.1,0.2c0,0.1,0,0.1,0,0.2
			c0,0.3,0.2,0.6,0.5,0.6h23.4c0.1,0,0.3-0.1,0.4-0.2c0.1-0.1,0.2-0.2,0.2-0.4C101.6,70.9,101.6,70.8,101.6,70.8z M101.5,73.8
			c-0.1-0.1-0.2-0.2-0.4-0.2H77.7c-0.1,0-0.1,0-0.2,0c0,0-0.1,0-0.1,0.1l0,0c0,0,0,0,0,0.1c-0.1,0.1-0.1,0.2-0.1,0.3
			c0,0.3,0.2,0.6,0.5,0.6h23.4c0.1,0,0.3-0.1,0.4-0.2c0.1-0.1,0.2-0.2,0.2-0.4C101.6,74,101.6,73.9,101.5,73.8z M101.6,77.1
			c0-0.1-0.1-0.1-0.1-0.2c-0.1-0.1-0.2-0.2-0.4-0.2H77.7c-0.3,0-0.5,0.2-0.5,0.6c0,0.1,0.1,0.3,0.1,0.4c0.1,0.1,0.2,0.2,0.4,0.2
			h23.4c0.1,0,0.3-0.1,0.3-0.2c0.1-0.1,0.2-0.2,0.2-0.4C101.6,77.3,101.6,77.2,101.6,77.1z M101.5,80.1c-0.1-0.1-0.2-0.2-0.4-0.2
			H77.7c-0.3,0-0.5,0.3-0.5,0.6c0,0.3,0.2,0.6,0.5,0.6h23.4c0.1,0,0.3-0.1,0.4-0.2c0.1-0.1,0.2-0.2,0.2-0.4S101.6,80.2,101.5,80.1z
			 M101.6,83.5C101.6,83.4,101.6,83.4,101.6,83.5c-0.1-0.1-0.1-0.2-0.1-0.2c-0.1-0.1-0.2-0.2-0.4-0.2H77.7c-0.3,0-0.5,0.2-0.5,0.6
			c0,0.2,0.1,0.3,0.1,0.4c0.1,0.1,0.2,0.2,0.4,0.2h23.4c0.1,0,0.3-0.1,0.3-0.2c0.1-0.1,0.2-0.2,0.2-0.4
			C101.6,83.6,101.6,83.5,101.6,83.5z M101.5,86.5c0,0-0.1-0.1-0.2-0.1c-0.1,0-0.1,0-0.2,0H77.8c-0.1,0-0.3,0.1-0.4,0.2
			c0,0,0,0,0,0.1c-0.1,0.1-0.1,0.2-0.1,0.3c0,0.1,0.1,0.3,0.1,0.4c0,0,0.1,0.1,0.2,0.1c0.1,0,0.1,0,0.2,0h23.4c0.1,0,0.1,0,0.2,0
			c0.2-0.1,0.3-0.3,0.3-0.5C101.6,86.7,101.6,86.6,101.5,86.5z M101.5,89.7c-0.1-0.1-0.2-0.2-0.4-0.2H77.7c-0.3,0-0.5,0.3-0.5,0.6
			c0,0.2,0.1,0.3,0.1,0.4c0.1,0.1,0.2,0.2,0.4,0.2h23.4c0.1,0,0.3-0.1,0.3-0.2c0.1-0.1,0.2-0.2,0.2-0.4
			C101.6,89.9,101.6,89.8,101.5,89.7z M101.5,89.7c-0.1-0.1-0.2-0.2-0.4-0.2H77.7c-0.3,0-0.5,0.3-0.5,0.6c0,0.2,0.1,0.3,0.1,0.4
			c0.1,0.1,0.2,0.2,0.4,0.2h23.4c0.1,0,0.3-0.1,0.3-0.2c0.1-0.1,0.2-0.2,0.2-0.4C101.6,89.9,101.6,89.8,101.5,89.7z M101.5,86.5
			c0,0-0.1-0.1-0.2-0.1c-0.1,0-0.1,0-0.2,0H77.8c-0.1,0-0.3,0.1-0.4,0.2c0,0,0,0,0,0.1c-0.1,0.1-0.1,0.2-0.1,0.3
			c0,0.1,0.1,0.3,0.1,0.4c0,0,0.1,0.1,0.2,0.1c0.1,0,0.1,0,0.2,0h23.4c0.1,0,0.1,0,0.2,0c0.2-0.1,0.3-0.3,0.3-0.5
			C101.6,86.7,101.6,86.6,101.5,86.5z M101.6,83.5C101.6,83.4,101.6,83.4,101.6,83.5c-0.1-0.1-0.1-0.2-0.1-0.2
			c-0.1-0.1-0.2-0.2-0.4-0.2H77.7c-0.3,0-0.5,0.2-0.5,0.6c0,0.2,0.1,0.3,0.1,0.4c0.1,0.1,0.2,0.2,0.4,0.2h23.4
			c0.1,0,0.3-0.1,0.3-0.2c0.1-0.1,0.2-0.2,0.2-0.4C101.6,83.6,101.6,83.5,101.6,83.5z M101.5,80.1c-0.1-0.1-0.2-0.2-0.4-0.2H77.7
			c-0.3,0-0.5,0.3-0.5,0.6c0,0.3,0.2,0.6,0.5,0.6h23.4c0.1,0,0.3-0.1,0.4-0.2c0.1-0.1,0.2-0.2,0.2-0.4S101.6,80.2,101.5,80.1z
			 M101.6,77.1c0-0.1-0.1-0.1-0.1-0.2c-0.1-0.1-0.2-0.2-0.4-0.2H77.7c-0.3,0-0.5,0.2-0.5,0.6c0,0.1,0.1,0.3,0.1,0.4
			c0.1,0.1,0.2,0.2,0.4,0.2h23.4c0.1,0,0.3-0.1,0.3-0.2c0.1-0.1,0.2-0.2,0.2-0.4C101.6,77.3,101.6,77.2,101.6,77.1z M101.5,73.8
			c-0.1-0.1-0.2-0.2-0.4-0.2H77.7c-0.1,0-0.1,0-0.2,0c0,0-0.1,0-0.1,0.1l0,0c0,0,0,0,0,0.1c-0.1,0.1-0.1,0.2-0.1,0.3
			c0,0.3,0.2,0.6,0.5,0.6h23.4c0.1,0,0.3-0.1,0.4-0.2c0.1-0.1,0.2-0.2,0.2-0.4C101.6,74,101.6,73.9,101.5,73.8z M101.6,70.8
			c0-0.1-0.1-0.2-0.3-0.3c-0.1,0-0.1,0-0.2,0H77.8c-0.1,0-0.3,0.1-0.4,0.2c-0.1,0-0.1,0.1-0.1,0.2c0,0.1,0,0.1,0,0.2
			c0,0.3,0.2,0.6,0.5,0.6h23.4c0.1,0,0.3-0.1,0.4-0.2c0.1-0.1,0.2-0.2,0.2-0.4C101.6,70.9,101.6,70.8,101.6,70.8z M99.8,96.1l-2.5,2
			v2.3l5.2-4.3H99.8z M97.3,96.1v0.7l0.8-0.7H97.3z M101.6,70.8c0-0.1-0.1-0.2-0.3-0.3c-0.1,0-0.1,0-0.2,0H77.8
			c-0.1,0-0.3,0.1-0.4,0.2c-0.1,0-0.1,0.1-0.1,0.2c0,0.1,0,0.1,0,0.2c0,0.3,0.2,0.6,0.5,0.6h23.4c0.1,0,0.3-0.1,0.4-0.2
			c0.1-0.1,0.2-0.2,0.2-0.4C101.6,70.9,101.6,70.8,101.6,70.8z M101.5,73.8c-0.1-0.1-0.2-0.2-0.4-0.2H77.7c-0.1,0-0.1,0-0.2,0
			c0,0-0.1,0-0.1,0.1l0,0c0,0,0,0,0,0.1c-0.1,0.1-0.1,0.2-0.1,0.3c0,0.3,0.2,0.6,0.5,0.6h23.4c0.1,0,0.3-0.1,0.4-0.2
			c0.1-0.1,0.2-0.2,0.2-0.4C101.6,74,101.6,73.9,101.5,73.8z M101.6,77.1c0-0.1-0.1-0.1-0.1-0.2c-0.1-0.1-0.2-0.2-0.4-0.2H77.7
			c-0.3,0-0.5,0.2-0.5,0.6c0,0.1,0.1,0.3,0.1,0.4c0.1,0.1,0.2,0.2,0.4,0.2h23.4c0.1,0,0.3-0.1,0.3-0.2c0.1-0.1,0.2-0.2,0.2-0.4
			C101.6,77.3,101.6,77.2,101.6,77.1z M101.5,80.1c-0.1-0.1-0.2-0.2-0.4-0.2H77.7c-0.3,0-0.5,0.3-0.5,0.6c0,0.3,0.2,0.6,0.5,0.6
			h23.4c0.1,0,0.3-0.1,0.4-0.2c0.1-0.1,0.2-0.2,0.2-0.4S101.6,80.2,101.5,80.1z M101.6,83.5C101.6,83.4,101.6,83.4,101.6,83.5
			c-0.1-0.1-0.1-0.2-0.1-0.2c-0.1-0.1-0.2-0.2-0.4-0.2H77.7c-0.3,0-0.5,0.2-0.5,0.6c0,0.2,0.1,0.3,0.1,0.4c0.1,0.1,0.2,0.2,0.4,0.2
			h23.4c0.1,0,0.3-0.1,0.3-0.2c0.1-0.1,0.2-0.2,0.2-0.4C101.6,83.6,101.6,83.5,101.6,83.5z M101.5,86.5c0,0-0.1-0.1-0.2-0.1
			c-0.1,0-0.1,0-0.2,0H77.8c-0.1,0-0.3,0.1-0.4,0.2c0,0,0,0,0,0.1c-0.1,0.1-0.1,0.2-0.1,0.3c0,0.1,0.1,0.3,0.1,0.4
			c0,0,0.1,0.1,0.2,0.1c0.1,0,0.1,0,0.2,0h23.4c0.1,0,0.1,0,0.2,0c0.2-0.1,0.3-0.3,0.3-0.5C101.6,86.7,101.6,86.6,101.5,86.5z
			 M101.5,89.7c-0.1-0.1-0.2-0.2-0.4-0.2H77.7c-0.3,0-0.5,0.3-0.5,0.6c0,0.2,0.1,0.3,0.1,0.4c0.1,0.1,0.2,0.2,0.4,0.2h23.4
			c0.1,0,0.3-0.1,0.3-0.2c0.1-0.1,0.2-0.2,0.2-0.4C101.6,89.9,101.6,89.8,101.5,89.7z M101.5,89.7c-0.1-0.1-0.2-0.2-0.4-0.2H77.7
			c-0.3,0-0.5,0.3-0.5,0.6c0,0.2,0.1,0.3,0.1,0.4c0.1,0.1,0.2,0.2,0.4,0.2h23.4c0.1,0,0.3-0.1,0.3-0.2c0.1-0.1,0.2-0.2,0.2-0.4
			C101.6,89.9,101.6,89.8,101.5,89.7z M101.5,86.5c0,0-0.1-0.1-0.2-0.1c-0.1,0-0.1,0-0.2,0H77.8c-0.1,0-0.3,0.1-0.4,0.2
			c0,0,0,0,0,0.1c-0.1,0.1-0.1,0.2-0.1,0.3c0,0.1,0.1,0.3,0.1,0.4c0,0,0.1,0.1,0.2,0.1c0.1,0,0.1,0,0.2,0h23.4c0.1,0,0.1,0,0.2,0
			c0.2-0.1,0.3-0.3,0.3-0.5C101.6,86.7,101.6,86.6,101.5,86.5z M101.6,83.5C101.6,83.4,101.6,83.4,101.6,83.5
			c-0.1-0.1-0.1-0.2-0.1-0.2c-0.1-0.1-0.2-0.2-0.4-0.2H77.7c-0.3,0-0.5,0.2-0.5,0.6c0,0.2,0.1,0.3,0.1,0.4c0.1,0.1,0.2,0.2,0.4,0.2
			h23.4c0.1,0,0.3-0.1,0.3-0.2c0.1-0.1,0.2-0.2,0.2-0.4C101.6,83.6,101.6,83.5,101.6,83.5z M101.5,80.1c-0.1-0.1-0.2-0.2-0.4-0.2
			H77.7c-0.3,0-0.5,0.3-0.5,0.6c0,0.3,0.2,0.6,0.5,0.6h23.4c0.1,0,0.3-0.1,0.4-0.2c0.1-0.1,0.2-0.2,0.2-0.4S101.6,80.2,101.5,80.1z
			 M101.6,77.1c0-0.1-0.1-0.1-0.1-0.2c-0.1-0.1-0.2-0.2-0.4-0.2H77.7c-0.3,0-0.5,0.2-0.5,0.6c0,0.1,0.1,0.3,0.1,0.4
			c0.1,0.1,0.2,0.2,0.4,0.2h23.4c0.1,0,0.3-0.1,0.3-0.2c0.1-0.1,0.2-0.2,0.2-0.4C101.6,77.3,101.6,77.2,101.6,77.1z M101.5,73.8
			c-0.1-0.1-0.2-0.2-0.4-0.2H77.7c-0.1,0-0.1,0-0.2,0c0,0-0.1,0-0.1,0.1l0,0c0,0,0,0,0,0.1c-0.1,0.1-0.1,0.2-0.1,0.3
			c0,0.3,0.2,0.6,0.5,0.6h23.4c0.1,0,0.3-0.1,0.4-0.2c0.1-0.1,0.2-0.2,0.2-0.4C101.6,74,101.6,73.9,101.5,73.8z M101.6,70.8
			c0-0.1-0.1-0.2-0.3-0.3c-0.1,0-0.1,0-0.2,0H77.8c-0.1,0-0.3,0.1-0.4,0.2c-0.1,0-0.1,0.1-0.1,0.2c0,0.1,0,0.1,0,0.2
			c0,0.3,0.2,0.6,0.5,0.6h23.4c0.1,0,0.3-0.1,0.4-0.2c0.1-0.1,0.2-0.2,0.2-0.4C101.6,70.9,101.6,70.8,101.6,70.8z M101.6,70.8
			c0-0.1-0.1-0.2-0.3-0.3c-0.1,0-0.1,0-0.2,0H77.8c-0.1,0-0.3,0.1-0.4,0.2c-0.1,0-0.1,0.1-0.1,0.2c0,0.1,0,0.1,0,0.2
			c0,0.3,0.2,0.6,0.5,0.6h23.4c0.1,0,0.3-0.1,0.4-0.2c0.1-0.1,0.2-0.2,0.2-0.4C101.6,70.9,101.6,70.8,101.6,70.8z M101.5,73.8
			c-0.1-0.1-0.2-0.2-0.4-0.2H77.7c-0.1,0-0.1,0-0.2,0c0,0-0.1,0-0.1,0.1l0,0c0,0,0,0,0,0.1c-0.1,0.1-0.1,0.2-0.1,0.3
			c0,0.3,0.2,0.6,0.5,0.6h23.4c0.1,0,0.3-0.1,0.4-0.2c0.1-0.1,0.2-0.2,0.2-0.4C101.6,74,101.6,73.9,101.5,73.8z M101.6,77.1
			c0-0.1-0.1-0.1-0.1-0.2c-0.1-0.1-0.2-0.2-0.4-0.2H77.7c-0.3,0-0.5,0.2-0.5,0.6c0,0.1,0.1,0.3,0.1,0.4c0.1,0.1,0.2,0.2,0.4,0.2
			h23.4c0.1,0,0.3-0.1,0.3-0.2c0.1-0.1,0.2-0.2,0.2-0.4C101.6,77.3,101.6,77.2,101.6,77.1z M101.5,80.1c-0.1-0.1-0.2-0.2-0.4-0.2
			H77.7c-0.3,0-0.5,0.3-0.5,0.6c0,0.3,0.2,0.6,0.5,0.6h23.4c0.1,0,0.3-0.1,0.4-0.2c0.1-0.1,0.2-0.2,0.2-0.4S101.6,80.2,101.5,80.1z
			 M101.6,83.5C101.6,83.4,101.6,83.4,101.6,83.5c-0.1-0.1-0.1-0.2-0.1-0.2c-0.1-0.1-0.2-0.2-0.4-0.2H77.7c-0.3,0-0.5,0.2-0.5,0.6
			c0,0.2,0.1,0.3,0.1,0.4c0.1,0.1,0.2,0.2,0.4,0.2h23.4c0.1,0,0.3-0.1,0.3-0.2c0.1-0.1,0.2-0.2,0.2-0.4
			C101.6,83.6,101.6,83.5,101.6,83.5z M101.5,86.5c0,0-0.1-0.1-0.2-0.1c-0.1,0-0.1,0-0.2,0H77.8c-0.1,0-0.3,0.1-0.4,0.2
			c0,0,0,0,0,0.1c-0.1,0.1-0.1,0.2-0.1,0.3c0,0.1,0.1,0.3,0.1,0.4c0,0,0.1,0.1,0.2,0.1c0.1,0,0.1,0,0.2,0h23.4c0.1,0,0.1,0,0.2,0
			c0.2-0.1,0.3-0.3,0.3-0.5C101.6,86.7,101.6,86.6,101.5,86.5z M101.5,89.7c-0.1-0.1-0.2-0.2-0.4-0.2H77.7c-0.3,0-0.5,0.3-0.5,0.6
			c0,0.2,0.1,0.3,0.1,0.4c0.1,0.1,0.2,0.2,0.4,0.2h23.4c0.1,0,0.3-0.1,0.3-0.2c0.1-0.1,0.2-0.2,0.2-0.4
			C101.6,89.9,101.6,89.8,101.5,89.7z M97.3,96.1v0.7l0.8-0.7H97.3z M101.5,89.7c-0.1-0.1-0.2-0.2-0.4-0.2H77.7
			c-0.3,0-0.5,0.3-0.5,0.6c0,0.2,0.1,0.3,0.1,0.4c0.1,0.1,0.2,0.2,0.4,0.2h23.4c0.1,0,0.3-0.1,0.3-0.2c0.1-0.1,0.2-0.2,0.2-0.4
			C101.6,89.9,101.6,89.8,101.5,89.7z M101.5,86.5c0,0-0.1-0.1-0.2-0.1c-0.1,0-0.1,0-0.2,0H77.8c-0.1,0-0.3,0.1-0.4,0.2
			c0,0,0,0,0,0.1c-0.1,0.1-0.1,0.2-0.1,0.3c0,0.1,0.1,0.3,0.1,0.4c0,0,0.1,0.1,0.2,0.1c0.1,0,0.1,0,0.2,0h23.4c0.1,0,0.1,0,0.2,0
			c0.2-0.1,0.3-0.3,0.3-0.5C101.6,86.7,101.6,86.6,101.5,86.5z M101.6,83.5C101.6,83.4,101.6,83.4,101.6,83.5
			c-0.1-0.1-0.1-0.2-0.1-0.2c-0.1-0.1-0.2-0.2-0.4-0.2H77.7c-0.3,0-0.5,0.2-0.5,0.6c0,0.2,0.1,0.3,0.1,0.4c0.1,0.1,0.2,0.2,0.4,0.2
			h23.4c0.1,0,0.3-0.1,0.3-0.2c0.1-0.1,0.2-0.2,0.2-0.4C101.6,83.6,101.6,83.5,101.6,83.5z M101.5,80.1c-0.1-0.1-0.2-0.2-0.4-0.2
			H77.7c-0.3,0-0.5,0.3-0.5,0.6c0,0.3,0.2,0.6,0.5,0.6h23.4c0.1,0,0.3-0.1,0.4-0.2c0.1-0.1,0.2-0.2,0.2-0.4S101.6,80.2,101.5,80.1z
			 M101.6,77.1c0-0.1-0.1-0.1-0.1-0.2c-0.1-0.1-0.2-0.2-0.4-0.2H77.7c-0.3,0-0.5,0.2-0.5,0.6c0,0.1,0.1,0.3,0.1,0.4
			c0.1,0.1,0.2,0.2,0.4,0.2h23.4c0.1,0,0.3-0.1,0.3-0.2c0.1-0.1,0.2-0.2,0.2-0.4C101.6,77.3,101.6,77.2,101.6,77.1z M101.5,73.8
			c-0.1-0.1-0.2-0.2-0.4-0.2H77.7c-0.1,0-0.1,0-0.2,0c0,0-0.1,0-0.1,0.1l0,0c0,0,0,0,0,0.1c-0.1,0.1-0.1,0.2-0.1,0.3
			c0,0.3,0.2,0.6,0.5,0.6h23.4c0.1,0,0.3-0.1,0.4-0.2c0.1-0.1,0.2-0.2,0.2-0.4C101.6,74,101.6,73.9,101.5,73.8z M101.6,70.8
			c0-0.1-0.1-0.2-0.3-0.3c-0.1,0-0.1,0-0.2,0H77.8c-0.1,0-0.3,0.1-0.4,0.2c-0.1,0-0.1,0.1-0.1,0.2c0,0.1,0,0.1,0,0.2
			c0,0.3,0.2,0.6,0.5,0.6h23.4c0.1,0,0.3-0.1,0.4-0.2c0.1-0.1,0.2-0.2,0.2-0.4C101.6,70.9,101.6,70.8,101.6,70.8z M47.3,73.6
			c-0.2,0-0.4,0.2-0.5,0.4L47.3,73.6L47.3,73.6z M47.3,83.1c-0.2,0-0.4,0.2-0.5,0.4L47.3,83.1L47.3,83.1z M47.3,73.6
			c-0.2,0-0.4,0.2-0.5,0.4L47.3,73.6L47.3,73.6z M47.3,83.1c-0.2,0-0.4,0.2-0.5,0.4L47.3,83.1L47.3,83.1z M101.6,70.8
			c0-0.1-0.1-0.2-0.3-0.3c-0.1,0-0.1,0-0.2,0H77.8c-0.1,0-0.3,0.1-0.4,0.2c-0.1,0-0.1,0.1-0.1,0.2c0,0.1,0,0.1,0,0.2
			c0,0.3,0.2,0.6,0.5,0.6h23.4c0.1,0,0.3-0.1,0.4-0.2c0.1-0.1,0.2-0.2,0.2-0.4C101.6,70.9,101.6,70.8,101.6,70.8z M101.5,73.8
			c-0.1-0.1-0.2-0.2-0.4-0.2H77.7c-0.1,0-0.1,0-0.2,0c0,0-0.1,0-0.1,0.1l0,0c0,0,0,0,0,0.1c-0.1,0.1-0.1,0.2-0.1,0.3
			c0,0.3,0.2,0.6,0.5,0.6h23.4c0.1,0,0.3-0.1,0.4-0.2c0.1-0.1,0.2-0.2,0.2-0.4C101.6,74,101.6,73.9,101.5,73.8z M101.6,77.1
			c0-0.1-0.1-0.1-0.1-0.2c-0.1-0.1-0.2-0.2-0.4-0.2H77.7c-0.3,0-0.5,0.2-0.5,0.6c0,0.1,0.1,0.3,0.1,0.4c0.1,0.1,0.2,0.2,0.4,0.2
			h23.4c0.1,0,0.3-0.1,0.3-0.2c0.1-0.1,0.2-0.2,0.2-0.4C101.6,77.3,101.6,77.2,101.6,77.1z M101.5,80.1c-0.1-0.1-0.2-0.2-0.4-0.2
			H77.7c-0.3,0-0.5,0.3-0.5,0.6c0,0.3,0.2,0.6,0.5,0.6h23.4c0.1,0,0.3-0.1,0.4-0.2c0.1-0.1,0.2-0.2,0.2-0.4S101.6,80.2,101.5,80.1z
			 M101.6,83.5C101.6,83.4,101.6,83.4,101.6,83.5c-0.1-0.1-0.1-0.2-0.1-0.2c-0.1-0.1-0.2-0.2-0.4-0.2H77.7c-0.3,0-0.5,0.2-0.5,0.6
			c0,0.2,0.1,0.3,0.1,0.4c0.1,0.1,0.2,0.2,0.4,0.2h23.4c0.1,0,0.3-0.1,0.3-0.2c0.1-0.1,0.2-0.2,0.2-0.4
			C101.6,83.6,101.6,83.5,101.6,83.5z M101.5,86.5c0,0-0.1-0.1-0.2-0.1c-0.1,0-0.1,0-0.2,0H77.8c-0.1,0-0.3,0.1-0.4,0.2
			c0,0,0,0,0,0.1c-0.1,0.1-0.1,0.2-0.1,0.3c0,0.1,0.1,0.3,0.1,0.4c0,0,0.1,0.1,0.2,0.1c0.1,0,0.1,0,0.2,0h23.4c0.1,0,0.1,0,0.2,0
			c0.2-0.1,0.3-0.3,0.3-0.5C101.6,86.7,101.6,86.6,101.5,86.5z M101.5,89.7c-0.1-0.1-0.2-0.2-0.4-0.2H77.7c-0.3,0-0.5,0.3-0.5,0.6
			c0,0.2,0.1,0.3,0.1,0.4c0.1,0.1,0.2,0.2,0.4,0.2h23.4c0.1,0,0.3-0.1,0.3-0.2c0.1-0.1,0.2-0.2,0.2-0.4
			C101.6,89.9,101.6,89.8,101.5,89.7z M97.3,96.1v0.7l0.8-0.7H97.3z M101.5,89.7c-0.1-0.1-0.2-0.2-0.4-0.2H77.7
			c-0.3,0-0.5,0.3-0.5,0.6c0,0.2,0.1,0.3,0.1,0.4c0.1,0.1,0.2,0.2,0.4,0.2h23.4c0.1,0,0.3-0.1,0.3-0.2c0.1-0.1,0.2-0.2,0.2-0.4
			C101.6,89.9,101.6,89.8,101.5,89.7z M101.5,86.5c0,0-0.1-0.1-0.2-0.1c-0.1,0-0.1,0-0.2,0H77.8c-0.1,0-0.3,0.1-0.4,0.2
			c0,0,0,0,0,0.1c-0.1,0.1-0.1,0.2-0.1,0.3c0,0.1,0.1,0.3,0.1,0.4c0,0,0.1,0.1,0.2,0.1c0.1,0,0.1,0,0.2,0h23.4c0.1,0,0.1,0,0.2,0
			c0.2-0.1,0.3-0.3,0.3-0.5C101.6,86.7,101.6,86.6,101.5,86.5z M101.6,83.5C101.6,83.4,101.6,83.4,101.6,83.5
			c-0.1-0.1-0.1-0.2-0.1-0.2c-0.1-0.1-0.2-0.2-0.4-0.2H77.7c-0.3,0-0.5,0.2-0.5,0.6c0,0.2,0.1,0.3,0.1,0.4c0.1,0.1,0.2,0.2,0.4,0.2
			h23.4c0.1,0,0.3-0.1,0.3-0.2c0.1-0.1,0.2-0.2,0.2-0.4C101.6,83.6,101.6,83.5,101.6,83.5z M101.5,80.1c-0.1-0.1-0.2-0.2-0.4-0.2
			H77.7c-0.3,0-0.5,0.3-0.5,0.6c0,0.3,0.2,0.6,0.5,0.6h23.4c0.1,0,0.3-0.1,0.4-0.2c0.1-0.1,0.2-0.2,0.2-0.4S101.6,80.2,101.5,80.1z
			 M101.6,77.1c0-0.1-0.1-0.1-0.1-0.2c-0.1-0.1-0.2-0.2-0.4-0.2H77.7c-0.3,0-0.5,0.2-0.5,0.6c0,0.1,0.1,0.3,0.1,0.4
			c0.1,0.1,0.2,0.2,0.4,0.2h23.4c0.1,0,0.3-0.1,0.3-0.2c0.1-0.1,0.2-0.2,0.2-0.4C101.6,77.3,101.6,77.2,101.6,77.1z M101.5,73.8
			c-0.1-0.1-0.2-0.2-0.4-0.2H77.7c-0.1,0-0.1,0-0.2,0c0,0-0.1,0-0.1,0.1l0,0c0,0,0,0,0,0.1c-0.1,0.1-0.1,0.2-0.1,0.3
			c0,0.3,0.2,0.6,0.5,0.6h23.4c0.1,0,0.3-0.1,0.4-0.2c0.1-0.1,0.2-0.2,0.2-0.4C101.6,74,101.6,73.9,101.5,73.8z M101.6,70.8
			c0-0.1-0.1-0.2-0.3-0.3c-0.1,0-0.1,0-0.2,0H77.8c-0.1,0-0.3,0.1-0.4,0.2c-0.1,0-0.1,0.1-0.1,0.2c0,0.1,0,0.1,0,0.2
			c0,0.3,0.2,0.6,0.5,0.6h23.4c0.1,0,0.3-0.1,0.4-0.2c0.1-0.1,0.2-0.2,0.2-0.4C101.6,70.9,101.6,70.8,101.6,70.8z M47.3,73.6
			c-0.2,0-0.4,0.2-0.5,0.4L47.3,73.6L47.3,73.6z M47.3,83.1c-0.2,0-0.4,0.2-0.5,0.4L47.3,83.1L47.3,83.1z M64.5,52.3h2.7l32.9-27.1
			v-2.2L64.5,52.3z M73.3,52.3H76l24.1-19.8v-2.3L73.3,52.3z M82.2,52.3h2.7l15.2-12.5v-2.2L82.2,52.3z M91,52.3h2.7l6.4-5.2v-2.3
			L91,52.3z M95.5,52.3h4.7v-3.8L95.5,52.3z M86.6,52.3h2.7l10.8-8.9v-2.3L86.6,52.3z M77.8,52.3h2.7l19.7-16.2v-2.2L77.8,52.3z
			 M68.9,52.3h2.7l28.5-23.5v-2.2L68.9,52.3z M98.3,20.8L60,52.3h2.7l37.4-30.7v-0.7H98.3z M47.3,73.6c-0.2,0-0.4,0.2-0.5,0.4
			L47.3,73.6L47.3,73.6z M47.3,83.1c-0.2,0-0.4,0.2-0.5,0.4L47.3,83.1L47.3,83.1z M101.6,70.8c0-0.1-0.1-0.2-0.3-0.3
			c-0.1,0-0.1,0-0.2,0H77.8c-0.1,0-0.3,0.1-0.4,0.2c-0.1,0-0.1,0.1-0.1,0.2c0,0.1,0,0.1,0,0.2c0,0.3,0.2,0.6,0.5,0.6h23.4
			c0.1,0,0.3-0.1,0.4-0.2c0.1-0.1,0.2-0.2,0.2-0.4C101.6,70.9,101.6,70.8,101.6,70.8z M101.5,73.8c-0.1-0.1-0.2-0.2-0.4-0.2H77.7
			c-0.1,0-0.1,0-0.2,0c0,0-0.1,0-0.1,0.1l0,0c0,0,0,0,0,0.1c-0.1,0.1-0.1,0.2-0.1,0.3c0,0.3,0.2,0.6,0.5,0.6h23.4
			c0.1,0,0.3-0.1,0.4-0.2c0.1-0.1,0.2-0.2,0.2-0.4C101.6,74,101.6,73.9,101.5,73.8z M101.6,77.1c0-0.1-0.1-0.1-0.1-0.2
			c-0.1-0.1-0.2-0.2-0.4-0.2H77.7c-0.3,0-0.5,0.2-0.5,0.6c0,0.1,0.1,0.3,0.1,0.4c0.1,0.1,0.2,0.2,0.4,0.2h23.4
			c0.1,0,0.3-0.1,0.3-0.2c0.1-0.1,0.2-0.2,0.2-0.4C101.6,77.3,101.6,77.2,101.6,77.1z M101.5,80.1c-0.1-0.1-0.2-0.2-0.4-0.2H77.7
			c-0.3,0-0.5,0.3-0.5,0.6c0,0.3,0.2,0.6,0.5,0.6h23.4c0.1,0,0.3-0.1,0.4-0.2c0.1-0.1,0.2-0.2,0.2-0.4S101.6,80.2,101.5,80.1z
			 M101.6,83.5C101.6,83.4,101.6,83.4,101.6,83.5c-0.1-0.1-0.1-0.2-0.1-0.2c-0.1-0.1-0.2-0.2-0.4-0.2H77.7c-0.3,0-0.5,0.2-0.5,0.6
			c0,0.2,0.1,0.3,0.1,0.4c0.1,0.1,0.2,0.2,0.4,0.2h23.4c0.1,0,0.3-0.1,0.3-0.2c0.1-0.1,0.2-0.2,0.2-0.4
			C101.6,83.6,101.6,83.5,101.6,83.5z M101.5,86.5c0,0-0.1-0.1-0.2-0.1c-0.1,0-0.1,0-0.2,0H77.8c-0.1,0-0.3,0.1-0.4,0.2
			c0,0,0,0,0,0.1c-0.1,0.1-0.1,0.2-0.1,0.3c0,0.1,0.1,0.3,0.1,0.4c0,0,0.1,0.1,0.2,0.1c0.1,0,0.1,0,0.2,0h23.4c0.1,0,0.1,0,0.2,0
			c0.2-0.1,0.3-0.3,0.3-0.5C101.6,86.7,101.6,86.6,101.5,86.5z M101.5,89.7c-0.1-0.1-0.2-0.2-0.4-0.2H77.7c-0.3,0-0.5,0.3-0.5,0.6
			c0,0.2,0.1,0.3,0.1,0.4c0.1,0.1,0.2,0.2,0.4,0.2h23.4c0.1,0,0.3-0.1,0.3-0.2c0.1-0.1,0.2-0.2,0.2-0.4
			C101.6,89.9,101.6,89.8,101.5,89.7z M97.3,96.1v0.7l0.8-0.7H97.3z M101.5,89.7c-0.1-0.1-0.2-0.2-0.4-0.2H77.7
			c-0.3,0-0.5,0.3-0.5,0.6c0,0.2,0.1,0.3,0.1,0.4c0.1,0.1,0.2,0.2,0.4,0.2h23.4c0.1,0,0.3-0.1,0.3-0.2c0.1-0.1,0.2-0.2,0.2-0.4
			C101.6,89.9,101.6,89.8,101.5,89.7z M101.5,86.5c0,0-0.1-0.1-0.2-0.1c-0.1,0-0.1,0-0.2,0H77.8c-0.1,0-0.3,0.1-0.4,0.2
			c0,0,0,0,0,0.1c-0.1,0.1-0.1,0.2-0.1,0.3c0,0.1,0.1,0.3,0.1,0.4c0,0,0.1,0.1,0.2,0.1c0.1,0,0.1,0,0.2,0h23.4c0.1,0,0.1,0,0.2,0
			c0.2-0.1,0.3-0.3,0.3-0.5C101.6,86.7,101.6,86.6,101.5,86.5z M101.6,83.5C101.6,83.4,101.6,83.4,101.6,83.5
			c-0.1-0.1-0.1-0.2-0.1-0.2c-0.1-0.1-0.2-0.2-0.4-0.2H77.7c-0.3,0-0.5,0.2-0.5,0.6c0,0.2,0.1,0.3,0.1,0.4c0.1,0.1,0.2,0.2,0.4,0.2
			h23.4c0.1,0,0.3-0.1,0.3-0.2c0.1-0.1,0.2-0.2,0.2-0.4C101.6,83.6,101.6,83.5,101.6,83.5z M101.5,80.1c-0.1-0.1-0.2-0.2-0.4-0.2
			H77.7c-0.3,0-0.5,0.3-0.5,0.6c0,0.3,0.2,0.6,0.5,0.6h23.4c0.1,0,0.3-0.1,0.4-0.2c0.1-0.1,0.2-0.2,0.2-0.4S101.6,80.2,101.5,80.1z
			 M101.6,77.1c0-0.1-0.1-0.1-0.1-0.2c-0.1-0.1-0.2-0.2-0.4-0.2H77.7c-0.3,0-0.5,0.2-0.5,0.6c0,0.1,0.1,0.3,0.1,0.4
			c0.1,0.1,0.2,0.2,0.4,0.2h23.4c0.1,0,0.3-0.1,0.3-0.2c0.1-0.1,0.2-0.2,0.2-0.4C101.6,77.3,101.6,77.2,101.6,77.1z M101.5,73.8
			c-0.1-0.1-0.2-0.2-0.4-0.2H77.7c-0.1,0-0.1,0-0.2,0c0,0-0.1,0-0.1,0.1l0,0c0,0,0,0,0,0.1c-0.1,0.1-0.1,0.2-0.1,0.3
			c0,0.3,0.2,0.6,0.5,0.6h23.4c0.1,0,0.3-0.1,0.4-0.2c0.1-0.1,0.2-0.2,0.2-0.4C101.6,74,101.6,73.9,101.5,73.8z M101.6,70.8
			c0-0.1-0.1-0.2-0.3-0.3c-0.1,0-0.1,0-0.2,0H77.8c-0.1,0-0.3,0.1-0.4,0.2c-0.1,0-0.1,0.1-0.1,0.2c0,0.1,0,0.1,0,0.2
			c0,0.3,0.2,0.6,0.5,0.6h23.4c0.1,0,0.3-0.1,0.4-0.2c0.1-0.1,0.2-0.2,0.2-0.4C101.6,70.9,101.6,70.8,101.6,70.8z M47.3,73.6
			c-0.2,0-0.4,0.2-0.5,0.4L47.3,73.6L47.3,73.6z M47.3,83.1c-0.2,0-0.4,0.2-0.5,0.4L47.3,83.1L47.3,83.1z M48.4,20.8V24l3.9-3.2
			H48.4z M58.4,20.8l-10,8.2v2.2l12.7-10.5H58.4z M67.2,20.8L48.4,36.4v2.3L70,20.8H67.2z M76.1,20.8L48.4,43.6v2.3l30.4-25.1H76.1z
			 M85,20.8L48.4,51v1.3h1.1l38.2-31.4H85z M93.8,20.8L55.6,52.3h2.7l38.2-31.4H93.8z M64.5,52.3h2.7l32.9-27.1v-2.2L64.5,52.3z
			 M73.3,52.3H76l24.1-19.8v-2.3L73.3,52.3z M82.2,52.3h2.7l15.2-12.5v-2.2L82.2,52.3z M91,52.3h2.7l6.4-5.2v-2.3L91,52.3z
			 M95.5,52.3h4.7v-3.8L95.5,52.3z M86.6,52.3h2.7l10.8-8.9v-2.3L86.6,52.3z M77.8,52.3h2.7l19.7-16.2v-2.2L77.8,52.3z M68.9,52.3
			h2.7l28.5-23.5v-2.2L68.9,52.3z M98.3,20.8L60,52.3h2.7l37.4-30.7v-0.7H98.3z M89.4,20.8L51.2,52.3h2.7l38.2-31.4H89.4z
			 M80.5,20.8L48.4,47.3v2.2l34.9-28.7H80.5z M71.6,20.8L48.4,40v2.3l26-21.4H71.6z M62.8,20.8L48.4,32.7V35l17.2-14.1H62.8z
			 M54,20.8l-5.6,4.6v2.2l8.3-6.8H54z M48.4,20.8V24l3.9-3.2H48.4z M58.4,20.8l-10,8.2v2.2l12.7-10.5H58.4z M67.2,20.8L48.4,36.4
			v2.3L70,20.8H67.2z M76.1,20.8L48.4,43.6v2.3l30.4-25.1H76.1z M85,20.8L48.4,51v1.3h1.1l38.2-31.4H85z M93.8,20.8L55.6,52.3h2.7
			l38.2-31.4H93.8z M64.5,52.3h2.7l32.9-27.1v-2.2L64.5,52.3z M73.3,52.3H76l24.1-19.8v-2.3L73.3,52.3z M82.2,52.3h2.7l15.2-12.5
			v-2.2L82.2,52.3z M91,52.3h2.7l6.4-5.2v-2.3L91,52.3z M95.5,52.3h4.7v-3.8L95.5,52.3z M86.6,52.3h2.7l10.8-8.9v-2.3L86.6,52.3z
			 M77.8,52.3h2.7l19.7-16.2v-2.2L77.8,52.3z M68.9,52.3h2.7l28.5-23.5v-2.2L68.9,52.3z M98.3,20.8L60,52.3h2.7l37.4-30.7v-0.7H98.3
			z M89.4,20.8L51.2,52.3h2.7l38.2-31.4H89.4z M80.5,20.8L48.4,47.3v2.2l34.9-28.7H80.5z M71.6,20.8L48.4,40v2.3l26-21.4H71.6z
			 M62.8,20.8L48.4,32.7V35l17.2-14.1H62.8z M54,20.8l-5.6,4.6v2.2l8.3-6.8H54z M47.3,73.6c-0.2,0-0.4,0.2-0.5,0.4L47.3,73.6
			L47.3,73.6z M47.3,83.1c-0.2,0-0.4,0.2-0.5,0.4L47.3,83.1L47.3,83.1z M101.6,70.8c0-0.1-0.1-0.2-0.3-0.3c-0.1,0-0.1,0-0.2,0H77.8
			c-0.1,0-0.3,0.1-0.4,0.2c-0.1,0-0.1,0.1-0.1,0.2c0,0.1,0,0.1,0,0.2c0,0.3,0.2,0.6,0.5,0.6h23.4c0.1,0,0.3-0.1,0.4-0.2
			c0.1-0.1,0.2-0.2,0.2-0.4C101.6,70.9,101.6,70.8,101.6,70.8z M101.5,73.8c-0.1-0.1-0.2-0.2-0.4-0.2H77.7c-0.1,0-0.1,0-0.2,0
			c0,0-0.1,0-0.1,0.1l0,0c0,0,0,0,0,0.1c-0.1,0.1-0.1,0.2-0.1,0.3c0,0.3,0.2,0.6,0.5,0.6h23.4c0.1,0,0.3-0.1,0.4-0.2
			c0.1-0.1,0.2-0.2,0.2-0.4C101.6,74,101.6,73.9,101.5,73.8z M101.6,77.1c0-0.1-0.1-0.1-0.1-0.2c-0.1-0.1-0.2-0.2-0.4-0.2H77.7
			c-0.3,0-0.5,0.2-0.5,0.6c0,0.1,0.1,0.3,0.1,0.4c0.1,0.1,0.2,0.2,0.4,0.2h23.4c0.1,0,0.3-0.1,0.3-0.2c0.1-0.1,0.2-0.2,0.2-0.4
			C101.6,77.3,101.6,77.2,101.6,77.1z M101.5,80.1c-0.1-0.1-0.2-0.2-0.4-0.2H77.7c-0.3,0-0.5,0.3-0.5,0.6c0,0.3,0.2,0.6,0.5,0.6
			h23.4c0.1,0,0.3-0.1,0.4-0.2c0.1-0.1,0.2-0.2,0.2-0.4S101.6,80.2,101.5,80.1z M101.6,83.5C101.6,83.4,101.6,83.4,101.6,83.5
			c-0.1-0.1-0.1-0.2-0.1-0.2c-0.1-0.1-0.2-0.2-0.4-0.2H77.7c-0.3,0-0.5,0.2-0.5,0.6c0,0.2,0.1,0.3,0.1,0.4c0.1,0.1,0.2,0.2,0.4,0.2
			h23.4c0.1,0,0.3-0.1,0.3-0.2c0.1-0.1,0.2-0.2,0.2-0.4C101.6,83.6,101.6,83.5,101.6,83.5z M101.5,86.5c0,0-0.1-0.1-0.2-0.1
			c-0.1,0-0.1,0-0.2,0H77.8c-0.1,0-0.3,0.1-0.4,0.2c0,0,0,0,0,0.1c-0.1,0.1-0.1,0.2-0.1,0.3c0,0.1,0.1,0.3,0.1,0.4
			c0,0,0.1,0.1,0.2,0.1c0.1,0,0.1,0,0.2,0h23.4c0.1,0,0.1,0,0.2,0c0.2-0.1,0.3-0.3,0.3-0.5C101.6,86.7,101.6,86.6,101.5,86.5z
			 M101.5,89.7c-0.1-0.1-0.2-0.2-0.4-0.2H77.7c-0.3,0-0.5,0.3-0.5,0.6c0,0.2,0.1,0.3,0.1,0.4c0.1,0.1,0.2,0.2,0.4,0.2h23.4
			c0.1,0,0.3-0.1,0.3-0.2c0.1-0.1,0.2-0.2,0.2-0.4C101.6,89.9,101.6,89.8,101.5,89.7z M97.3,96.1v0.7l0.8-0.7H97.3z M47.3,73.6
			c-0.2,0-0.4,0.2-0.5,0.4L47.3,73.6L47.3,73.6z M47.3,83.1c-0.2,0-0.4,0.2-0.5,0.4L47.3,83.1L47.3,83.1z M101.5,89.7
			c-0.1-0.1-0.2-0.2-0.4-0.2H77.7c-0.3,0-0.5,0.3-0.5,0.6c0,0.2,0.1,0.3,0.1,0.4c0.1,0.1,0.2,0.2,0.4,0.2h23.4
			c0.1,0,0.3-0.1,0.3-0.2c0.1-0.1,0.2-0.2,0.2-0.4C101.6,89.9,101.6,89.8,101.5,89.7z M101.5,86.5c0,0-0.1-0.1-0.2-0.1
			c-0.1,0-0.1,0-0.2,0H77.8c-0.1,0-0.3,0.1-0.4,0.2c0,0,0,0,0,0.1c-0.1,0.1-0.1,0.2-0.1,0.3c0,0.1,0.1,0.3,0.1,0.4
			c0,0,0.1,0.1,0.2,0.1c0.1,0,0.1,0,0.2,0h23.4c0.1,0,0.1,0,0.2,0c0.2-0.1,0.3-0.3,0.3-0.5C101.6,86.7,101.6,86.6,101.5,86.5z
			 M101.6,83.5C101.6,83.4,101.6,83.4,101.6,83.5c-0.1-0.1-0.1-0.2-0.1-0.2c-0.1-0.1-0.2-0.2-0.4-0.2H77.7c-0.3,0-0.5,0.2-0.5,0.6
			c0,0.2,0.1,0.3,0.1,0.4c0.1,0.1,0.2,0.2,0.4,0.2h23.4c0.1,0,0.3-0.1,0.3-0.2c0.1-0.1,0.2-0.2,0.2-0.4
			C101.6,83.6,101.6,83.5,101.6,83.5z M101.5,80.1c-0.1-0.1-0.2-0.2-0.4-0.2H77.7c-0.3,0-0.5,0.3-0.5,0.6c0,0.3,0.2,0.6,0.5,0.6
			h23.4c0.1,0,0.3-0.1,0.4-0.2c0.1-0.1,0.2-0.2,0.2-0.4S101.6,80.2,101.5,80.1z M101.6,77.1c0-0.1-0.1-0.1-0.1-0.2
			c-0.1-0.1-0.2-0.2-0.4-0.2H77.7c-0.3,0-0.5,0.2-0.5,0.6c0,0.1,0.1,0.3,0.1,0.4c0.1,0.1,0.2,0.2,0.4,0.2h23.4
			c0.1,0,0.3-0.1,0.3-0.2c0.1-0.1,0.2-0.2,0.2-0.4C101.6,77.3,101.6,77.2,101.6,77.1z M101.5,73.8c-0.1-0.1-0.2-0.2-0.4-0.2H77.7
			c-0.1,0-0.1,0-0.2,0c0,0-0.1,0-0.1,0.1l0,0c0,0,0,0,0,0.1c-0.1,0.1-0.1,0.2-0.1,0.3c0,0.3,0.2,0.6,0.5,0.6h23.4
			c0.1,0,0.3-0.1,0.4-0.2c0.1-0.1,0.2-0.2,0.2-0.4C101.6,74,101.6,73.9,101.5,73.8z M101.6,70.8c0-0.1-0.1-0.2-0.3-0.3
			c-0.1,0-0.1,0-0.2,0H77.8c-0.1,0-0.3,0.1-0.4,0.2c-0.1,0-0.1,0.1-0.1,0.2c0,0.1,0,0.1,0,0.2c0,0.3,0.2,0.6,0.5,0.6h23.4
			c0.1,0,0.3-0.1,0.4-0.2c0.1-0.1,0.2-0.2,0.2-0.4C101.6,70.9,101.6,70.8,101.6,70.8z M48.4,20.8V24l3.9-3.2H48.4z M58.4,20.8
			l-10,8.2v2.2l12.7-10.5H58.4z M67.2,20.8L48.4,36.4v2.3L70,20.8H67.2z M76.1,20.8L48.4,43.6v2.3l30.4-25.1H76.1z M85,20.8L48.4,51
			v1.3h1.1l38.2-31.4H85z M93.8,20.8L55.6,52.3h2.7l38.2-31.4H93.8z M64.5,52.3h2.7l32.9-27.1v-2.2L64.5,52.3z M73.3,52.3H76
			l24.1-19.8v-2.3L73.3,52.3z M82.2,52.3h2.7l15.2-12.5v-2.2L82.2,52.3z M91,52.3h2.7l6.4-5.2v-2.3L91,52.3z M95.5,52.3h4.7v-3.8
			L95.5,52.3z M86.6,52.3h2.7l10.8-8.9v-2.3L86.6,52.3z M77.8,52.3h2.7l19.7-16.2v-2.2L77.8,52.3z M68.9,52.3h2.7l28.5-23.5v-2.2
			L68.9,52.3z M98.3,20.8L60,52.3h2.7l37.4-30.7v-0.7H98.3z M89.4,20.8L51.2,52.3h2.7l38.2-31.4H89.4z M80.5,20.8L48.4,47.3v2.2
			l34.9-28.7H80.5z M71.6,20.8L48.4,40v2.3l26-21.4H71.6z M62.8,20.8L48.4,32.7V35l17.2-14.1H62.8z M54,20.8l-5.6,4.6v2.2l8.3-6.8
			H54z M48.4,20.8V24l3.9-3.2H48.4z M58.4,20.8l-10,8.2v2.2l12.7-10.5H58.4z M67.2,20.8L48.4,36.4v2.3L70,20.8H67.2z M76.1,20.8
			L48.4,43.6v2.3l30.4-25.1H76.1z M85,20.8L48.4,51v1.3h1.1l38.2-31.4H85z M93.8,20.8L55.6,52.3h2.7l38.2-31.4H93.8z M64.5,52.3h2.7
			l32.9-27.1v-2.2L64.5,52.3z M73.3,52.3H76l24.1-19.8v-2.3L73.3,52.3z M82.2,52.3h2.7l15.2-12.5v-2.2L82.2,52.3z M91,52.3h2.7
			l6.4-5.2v-2.3L91,52.3z M95.5,52.3h4.7v-3.8L95.5,52.3z M86.6,52.3h2.7l10.8-8.9v-2.3L86.6,52.3z M77.8,52.3h2.7l19.7-16.2v-2.2
			L77.8,52.3z M68.9,52.3h2.7l28.5-23.5v-2.2L68.9,52.3z M98.3,20.8L60,52.3h2.7l37.4-30.7v-0.7H98.3z M89.4,20.8L51.2,52.3h2.7
			l38.2-31.4H89.4z M80.5,20.8L48.4,47.3v2.2l34.9-28.7H80.5z M71.6,20.8L48.4,40v2.3l26-21.4H71.6z M62.8,20.8L48.4,32.7V35
			l17.2-14.1H62.8z M54,20.8l-5.6,4.6v2.2l8.3-6.8H54z M101.6,70.8c0-0.1-0.1-0.2-0.3-0.3c-0.1,0-0.1,0-0.2,0H77.8
			c-0.1,0-0.3,0.1-0.4,0.2c-0.1,0-0.1,0.1-0.1,0.2c0,0.1,0,0.1,0,0.2c0,0.3,0.2,0.6,0.5,0.6h23.4c0.1,0,0.3-0.1,0.4-0.2
			c0.1-0.1,0.2-0.2,0.2-0.4C101.6,70.9,101.6,70.8,101.6,70.8z M101.5,73.8c-0.1-0.1-0.2-0.2-0.4-0.2H77.7c-0.1,0-0.1,0-0.2,0
			c0,0-0.1,0-0.1,0.1l0,0c0,0,0,0,0,0.1c-0.1,0.1-0.1,0.2-0.1,0.3c0,0.3,0.2,0.6,0.5,0.6h23.4c0.1,0,0.3-0.1,0.4-0.2
			c0.1-0.1,0.2-0.2,0.2-0.4C101.6,74,101.6,73.9,101.5,73.8z M101.6,77.1c0-0.1-0.1-0.1-0.1-0.2c-0.1-0.1-0.2-0.2-0.4-0.2H77.7
			c-0.3,0-0.5,0.2-0.5,0.6c0,0.1,0.1,0.3,0.1,0.4c0.1,0.1,0.2,0.2,0.4,0.2h23.4c0.1,0,0.3-0.1,0.3-0.2c0.1-0.1,0.2-0.2,0.2-0.4
			C101.6,77.3,101.6,77.2,101.6,77.1z M101.5,80.1c-0.1-0.1-0.2-0.2-0.4-0.2H77.7c-0.3,0-0.5,0.3-0.5,0.6c0,0.3,0.2,0.6,0.5,0.6
			h23.4c0.1,0,0.3-0.1,0.4-0.2c0.1-0.1,0.2-0.2,0.2-0.4S101.6,80.2,101.5,80.1z M101.6,83.5C101.6,83.4,101.6,83.4,101.6,83.5
			c-0.1-0.1-0.1-0.2-0.1-0.2c-0.1-0.1-0.2-0.2-0.4-0.2H77.7c-0.3,0-0.5,0.2-0.5,0.6c0,0.2,0.1,0.3,0.1,0.4c0.1,0.1,0.2,0.2,0.4,0.2
			h23.4c0.1,0,0.3-0.1,0.3-0.2c0.1-0.1,0.2-0.2,0.2-0.4C101.6,83.6,101.6,83.5,101.6,83.5z M101.5,86.5c0,0-0.1-0.1-0.2-0.1
			c-0.1,0-0.1,0-0.2,0H77.8c-0.1,0-0.3,0.1-0.4,0.2c0,0,0,0,0,0.1c-0.1,0.1-0.1,0.2-0.1,0.3c0,0.1,0.1,0.3,0.1,0.4
			c0,0,0.1,0.1,0.2,0.1c0.1,0,0.1,0,0.2,0h23.4c0.1,0,0.1,0,0.2,0c0.2-0.1,0.3-0.3,0.3-0.5C101.6,86.7,101.6,86.6,101.5,86.5z
			 M101.5,89.7c-0.1-0.1-0.2-0.2-0.4-0.2H77.7c-0.3,0-0.5,0.3-0.5,0.6c0,0.2,0.1,0.3,0.1,0.4c0.1,0.1,0.2,0.2,0.4,0.2h23.4
			c0.1,0,0.3-0.1,0.3-0.2c0.1-0.1,0.2-0.2,0.2-0.4C101.6,89.9,101.6,89.8,101.5,89.7z M97.3,96.1v0.7l0.8-0.7H97.3z M47.3,73.6
			c-0.2,0-0.4,0.2-0.5,0.4L47.3,73.6L47.3,73.6z M47.3,83.1c-0.2,0-0.4,0.2-0.5,0.4L47.3,83.1L47.3,83.1z M47.3,83.1
			c-0.2,0-0.4,0.2-0.5,0.4L47.3,83.1L47.3,83.1z M47.3,73.6c-0.2,0-0.4,0.2-0.5,0.4L47.3,73.6L47.3,73.6z M101.5,89.7
			c-0.1-0.1-0.2-0.2-0.4-0.2H77.7c-0.3,0-0.5,0.3-0.5,0.6c0,0.2,0.1,0.3,0.1,0.4c0.1,0.1,0.2,0.2,0.4,0.2h23.4
			c0.1,0,0.3-0.1,0.3-0.2c0.1-0.1,0.2-0.2,0.2-0.4C101.6,89.9,101.6,89.8,101.5,89.7z M101.5,86.5c0,0-0.1-0.1-0.2-0.1
			c-0.1,0-0.1,0-0.2,0H77.8c-0.1,0-0.3,0.1-0.4,0.2c0,0,0,0,0,0.1c-0.1,0.1-0.1,0.2-0.1,0.3c0,0.1,0.1,0.3,0.1,0.4
			c0,0,0.1,0.1,0.2,0.1c0.1,0,0.1,0,0.2,0h23.4c0.1,0,0.1,0,0.2,0c0.2-0.1,0.3-0.3,0.3-0.5C101.6,86.7,101.6,86.6,101.5,86.5z
			 M101.6,83.5C101.6,83.4,101.6,83.4,101.6,83.5c-0.1-0.1-0.1-0.2-0.1-0.2c-0.1-0.1-0.2-0.2-0.4-0.2H77.7c-0.3,0-0.5,0.2-0.5,0.6
			c0,0.2,0.1,0.3,0.1,0.4c0.1,0.1,0.2,0.2,0.4,0.2h23.4c0.1,0,0.3-0.1,0.3-0.2c0.1-0.1,0.2-0.2,0.2-0.4
			C101.6,83.6,101.6,83.5,101.6,83.5z M101.5,80.1c-0.1-0.1-0.2-0.2-0.4-0.2H77.7c-0.3,0-0.5,0.3-0.5,0.6c0,0.3,0.2,0.6,0.5,0.6
			h23.4c0.1,0,0.3-0.1,0.4-0.2c0.1-0.1,0.2-0.2,0.2-0.4S101.6,80.2,101.5,80.1z M101.6,77.1c0-0.1-0.1-0.1-0.1-0.2
			c-0.1-0.1-0.2-0.2-0.4-0.2H77.7c-0.3,0-0.5,0.2-0.5,0.6c0,0.1,0.1,0.3,0.1,0.4c0.1,0.1,0.2,0.2,0.4,0.2h23.4
			c0.1,0,0.3-0.1,0.3-0.2c0.1-0.1,0.2-0.2,0.2-0.4C101.6,77.3,101.6,77.2,101.6,77.1z M101.5,73.8c-0.1-0.1-0.2-0.2-0.4-0.2H77.7
			c-0.1,0-0.1,0-0.2,0c0,0-0.1,0-0.1,0.1l0,0c0,0,0,0,0,0.1c-0.1,0.1-0.1,0.2-0.1,0.3c0,0.3,0.2,0.6,0.5,0.6h23.4
			c0.1,0,0.3-0.1,0.4-0.2c0.1-0.1,0.2-0.2,0.2-0.4C101.6,74,101.6,73.9,101.5,73.8z M101.6,70.8c0-0.1-0.1-0.2-0.3-0.3
			c-0.1,0-0.1,0-0.2,0H77.8c-0.1,0-0.3,0.1-0.4,0.2c-0.1,0-0.1,0.1-0.1,0.2c0,0.1,0,0.1,0,0.2c0,0.3,0.2,0.6,0.5,0.6h23.4
			c0.1,0,0.3-0.1,0.4-0.2c0.1-0.1,0.2-0.2,0.2-0.4C101.6,70.9,101.6,70.8,101.6,70.8z M48.4,20.8V24l3.9-3.2H48.4z M58.4,20.8
			l-10,8.2v2.2l12.7-10.5H58.4z M67.2,20.8L48.4,36.4v2.3L70,20.8H67.2z M76.1,20.8L48.4,43.6v2.3l30.4-25.1H76.1z M85,20.8L48.4,51
			v1.3h1.1l38.2-31.4H85z M93.8,20.8L55.6,52.3h2.7l38.2-31.4H93.8z M64.5,52.3h2.7l32.9-27.1v-2.2L64.5,52.3z M73.3,52.3H76
			l24.1-19.8v-2.3L73.3,52.3z M82.2,52.3h2.7l15.2-12.5v-2.2L82.2,52.3z M91,52.3h2.7l6.4-5.2v-2.3L91,52.3z M95.5,52.3h4.7v-3.8
			L95.5,52.3z M86.6,52.3h2.7l10.8-8.9v-2.3L86.6,52.3z M77.8,52.3h2.7l19.7-16.2v-2.2L77.8,52.3z M68.9,52.3h2.7l28.5-23.5v-2.2
			L68.9,52.3z M98.3,20.8L60,52.3h2.7l37.4-30.7v-0.7H98.3z M89.4,20.8L51.2,52.3h2.7l38.2-31.4H89.4z M80.5,20.8L48.4,47.3v2.2
			l34.9-28.7H80.5z M71.6,20.8L48.4,40v2.3l26-21.4H71.6z M62.8,20.8L48.4,32.7V35l17.2-14.1H62.8z M54,20.8l-5.6,4.6v2.2l8.3-6.8
			H54z M48.4,20.8V24l3.9-3.2H48.4z M58.4,20.8l-10,8.2v2.2l12.7-10.5H58.4z M67.2,20.8L48.4,36.4v2.3L70,20.8H67.2z M76.1,20.8
			L48.4,43.6v2.3l30.4-25.1H76.1z M85,20.8L48.4,51v1.3h1.1l38.2-31.4H85z M93.8,20.8L55.6,52.3h2.7l38.2-31.4H93.8z M64.5,52.3h2.7
			l32.9-27.1v-2.2L64.5,52.3z M73.3,52.3H76l24.1-19.8v-2.3L73.3,52.3z M82.2,52.3h2.7l15.2-12.5v-2.2L82.2,52.3z M91,52.3h2.7
			l6.4-5.2v-2.3L91,52.3z M95.5,52.3h4.7v-3.8L95.5,52.3z M86.6,52.3h2.7l10.8-8.9v-2.3L86.6,52.3z M77.8,52.3h2.7l19.7-16.2v-2.2
			L77.8,52.3z M68.9,52.3h2.7l28.5-23.5v-2.2L68.9,52.3z M98.3,20.8L60,52.3h2.7l37.4-30.7v-0.7H98.3z M89.4,20.8L51.2,52.3h2.7
			l38.2-31.4H89.4z M80.5,20.8L48.4,47.3v2.2l34.9-28.7H80.5z M71.6,20.8L48.4,40v2.3l26-21.4H71.6z M62.8,20.8L48.4,32.7V35
			l17.2-14.1H62.8z M54,20.8l-5.6,4.6v2.2l8.3-6.8H54z M101.6,70.8c0-0.1-0.1-0.2-0.3-0.3c-0.1,0-0.1,0-0.2,0H77.8
			c-0.1,0-0.3,0.1-0.4,0.2c-0.1,0-0.1,0.1-0.1,0.2c0,0.1,0,0.1,0,0.2c0,0.3,0.2,0.6,0.5,0.6h23.4c0.1,0,0.3-0.1,0.4-0.2
			c0.1-0.1,0.2-0.2,0.2-0.4C101.6,70.9,101.6,70.8,101.6,70.8z M101.5,73.8c-0.1-0.1-0.2-0.2-0.4-0.2H77.7c-0.1,0-0.1,0-0.2,0
			c0,0-0.1,0-0.1,0.1l0,0c0,0,0,0,0,0.1c-0.1,0.1-0.1,0.2-0.1,0.3c0,0.3,0.2,0.6,0.5,0.6h23.4c0.1,0,0.3-0.1,0.4-0.2
			c0.1-0.1,0.2-0.2,0.2-0.4C101.6,74,101.6,73.9,101.5,73.8z M101.6,77.1c0-0.1-0.1-0.1-0.1-0.2c-0.1-0.1-0.2-0.2-0.4-0.2H77.7
			c-0.3,0-0.5,0.2-0.5,0.6c0,0.1,0.1,0.3,0.1,0.4c0.1,0.1,0.2,0.2,0.4,0.2h23.4c0.1,0,0.3-0.1,0.3-0.2c0.1-0.1,0.2-0.2,0.2-0.4
			C101.6,77.3,101.6,77.2,101.6,77.1z M101.5,80.1c-0.1-0.1-0.2-0.2-0.4-0.2H77.7c-0.3,0-0.5,0.3-0.5,0.6c0,0.3,0.2,0.6,0.5,0.6
			h23.4c0.1,0,0.3-0.1,0.4-0.2c0.1-0.1,0.2-0.2,0.2-0.4S101.6,80.2,101.5,80.1z M101.6,83.5C101.6,83.4,101.6,83.4,101.6,83.5
			c-0.1-0.1-0.1-0.2-0.1-0.2c-0.1-0.1-0.2-0.2-0.4-0.2H77.7c-0.3,0-0.5,0.2-0.5,0.6c0,0.2,0.1,0.3,0.1,0.4c0.1,0.1,0.2,0.2,0.4,0.2
			h23.4c0.1,0,0.3-0.1,0.3-0.2c0.1-0.1,0.2-0.2,0.2-0.4C101.6,83.6,101.6,83.5,101.6,83.5z M101.5,86.5c0,0-0.1-0.1-0.2-0.1
			c-0.1,0-0.1,0-0.2,0H77.8c-0.1,0-0.3,0.1-0.4,0.2c0,0,0,0,0,0.1c-0.1,0.1-0.1,0.2-0.1,0.3c0,0.1,0.1,0.3,0.1,0.4
			c0,0,0.1,0.1,0.2,0.1c0.1,0,0.1,0,0.2,0h23.4c0.1,0,0.1,0,0.2,0c0.2-0.1,0.3-0.3,0.3-0.5C101.6,86.7,101.6,86.6,101.5,86.5z
			 M101.5,89.7c-0.1-0.1-0.2-0.2-0.4-0.2H77.7c-0.3,0-0.5,0.3-0.5,0.6c0,0.2,0.1,0.3,0.1,0.4c0.1,0.1,0.2,0.2,0.4,0.2h23.4
			c0.1,0,0.3-0.1,0.3-0.2c0.1-0.1,0.2-0.2,0.2-0.4C101.6,89.9,101.6,89.8,101.5,89.7z M97.3,96.1v0.7l0.8-0.7H97.3z M47.3,73.6
			c-0.2,0-0.4,0.2-0.5,0.4L47.3,73.6L47.3,73.6z M47.3,83.1c-0.2,0-0.4,0.2-0.5,0.4L47.3,83.1L47.3,83.1z M47.3,83.1
			c-0.2,0-0.4,0.2-0.5,0.4L47.3,83.1L47.3,83.1z M47.3,73.6c-0.2,0-0.4,0.2-0.5,0.4L47.3,73.6L47.3,73.6z M101.5,89.7
			c-0.1-0.1-0.2-0.2-0.4-0.2H77.7c-0.3,0-0.5,0.3-0.5,0.6c0,0.2,0.1,0.3,0.1,0.4c0.1,0.1,0.2,0.2,0.4,0.2h23.4
			c0.1,0,0.3-0.1,0.3-0.2c0.1-0.1,0.2-0.2,0.2-0.4C101.6,89.9,101.6,89.8,101.5,89.7z M101.5,86.5c0,0-0.1-0.1-0.2-0.1
			c-0.1,0-0.1,0-0.2,0H77.8c-0.1,0-0.3,0.1-0.4,0.2c0,0,0,0,0,0.1c-0.1,0.1-0.1,0.2-0.1,0.3c0,0.1,0.1,0.3,0.1,0.4
			c0,0,0.1,0.1,0.2,0.1c0.1,0,0.1,0,0.2,0h23.4c0.1,0,0.1,0,0.2,0c0.2-0.1,0.3-0.3,0.3-0.5C101.6,86.7,101.6,86.6,101.5,86.5z
			 M101.6,83.5C101.6,83.4,101.6,83.4,101.6,83.5c-0.1-0.1-0.1-0.2-0.1-0.2c-0.1-0.1-0.2-0.2-0.4-0.2H77.7c-0.3,0-0.5,0.2-0.5,0.6
			c0,0.2,0.1,0.3,0.1,0.4c0.1,0.1,0.2,0.2,0.4,0.2h23.4c0.1,0,0.3-0.1,0.3-0.2c0.1-0.1,0.2-0.2,0.2-0.4
			C101.6,83.6,101.6,83.5,101.6,83.5z M101.5,80.1c-0.1-0.1-0.2-0.2-0.4-0.2H77.7c-0.3,0-0.5,0.3-0.5,0.6c0,0.3,0.2,0.6,0.5,0.6
			h23.4c0.1,0,0.3-0.1,0.4-0.2c0.1-0.1,0.2-0.2,0.2-0.4S101.6,80.2,101.5,80.1z M101.6,77.1c0-0.1-0.1-0.1-0.1-0.2
			c-0.1-0.1-0.2-0.2-0.4-0.2H77.7c-0.3,0-0.5,0.2-0.5,0.6c0,0.1,0.1,0.3,0.1,0.4c0.1,0.1,0.2,0.2,0.4,0.2h23.4
			c0.1,0,0.3-0.1,0.3-0.2c0.1-0.1,0.2-0.2,0.2-0.4C101.6,77.3,101.6,77.2,101.6,77.1z M101.5,73.8c-0.1-0.1-0.2-0.2-0.4-0.2H77.7
			c-0.1,0-0.1,0-0.2,0c0,0-0.1,0-0.1,0.1l0,0c0,0,0,0,0,0.1c-0.1,0.1-0.1,0.2-0.1,0.3c0,0.3,0.2,0.6,0.5,0.6h23.4
			c0.1,0,0.3-0.1,0.4-0.2c0.1-0.1,0.2-0.2,0.2-0.4C101.6,74,101.6,73.9,101.5,73.8z M101.6,70.8c0-0.1-0.1-0.2-0.3-0.3
			c-0.1,0-0.1,0-0.2,0H77.8c-0.1,0-0.3,0.1-0.4,0.2c-0.1,0-0.1,0.1-0.1,0.2c0,0.1,0,0.1,0,0.2c0,0.3,0.2,0.6,0.5,0.6h23.4
			c0.1,0,0.3-0.1,0.4-0.2c0.1-0.1,0.2-0.2,0.2-0.4C101.6,70.9,101.6,70.8,101.6,70.8z M48.4,20.8V24l3.9-3.2H48.4z M58.4,20.8
			l-10,8.2v2.2l12.7-10.5H58.4z M67.2,20.8L48.4,36.4v2.3L70,20.8H67.2z M76.1,20.8L48.4,43.6v2.3l30.4-25.1H76.1z M85,20.8L48.4,51
			v1.3h1.1l38.2-31.4H85z M93.8,20.8L55.6,52.3h2.7l38.2-31.4H93.8z M64.5,52.3h2.7l32.9-27.1v-2.2L64.5,52.3z M73.3,52.3H76
			l24.1-19.8v-2.3L73.3,52.3z M82.2,52.3h2.7l15.2-12.5v-2.2L82.2,52.3z M91,52.3h2.7l6.4-5.2v-2.3L91,52.3z M95.5,52.3h4.7v-3.8
			L95.5,52.3z M86.6,52.3h2.7l10.8-8.9v-2.3L86.6,52.3z M77.8,52.3h2.7l19.7-16.2v-2.2L77.8,52.3z M68.9,52.3h2.7l28.5-23.5v-2.2
			L68.9,52.3z M98.3,20.8L60,52.3h2.7l37.4-30.7v-0.7H98.3z M89.4,20.8L51.2,52.3h2.7l38.2-31.4H89.4z M80.5,20.8L48.4,47.3v2.2
			l34.9-28.7H80.5z M71.6,20.8L48.4,40v2.3l26-21.4H71.6z M62.8,20.8L48.4,32.7V35l17.2-14.1H62.8z M54,20.8l-5.6,4.6v2.2l8.3-6.8
			H54z M48.4,20.8V24l3.9-3.2H48.4z M58.4,20.8l-10,8.2v2.2l12.7-10.5H58.4z M67.2,20.8L48.4,36.4v2.3L70,20.8H67.2z M76.1,20.8
			L48.4,43.6v2.3l30.4-25.1H76.1z M85,20.8L48.4,51v1.3h1.1l38.2-31.4H85z M93.8,20.8L55.6,52.3h2.7l38.2-31.4H93.8z M64.5,52.3h2.7
			l32.9-27.1v-2.2L64.5,52.3z M73.3,52.3H76l24.1-19.8v-2.3L73.3,52.3z M82.2,52.3h2.7l15.2-12.5v-2.2L82.2,52.3z M91,52.3h2.7
			l6.4-5.2v-2.3L91,52.3z M95.5,52.3h4.7v-3.8L95.5,52.3z M86.6,52.3h2.7l10.8-8.9v-2.3L86.6,52.3z M77.8,52.3h2.7l19.7-16.2v-2.2
			L77.8,52.3z M68.9,52.3h2.7l28.5-23.5v-2.2L68.9,52.3z M98.3,20.8L60,52.3h2.7l37.4-30.7v-0.7H98.3z M89.4,20.8L51.2,52.3h2.7
			l38.2-31.4H89.4z M80.5,20.8L48.4,47.3v2.2l34.9-28.7H80.5z M71.6,20.8L48.4,40v2.3l26-21.4H71.6z M62.8,20.8L48.4,32.7V35
			l17.2-14.1H62.8z M54,20.8l-5.6,4.6v2.2l8.3-6.8H54z M101.6,70.8c0-0.1-0.1-0.2-0.3-0.3c-0.1,0-0.1,0-0.2,0H77.8
			c-0.1,0-0.3,0.1-0.4,0.2c-0.1,0-0.1,0.1-0.1,0.2c0,0.1,0,0.1,0,0.2c0,0.3,0.2,0.6,0.5,0.6h23.4c0.1,0,0.3-0.1,0.4-0.2
			c0.1-0.1,0.2-0.2,0.2-0.4C101.6,70.9,101.6,70.8,101.6,70.8z M101.5,73.8c-0.1-0.1-0.2-0.2-0.4-0.2H77.7c-0.1,0-0.1,0-0.2,0
			c0,0-0.1,0-0.1,0.1l0,0c0,0,0,0,0,0.1c-0.1,0.1-0.1,0.2-0.1,0.3c0,0.3,0.2,0.6,0.5,0.6h23.4c0.1,0,0.3-0.1,0.4-0.2
			c0.1-0.1,0.2-0.2,0.2-0.4C101.6,74,101.6,73.9,101.5,73.8z M101.6,77.1c0-0.1-0.1-0.1-0.1-0.2c-0.1-0.1-0.2-0.2-0.4-0.2H77.7
			c-0.3,0-0.5,0.2-0.5,0.6c0,0.1,0.1,0.3,0.1,0.4c0.1,0.1,0.2,0.2,0.4,0.2h23.4c0.1,0,0.3-0.1,0.3-0.2c0.1-0.1,0.2-0.2,0.2-0.4
			C101.6,77.3,101.6,77.2,101.6,77.1z M101.5,80.1c-0.1-0.1-0.2-0.2-0.4-0.2H77.7c-0.3,0-0.5,0.3-0.5,0.6c0,0.3,0.2,0.6,0.5,0.6
			h23.4c0.1,0,0.3-0.1,0.4-0.2c0.1-0.1,0.2-0.2,0.2-0.4S101.6,80.2,101.5,80.1z M101.6,83.5C101.6,83.4,101.6,83.4,101.6,83.5
			c-0.1-0.1-0.1-0.2-0.1-0.2c-0.1-0.1-0.2-0.2-0.4-0.2H77.7c-0.3,0-0.5,0.2-0.5,0.6c0,0.2,0.1,0.3,0.1,0.4c0.1,0.1,0.2,0.2,0.4,0.2
			h23.4c0.1,0,0.3-0.1,0.3-0.2c0.1-0.1,0.2-0.2,0.2-0.4C101.6,83.6,101.6,83.5,101.6,83.5z M101.5,86.5c0,0-0.1-0.1-0.2-0.1
			c-0.1,0-0.1,0-0.2,0H77.8c-0.1,0-0.3,0.1-0.4,0.2c0,0,0,0,0,0.1c-0.1,0.1-0.1,0.2-0.1,0.3c0,0.1,0.1,0.3,0.1,0.4
			c0,0,0.1,0.1,0.2,0.1c0.1,0,0.1,0,0.2,0h23.4c0.1,0,0.1,0,0.2,0c0.2-0.1,0.3-0.3,0.3-0.5C101.6,86.7,101.6,86.6,101.5,86.5z
			 M101.5,89.7c-0.1-0.1-0.2-0.2-0.4-0.2H77.7c-0.3,0-0.5,0.3-0.5,0.6c0,0.2,0.1,0.3,0.1,0.4c0.1,0.1,0.2,0.2,0.4,0.2h23.4
			c0.1,0,0.3-0.1,0.3-0.2c0.1-0.1,0.2-0.2,0.2-0.4C101.6,89.9,101.6,89.8,101.5,89.7z M97.3,96.1v0.7l0.8-0.7H97.3z M47.3,73.6
			c-0.2,0-0.4,0.2-0.5,0.4L47.3,73.6L47.3,73.6z M47.3,83.1c-0.2,0-0.4,0.2-0.5,0.4L47.3,83.1L47.3,83.1z M47.3,83.1
			c-0.2,0-0.4,0.2-0.5,0.4L47.3,83.1L47.3,83.1z M47.3,73.6c-0.2,0-0.4,0.2-0.5,0.4L47.3,73.6L47.3,73.6z M101.5,89.7
			c-0.1-0.1-0.2-0.2-0.4-0.2H77.7c-0.3,0-0.5,0.3-0.5,0.6c0,0.2,0.1,0.3,0.1,0.4c0.1,0.1,0.2,0.2,0.4,0.2h23.4
			c0.1,0,0.3-0.1,0.3-0.2c0.1-0.1,0.2-0.2,0.2-0.4C101.6,89.9,101.6,89.8,101.5,89.7z M101.5,86.5c0,0-0.1-0.1-0.2-0.1
			c-0.1,0-0.1,0-0.2,0H77.8c-0.1,0-0.3,0.1-0.4,0.2c0,0,0,0,0,0.1c-0.1,0.1-0.1,0.2-0.1,0.3c0,0.1,0.1,0.3,0.1,0.4
			c0,0,0.1,0.1,0.2,0.1c0.1,0,0.1,0,0.2,0h23.4c0.1,0,0.1,0,0.2,0c0.2-0.1,0.3-0.3,0.3-0.5C101.6,86.7,101.6,86.6,101.5,86.5z
			 M101.6,83.5C101.6,83.4,101.6,83.4,101.6,83.5c-0.1-0.1-0.1-0.2-0.1-0.2c-0.1-0.1-0.2-0.2-0.4-0.2H77.7c-0.3,0-0.5,0.2-0.5,0.6
			c0,0.2,0.1,0.3,0.1,0.4c0.1,0.1,0.2,0.2,0.4,0.2h23.4c0.1,0,0.3-0.1,0.3-0.2c0.1-0.1,0.2-0.2,0.2-0.4
			C101.6,83.6,101.6,83.5,101.6,83.5z M101.5,80.1c-0.1-0.1-0.2-0.2-0.4-0.2H77.7c-0.3,0-0.5,0.3-0.5,0.6c0,0.3,0.2,0.6,0.5,0.6
			h23.4c0.1,0,0.3-0.1,0.4-0.2c0.1-0.1,0.2-0.2,0.2-0.4S101.6,80.2,101.5,80.1z M101.6,77.1c0-0.1-0.1-0.1-0.1-0.2
			c-0.1-0.1-0.2-0.2-0.4-0.2H77.7c-0.3,0-0.5,0.2-0.5,0.6c0,0.1,0.1,0.3,0.1,0.4c0.1,0.1,0.2,0.2,0.4,0.2h23.4
			c0.1,0,0.3-0.1,0.3-0.2c0.1-0.1,0.2-0.2,0.2-0.4C101.6,77.3,101.6,77.2,101.6,77.1z M101.5,73.8c-0.1-0.1-0.2-0.2-0.4-0.2H77.7
			c-0.1,0-0.1,0-0.2,0c0,0-0.1,0-0.1,0.1l0,0c0,0,0,0,0,0.1c-0.1,0.1-0.1,0.2-0.1,0.3c0,0.3,0.2,0.6,0.5,0.6h23.4
			c0.1,0,0.3-0.1,0.4-0.2c0.1-0.1,0.2-0.2,0.2-0.4C101.6,74,101.6,73.9,101.5,73.8z M101.6,70.8c0-0.1-0.1-0.2-0.3-0.3
			c-0.1,0-0.1,0-0.2,0H77.8c-0.1,0-0.3,0.1-0.4,0.2c-0.1,0-0.1,0.1-0.1,0.2c0,0.1,0,0.1,0,0.2c0,0.3,0.2,0.6,0.5,0.6h23.4
			c0.1,0,0.3-0.1,0.4-0.2c0.1-0.1,0.2-0.2,0.2-0.4C101.6,70.9,101.6,70.8,101.6,70.8z M48.4,20.8V24l3.9-3.2H48.4z M58.4,20.8
			l-10,8.2v2.2l12.7-10.5H58.4z M67.2,20.8L48.4,36.4v2.3L70,20.8H67.2z M76.1,20.8L48.4,43.6v2.3l30.4-25.1H76.1z M85,20.8L48.4,51
			v1.3h1.1l38.2-31.4H85z M93.8,20.8L55.6,52.3h2.7l38.2-31.4H93.8z M64.5,52.3h2.7l32.9-27.1v-2.2L64.5,52.3z M73.3,52.3H76
			l24.1-19.8v-2.3L73.3,52.3z M82.2,52.3h2.7l15.2-12.5v-2.2L82.2,52.3z M91,52.3h2.7l6.4-5.2v-2.3L91,52.3z M95.5,52.3h4.7v-3.8
			L95.5,52.3z M86.6,52.3h2.7l10.8-8.9v-2.3L86.6,52.3z M77.8,52.3h2.7l19.7-16.2v-2.2L77.8,52.3z M68.9,52.3h2.7l28.5-23.5v-2.2
			L68.9,52.3z M98.3,20.8L60,52.3h2.7l37.4-30.7v-0.7H98.3z M89.4,20.8L51.2,52.3h2.7l38.2-31.4H89.4z M80.5,20.8L48.4,47.3v2.2
			l34.9-28.7H80.5z M71.6,20.8L48.4,40v2.3l26-21.4H71.6z M62.8,20.8L48.4,32.7V35l17.2-14.1H62.8z M54,20.8l-5.6,4.6v2.2l8.3-6.8
			H54z M48.4,20.8V24l3.9-3.2H48.4z M58.4,20.8l-10,8.2v2.2l12.7-10.5H58.4z M67.2,20.8L48.4,36.4v2.3L70,20.8H67.2z M76.1,20.8
			L48.4,43.6v2.3l30.4-25.1H76.1z M85,20.8L48.4,51v1.3h1.1l38.2-31.4H85z M93.8,20.8L55.6,52.3h2.7l38.2-31.4H93.8z M64.5,52.3h2.7
			l32.9-27.1v-2.2L64.5,52.3z M73.3,52.3H76l24.1-19.8v-2.3L73.3,52.3z M82.2,52.3h2.7l15.2-12.5v-2.2L82.2,52.3z M91,52.3h2.7
			l6.4-5.2v-2.3L91,52.3z M95.5,52.3h4.7v-3.8L95.5,52.3z M86.6,52.3h2.7l10.8-8.9v-2.3L86.6,52.3z M77.8,52.3h2.7l19.7-16.2v-2.2
			L77.8,52.3z M68.9,52.3h2.7l28.5-23.5v-2.2L68.9,52.3z M98.3,20.8L60,52.3h2.7l37.4-30.7v-0.7H98.3z M89.4,20.8L51.2,52.3h2.7
			l38.2-31.4H89.4z M80.5,20.8L48.4,47.3v2.2l34.9-28.7H80.5z M71.6,20.8L48.4,40v2.3l26-21.4H71.6z M62.8,20.8L48.4,32.7V35
			l17.2-14.1H62.8z M54,20.8l-5.6,4.6v2.2l8.3-6.8H54z M101.6,70.8c0-0.1-0.1-0.2-0.3-0.3c-0.1,0-0.1,0-0.2,0H77.8
			c-0.1,0-0.3,0.1-0.4,0.2c-0.1,0-0.1,0.1-0.1,0.2c0,0.1,0,0.1,0,0.2c0,0.3,0.2,0.6,0.5,0.6h23.4c0.1,0,0.3-0.1,0.4-0.2
			c0.1-0.1,0.2-0.2,0.2-0.4C101.6,70.9,101.6,70.8,101.6,70.8z M101.5,73.8c-0.1-0.1-0.2-0.2-0.4-0.2H77.7c-0.1,0-0.1,0-0.2,0
			c0,0-0.1,0-0.1,0.1l0,0c0,0,0,0,0,0.1c-0.1,0.1-0.1,0.2-0.1,0.3c0,0.3,0.2,0.6,0.5,0.6h23.4c0.1,0,0.3-0.1,0.4-0.2
			c0.1-0.1,0.2-0.2,0.2-0.4C101.6,74,101.6,73.9,101.5,73.8z M101.6,77.1c0-0.1-0.1-0.1-0.1-0.2c-0.1-0.1-0.2-0.2-0.4-0.2H77.7
			c-0.3,0-0.5,0.2-0.5,0.6c0,0.1,0.1,0.3,0.1,0.4c0.1,0.1,0.2,0.2,0.4,0.2h23.4c0.1,0,0.3-0.1,0.3-0.2c0.1-0.1,0.2-0.2,0.2-0.4
			C101.6,77.3,101.6,77.2,101.6,77.1z M101.5,80.1c-0.1-0.1-0.2-0.2-0.4-0.2H77.7c-0.3,0-0.5,0.3-0.5,0.6c0,0.3,0.2,0.6,0.5,0.6
			h23.4c0.1,0,0.3-0.1,0.4-0.2c0.1-0.1,0.2-0.2,0.2-0.4S101.6,80.2,101.5,80.1z M101.6,83.5C101.6,83.4,101.6,83.4,101.6,83.5
			c-0.1-0.1-0.1-0.2-0.1-0.2c-0.1-0.1-0.2-0.2-0.4-0.2H77.7c-0.3,0-0.5,0.2-0.5,0.6c0,0.2,0.1,0.3,0.1,0.4c0.1,0.1,0.2,0.2,0.4,0.2
			h23.4c0.1,0,0.3-0.1,0.3-0.2c0.1-0.1,0.2-0.2,0.2-0.4C101.6,83.6,101.6,83.5,101.6,83.5z M101.5,86.5c0,0-0.1-0.1-0.2-0.1
			c-0.1,0-0.1,0-0.2,0H77.8c-0.1,0-0.3,0.1-0.4,0.2c0,0,0,0,0,0.1c-0.1,0.1-0.1,0.2-0.1,0.3c0,0.1,0.1,0.3,0.1,0.4
			c0,0,0.1,0.1,0.2,0.1c0.1,0,0.1,0,0.2,0h23.4c0.1,0,0.1,0,0.2,0c0.2-0.1,0.3-0.3,0.3-0.5C101.6,86.7,101.6,86.6,101.5,86.5z
			 M101.5,89.7c-0.1-0.1-0.2-0.2-0.4-0.2H77.7c-0.3,0-0.5,0.3-0.5,0.6c0,0.2,0.1,0.3,0.1,0.4c0.1,0.1,0.2,0.2,0.4,0.2h23.4
			c0.1,0,0.3-0.1,0.3-0.2c0.1-0.1,0.2-0.2,0.2-0.4C101.6,89.9,101.6,89.8,101.5,89.7z M97.3,96.1v0.7l0.8-0.7H97.3z M47.3,73.6
			c-0.2,0-0.4,0.2-0.5,0.4L47.3,73.6L47.3,73.6z M47.3,83.1c-0.2,0-0.4,0.2-0.5,0.4L47.3,83.1L47.3,83.1z M99.8,96.1l-2.5,2v2.3
			l5.2-4.3H99.8z M104.2,96.1l-6.9,5.7v2.8l9.1-8.4H104.2z M97.3,96.1v0.7l0.8-0.7H97.3z M101.6,70.8c0-0.1-0.1-0.2-0.3-0.3
			c-0.1,0-0.1,0-0.2,0H77.8c-0.1,0-0.3,0.1-0.4,0.2c-0.1,0-0.1,0.1-0.1,0.2c0,0.1,0,0.1,0,0.2c0,0.3,0.2,0.6,0.5,0.6h23.4
			c0.1,0,0.3-0.1,0.4-0.2c0.1-0.1,0.2-0.2,0.2-0.4C101.6,70.9,101.6,70.8,101.6,70.8z M101.5,73.8c-0.1-0.1-0.2-0.2-0.4-0.2H77.7
			c-0.1,0-0.1,0-0.2,0c0,0-0.1,0-0.1,0.1l0,0c0,0,0,0,0,0.1c-0.1,0.1-0.1,0.2-0.1,0.3c0,0.3,0.2,0.6,0.5,0.6h23.4
			c0.1,0,0.3-0.1,0.4-0.2c0.1-0.1,0.2-0.2,0.2-0.4C101.6,74,101.6,73.9,101.5,73.8z M101.6,77.1c0-0.1-0.1-0.1-0.1-0.2
			c-0.1-0.1-0.2-0.2-0.4-0.2H77.7c-0.3,0-0.5,0.2-0.5,0.6c0,0.1,0.1,0.3,0.1,0.4c0.1,0.1,0.2,0.2,0.4,0.2h23.4
			c0.1,0,0.3-0.1,0.3-0.2c0.1-0.1,0.2-0.2,0.2-0.4C101.6,77.3,101.6,77.2,101.6,77.1z M101.5,80.1c-0.1-0.1-0.2-0.2-0.4-0.2H77.7
			c-0.3,0-0.5,0.3-0.5,0.6c0,0.3,0.2,0.6,0.5,0.6h23.4c0.1,0,0.3-0.1,0.4-0.2c0.1-0.1,0.2-0.2,0.2-0.4S101.6,80.2,101.5,80.1z
			 M101.6,83.5C101.6,83.4,101.6,83.4,101.6,83.5c-0.1-0.1-0.1-0.2-0.1-0.2c-0.1-0.1-0.2-0.2-0.4-0.2H77.7c-0.3,0-0.5,0.2-0.5,0.6
			c0,0.2,0.1,0.3,0.1,0.4c0.1,0.1,0.2,0.2,0.4,0.2h23.4c0.1,0,0.3-0.1,0.3-0.2c0.1-0.1,0.2-0.2,0.2-0.4
			C101.6,83.6,101.6,83.5,101.6,83.5z M101.5,86.5c0,0-0.1-0.1-0.2-0.1c-0.1,0-0.1,0-0.2,0H77.8c-0.1,0-0.3,0.1-0.4,0.2
			c0,0,0,0,0,0.1c-0.1,0.1-0.1,0.2-0.1,0.3c0,0.1,0.1,0.3,0.1,0.4c0,0,0.1,0.1,0.2,0.1c0.1,0,0.1,0,0.2,0h23.4c0.1,0,0.1,0,0.2,0
			c0.2-0.1,0.3-0.3,0.3-0.5C101.6,86.7,101.6,86.6,101.5,86.5z M101.5,89.7c-0.1-0.1-0.2-0.2-0.4-0.2H77.7c-0.3,0-0.5,0.3-0.5,0.6
			c0,0.2,0.1,0.3,0.1,0.4c0.1,0.1,0.2,0.2,0.4,0.2h23.4c0.1,0,0.3-0.1,0.3-0.2c0.1-0.1,0.2-0.2,0.2-0.4
			C101.6,89.9,101.6,89.8,101.5,89.7z M47.3,73.6c-0.2,0-0.4,0.2-0.5,0.4L47.3,73.6L47.3,73.6z M47.3,83.1c-0.2,0-0.4,0.2-0.5,0.4
			L47.3,83.1L47.3,83.1z M48.4,20.8V24l3.9-3.2H48.4z M58.4,20.8l-10,8.2v2.2l12.7-10.5H58.4z M67.2,20.8L48.4,36.4v2.3L70,20.8
			H67.2z M76.1,20.8L48.4,43.6v2.3l30.4-25.1H76.1z M85,20.8L48.4,51v1.3h1.1l38.2-31.4H85z M93.8,20.8L55.6,52.3h2.7l38.2-31.4
			H93.8z M64.5,52.3h2.7l32.9-27.1v-2.2L64.5,52.3z M73.3,52.3H76l24.1-19.8v-2.3L73.3,52.3z M82.2,52.3h2.7l15.2-12.5v-2.2
			L82.2,52.3z M91,52.3h2.7l6.4-5.2v-2.3L91,52.3z M95.5,52.3h4.7v-3.8L95.5,52.3z M86.6,52.3h2.7l10.8-8.9v-2.3L86.6,52.3z
			 M77.8,52.3h2.7l19.7-16.2v-2.2L77.8,52.3z M68.9,52.3h2.7l28.5-23.5v-2.2L68.9,52.3z M98.3,20.8L60,52.3h2.7l37.4-30.7v-0.7H98.3
			z M89.4,20.8L51.2,52.3h2.7l38.2-31.4H89.4z M80.5,20.8L48.4,47.3v2.2l34.9-28.7H80.5z M71.6,20.8L48.4,40v2.3l26-21.4H71.6z
			 M62.8,20.8L48.4,32.7V35l17.2-14.1H62.8z M54,20.8l-5.6,4.6v2.2l8.3-6.8H54z M47.3,83.1c-0.2,0-0.4,0.2-0.5,0.4L47.3,83.1
			L47.3,83.1z M47.3,73.6c-0.2,0-0.4,0.2-0.5,0.4L47.3,73.6L47.3,73.6z M97.3,96.1v0.7l0.8-0.7H97.3z M101.5,89.7
			c-0.1-0.1-0.2-0.2-0.4-0.2H77.7c-0.3,0-0.5,0.3-0.5,0.6c0,0.2,0.1,0.3,0.1,0.4c0.1,0.1,0.2,0.2,0.4,0.2h23.4
			c0.1,0,0.3-0.1,0.3-0.2c0.1-0.1,0.2-0.2,0.2-0.4C101.6,89.9,101.6,89.8,101.5,89.7z M101.5,86.5c0,0-0.1-0.1-0.2-0.1
			c-0.1,0-0.1,0-0.2,0H77.8c-0.1,0-0.3,0.1-0.4,0.2c0,0,0,0,0,0.1c-0.1,0.1-0.1,0.2-0.1,0.3c0,0.1,0.1,0.3,0.1,0.4
			c0,0,0.1,0.1,0.2,0.1c0.1,0,0.1,0,0.2,0h23.4c0.1,0,0.1,0,0.2,0c0.2-0.1,0.3-0.3,0.3-0.5C101.6,86.7,101.6,86.6,101.5,86.5z
			 M101.6,83.5C101.6,83.4,101.6,83.4,101.6,83.5c-0.1-0.1-0.1-0.2-0.1-0.2c-0.1-0.1-0.2-0.2-0.4-0.2H77.7c-0.3,0-0.5,0.2-0.5,0.6
			c0,0.2,0.1,0.3,0.1,0.4c0.1,0.1,0.2,0.2,0.4,0.2h23.4c0.1,0,0.3-0.1,0.3-0.2c0.1-0.1,0.2-0.2,0.2-0.4
			C101.6,83.6,101.6,83.5,101.6,83.5z M101.5,80.1c-0.1-0.1-0.2-0.2-0.4-0.2H77.7c-0.3,0-0.5,0.3-0.5,0.6c0,0.3,0.2,0.6,0.5,0.6
			h23.4c0.1,0,0.3-0.1,0.4-0.2c0.1-0.1,0.2-0.2,0.2-0.4S101.6,80.2,101.5,80.1z M101.6,77.1c0-0.1-0.1-0.1-0.1-0.2
			c-0.1-0.1-0.2-0.2-0.4-0.2H77.7c-0.3,0-0.5,0.2-0.5,0.6c0,0.1,0.1,0.3,0.1,0.4c0.1,0.1,0.2,0.2,0.4,0.2h23.4
			c0.1,0,0.3-0.1,0.3-0.2c0.1-0.1,0.2-0.2,0.2-0.4C101.6,77.3,101.6,77.2,101.6,77.1z M101.5,73.8c-0.1-0.1-0.2-0.2-0.4-0.2H77.7
			c-0.1,0-0.1,0-0.2,0c0,0-0.1,0-0.1,0.1l0,0c0,0,0,0,0,0.1c-0.1,0.1-0.1,0.2-0.1,0.3c0,0.3,0.2,0.6,0.5,0.6h23.4
			c0.1,0,0.3-0.1,0.4-0.2c0.1-0.1,0.2-0.2,0.2-0.4C101.6,74,101.6,73.9,101.5,73.8z M101.6,70.8c0-0.1-0.1-0.2-0.3-0.3
			c-0.1,0-0.1,0-0.2,0H77.8c-0.1,0-0.3,0.1-0.4,0.2c-0.1,0-0.1,0.1-0.1,0.2c0,0.1,0,0.1,0,0.2c0,0.3,0.2,0.6,0.5,0.6h23.4
			c0.1,0,0.3-0.1,0.4-0.2c0.1-0.1,0.2-0.2,0.2-0.4C101.6,70.9,101.6,70.8,101.6,70.8z M48.4,20.8V24l3.9-3.2H48.4z M58.4,20.8
			l-10,8.2v2.2l12.7-10.5H58.4z M67.2,20.8L48.4,36.4v2.3L70,20.8H67.2z M76.1,20.8L48.4,43.6v2.3l30.4-25.1H76.1z M85,20.8L48.4,51
			v1.3h1.1l38.2-31.4H85z M93.8,20.8L55.6,52.3h2.7l38.2-31.4H93.8z M64.5,52.3h2.7l32.9-27.1v-2.2L64.5,52.3z M73.3,52.3H76
			l24.1-19.8v-2.3L73.3,52.3z M82.2,52.3h2.7l15.2-12.5v-2.2L82.2,52.3z M91,52.3h2.7l6.4-5.2v-2.3L91,52.3z M95.5,52.3h4.7v-3.8
			L95.5,52.3z M86.6,52.3h2.7l10.8-8.9v-2.3L86.6,52.3z M77.8,52.3h2.7l19.7-16.2v-2.2L77.8,52.3z M68.9,52.3h2.7l28.5-23.5v-2.2
			L68.9,52.3z M98.3,20.8L60,52.3h2.7l37.4-30.7v-0.7H98.3z M89.4,20.8L51.2,52.3h2.7l38.2-31.4H89.4z M80.5,20.8L48.4,47.3v2.2
			l34.9-28.7H80.5z M71.6,20.8L48.4,40v2.3l26-21.4H71.6z M62.8,20.8L48.4,32.7V35l17.2-14.1H62.8z M54,20.8l-5.6,4.6v2.2l8.3-6.8
			H54z M48.4,20.8V24l3.9-3.2H48.4z M58.4,20.8l-10,8.2v2.2l12.7-10.5H58.4z M67.2,20.8L48.4,36.4v2.3L70,20.8H67.2z M76.1,20.8
			L48.4,43.6v2.3l30.4-25.1H76.1z M85,20.8L48.4,51v1.3h1.1l38.2-31.4H85z M93.8,20.8L55.6,52.3h2.7l38.2-31.4H93.8z M64.5,52.3h2.7
			l32.9-27.1v-2.2L64.5,52.3z M73.3,52.3H76l24.1-19.8v-2.3L73.3,52.3z M82.2,52.3h2.7l15.2-12.5v-2.2L82.2,52.3z M91,52.3h2.7
			l6.4-5.2v-2.3L91,52.3z M95.5,52.3h4.7v-3.8L95.5,52.3z M86.6,52.3h2.7l10.8-8.9v-2.3L86.6,52.3z M77.8,52.3h2.7l19.7-16.2v-2.2
			L77.8,52.3z M68.9,52.3h2.7l28.5-23.5v-2.2L68.9,52.3z M98.3,20.8L60,52.3h2.7l37.4-30.7v-0.7H98.3z M89.4,20.8L51.2,52.3h2.7
			l38.2-31.4H89.4z M80.5,20.8L48.4,47.3v2.2l34.9-28.7H80.5z M71.6,20.8L48.4,40v2.3l26-21.4H71.6z M62.8,20.8L48.4,32.7V35
			l17.2-14.1H62.8z M54,20.8l-5.6,4.6v2.2l8.3-6.8H54z M101.6,70.8c0-0.1-0.1-0.2-0.3-0.3c-0.1,0-0.1,0-0.2,0H77.8
			c-0.1,0-0.3,0.1-0.4,0.2c-0.1,0-0.1,0.1-0.1,0.2c0,0.1,0,0.1,0,0.2c0,0.3,0.2,0.6,0.5,0.6h23.4c0.1,0,0.3-0.1,0.4-0.2
			c0.1-0.1,0.2-0.2,0.2-0.4C101.6,70.9,101.6,70.8,101.6,70.8z M101.5,73.8c-0.1-0.1-0.2-0.2-0.4-0.2H77.7c-0.1,0-0.1,0-0.2,0
			c0,0-0.1,0-0.1,0.1l0,0c0,0,0,0,0,0.1c-0.1,0.1-0.1,0.2-0.1,0.3c0,0.3,0.2,0.6,0.5,0.6h23.4c0.1,0,0.3-0.1,0.4-0.2
			c0.1-0.1,0.2-0.2,0.2-0.4C101.6,74,101.6,73.9,101.5,73.8z M101.6,77.1c0-0.1-0.1-0.1-0.1-0.2c-0.1-0.1-0.2-0.2-0.4-0.2H77.7
			c-0.3,0-0.5,0.2-0.5,0.6c0,0.1,0.1,0.3,0.1,0.4c0.1,0.1,0.2,0.2,0.4,0.2h23.4c0.1,0,0.3-0.1,0.3-0.2c0.1-0.1,0.2-0.2,0.2-0.4
			C101.6,77.3,101.6,77.2,101.6,77.1z M101.5,80.1c-0.1-0.1-0.2-0.2-0.4-0.2H77.7c-0.3,0-0.5,0.3-0.5,0.6c0,0.3,0.2,0.6,0.5,0.6
			h23.4c0.1,0,0.3-0.1,0.4-0.2c0.1-0.1,0.2-0.2,0.2-0.4S101.6,80.2,101.5,80.1z M101.6,83.5C101.6,83.4,101.6,83.4,101.6,83.5
			c-0.1-0.1-0.1-0.2-0.1-0.2c-0.1-0.1-0.2-0.2-0.4-0.2H77.7c-0.3,0-0.5,0.2-0.5,0.6c0,0.2,0.1,0.3,0.1,0.4c0.1,0.1,0.2,0.2,0.4,0.2
			h23.4c0.1,0,0.3-0.1,0.3-0.2c0.1-0.1,0.2-0.2,0.2-0.4C101.6,83.6,101.6,83.5,101.6,83.5z M101.5,86.5c0,0-0.1-0.1-0.2-0.1
			c-0.1,0-0.1,0-0.2,0H77.8c-0.1,0-0.3,0.1-0.4,0.2c0,0,0,0,0,0.1c-0.1,0.1-0.1,0.2-0.1,0.3c0,0.1,0.1,0.3,0.1,0.4
			c0,0,0.1,0.1,0.2,0.1c0.1,0,0.1,0,0.2,0h23.4c0.1,0,0.1,0,0.2,0c0.2-0.1,0.3-0.3,0.3-0.5C101.6,86.7,101.6,86.6,101.5,86.5z
			 M101.5,89.7c-0.1-0.1-0.2-0.2-0.4-0.2H77.7c-0.3,0-0.5,0.3-0.5,0.6c0,0.2,0.1,0.3,0.1,0.4c0.1,0.1,0.2,0.2,0.4,0.2h23.4
			c0.1,0,0.3-0.1,0.3-0.2c0.1-0.1,0.2-0.2,0.2-0.4C101.6,89.9,101.6,89.8,101.5,89.7z M47.3,73.6c-0.2,0-0.4,0.2-0.5,0.4L47.3,73.6
			L47.3,73.6z M47.3,83.1c-0.2,0-0.4,0.2-0.5,0.4L47.3,83.1L47.3,83.1z M47.3,83.1c-0.2,0-0.4,0.2-0.5,0.4L47.3,83.1L47.3,83.1z
			 M47.3,73.6c-0.2,0-0.4,0.2-0.5,0.4L47.3,73.6L47.3,73.6z M97.3,96.1v0.7l0.8-0.7H97.3z M101.5,89.7c-0.1-0.1-0.2-0.2-0.4-0.2
			H77.7c-0.3,0-0.5,0.3-0.5,0.6c0,0.2,0.1,0.3,0.1,0.4c0.1,0.1,0.2,0.2,0.4,0.2h23.4c0.1,0,0.3-0.1,0.3-0.2c0.1-0.1,0.2-0.2,0.2-0.4
			C101.6,89.9,101.6,89.8,101.5,89.7z M101.5,86.5c0,0-0.1-0.1-0.2-0.1c-0.1,0-0.1,0-0.2,0H77.8c-0.1,0-0.3,0.1-0.4,0.2
			c0,0,0,0,0,0.1c-0.1,0.1-0.1,0.2-0.1,0.3c0,0.1,0.1,0.3,0.1,0.4c0,0,0.1,0.1,0.2,0.1c0.1,0,0.1,0,0.2,0h23.4c0.1,0,0.1,0,0.2,0
			c0.2-0.1,0.3-0.3,0.3-0.5C101.6,86.7,101.6,86.6,101.5,86.5z M101.6,83.5C101.6,83.4,101.6,83.4,101.6,83.5
			c-0.1-0.1-0.1-0.2-0.1-0.2c-0.1-0.1-0.2-0.2-0.4-0.2H77.7c-0.3,0-0.5,0.2-0.5,0.6c0,0.2,0.1,0.3,0.1,0.4c0.1,0.1,0.2,0.2,0.4,0.2
			h23.4c0.1,0,0.3-0.1,0.3-0.2c0.1-0.1,0.2-0.2,0.2-0.4C101.6,83.6,101.6,83.5,101.6,83.5z M101.5,80.1c-0.1-0.1-0.2-0.2-0.4-0.2
			H77.7c-0.3,0-0.5,0.3-0.5,0.6c0,0.3,0.2,0.6,0.5,0.6h23.4c0.1,0,0.3-0.1,0.4-0.2c0.1-0.1,0.2-0.2,0.2-0.4S101.6,80.2,101.5,80.1z
			 M101.6,77.1c0-0.1-0.1-0.1-0.1-0.2c-0.1-0.1-0.2-0.2-0.4-0.2H77.7c-0.3,0-0.5,0.2-0.5,0.6c0,0.1,0.1,0.3,0.1,0.4
			c0.1,0.1,0.2,0.2,0.4,0.2h23.4c0.1,0,0.3-0.1,0.3-0.2c0.1-0.1,0.2-0.2,0.2-0.4C101.6,77.3,101.6,77.2,101.6,77.1z M101.5,73.8
			c-0.1-0.1-0.2-0.2-0.4-0.2H77.7c-0.1,0-0.1,0-0.2,0c0,0-0.1,0-0.1,0.1l0,0c0,0,0,0,0,0.1c-0.1,0.1-0.1,0.2-0.1,0.3
			c0,0.3,0.2,0.6,0.5,0.6h23.4c0.1,0,0.3-0.1,0.4-0.2c0.1-0.1,0.2-0.2,0.2-0.4C101.6,74,101.6,73.9,101.5,73.8z M101.6,70.8
			c0-0.1-0.1-0.2-0.3-0.3c-0.1,0-0.1,0-0.2,0H77.8c-0.1,0-0.3,0.1-0.4,0.2c-0.1,0-0.1,0.1-0.1,0.2c0,0.1,0,0.1,0,0.2
			c0,0.3,0.2,0.6,0.5,0.6h23.4c0.1,0,0.3-0.1,0.4-0.2c0.1-0.1,0.2-0.2,0.2-0.4C101.6,70.9,101.6,70.8,101.6,70.8z M48.4,20.8V24
			l3.9-3.2H48.4z M58.4,20.8l-10,8.2v2.2l12.7-10.5H58.4z M67.2,20.8L48.4,36.4v2.3L70,20.8H67.2z M76.1,20.8L48.4,43.6v2.3
			l30.4-25.1H76.1z M85,20.8L48.4,51v1.3h1.1l38.2-31.4H85z M93.8,20.8L55.6,52.3h2.7l38.2-31.4H93.8z M64.5,52.3h2.7l32.9-27.1
			v-2.2L64.5,52.3z M73.3,52.3H76l24.1-19.8v-2.3L73.3,52.3z M82.2,52.3h2.7l15.2-12.5v-2.2L82.2,52.3z M91,52.3h2.7l6.4-5.2v-2.3
			L91,52.3z M95.5,52.3h4.7v-3.8L95.5,52.3z M86.6,52.3h2.7l10.8-8.9v-2.3L86.6,52.3z M77.8,52.3h2.7l19.7-16.2v-2.2L77.8,52.3z
			 M68.9,52.3h2.7l28.5-23.5v-2.2L68.9,52.3z M98.3,20.8L60,52.3h2.7l37.4-30.7v-0.7H98.3z M89.4,20.8L51.2,52.3h2.7l38.2-31.4H89.4
			z M80.5,20.8L48.4,47.3v2.2l34.9-28.7H80.5z M71.6,20.8L48.4,40v2.3l26-21.4H71.6z M62.8,20.8L48.4,32.7V35l17.2-14.1H62.8z
			 M54,20.8l-5.6,4.6v2.2l8.3-6.8H54z M48.4,20.8V24l3.9-3.2H48.4z M58.4,20.8l-10,8.2v2.2l12.7-10.5H58.4z M67.2,20.8L48.4,36.4
			v2.3L70,20.8H67.2z M76.1,20.8L48.4,43.6v2.3l30.4-25.1H76.1z M85,20.8L48.4,51v1.3h1.1l38.2-31.4H85z M93.8,20.8L55.6,52.3h2.7
			l38.2-31.4H93.8z M64.5,52.3h2.7l32.9-27.1v-2.2L64.5,52.3z M73.3,52.3H76l24.1-19.8v-2.3L73.3,52.3z M82.2,52.3h2.7l15.2-12.5
			v-2.2L82.2,52.3z M91,52.3h2.7l6.4-5.2v-2.3L91,52.3z M95.5,52.3h4.7v-3.8L95.5,52.3z M86.6,52.3h2.7l10.8-8.9v-2.3L86.6,52.3z
			 M77.8,52.3h2.7l19.7-16.2v-2.2L77.8,52.3z M68.9,52.3h2.7l28.5-23.5v-2.2L68.9,52.3z M98.3,20.8L60,52.3h2.7l37.4-30.7v-0.7H98.3
			z M89.4,20.8L51.2,52.3h2.7l38.2-31.4H89.4z M80.5,20.8L48.4,47.3v2.2l34.9-28.7H80.5z M71.6,20.8L48.4,40v2.3l26-21.4H71.6z
			 M62.8,20.8L48.4,32.7V35l17.2-14.1H62.8z M54,20.8l-5.6,4.6v2.2l8.3-6.8H54z M101.6,70.8c0-0.1-0.1-0.2-0.3-0.3
			c-0.1,0-0.1,0-0.2,0H77.8c-0.1,0-0.3,0.1-0.4,0.2c-0.1,0-0.1,0.1-0.1,0.2c0,0.1,0,0.1,0,0.2c0,0.3,0.2,0.6,0.5,0.6h23.4
			c0.1,0,0.3-0.1,0.4-0.2c0.1-0.1,0.2-0.2,0.2-0.4C101.6,70.9,101.6,70.8,101.6,70.8z M101.5,73.8c-0.1-0.1-0.2-0.2-0.4-0.2H77.7
			c-0.1,0-0.1,0-0.2,0c0,0-0.1,0-0.1,0.1l0,0c0,0,0,0,0,0.1c-0.1,0.1-0.1,0.2-0.1,0.3c0,0.3,0.2,0.6,0.5,0.6h23.4
			c0.1,0,0.3-0.1,0.4-0.2c0.1-0.1,0.2-0.2,0.2-0.4C101.6,74,101.6,73.9,101.5,73.8z M101.6,77.1c0-0.1-0.1-0.1-0.1-0.2
			c-0.1-0.1-0.2-0.2-0.4-0.2H77.7c-0.3,0-0.5,0.2-0.5,0.6c0,0.1,0.1,0.3,0.1,0.4c0.1,0.1,0.2,0.2,0.4,0.2h23.4
			c0.1,0,0.3-0.1,0.3-0.2c0.1-0.1,0.2-0.2,0.2-0.4C101.6,77.3,101.6,77.2,101.6,77.1z M101.5,80.1c-0.1-0.1-0.2-0.2-0.4-0.2H77.7
			c-0.3,0-0.5,0.3-0.5,0.6c0,0.3,0.2,0.6,0.5,0.6h23.4c0.1,0,0.3-0.1,0.4-0.2c0.1-0.1,0.2-0.2,0.2-0.4S101.6,80.2,101.5,80.1z
			 M101.6,83.5C101.6,83.4,101.6,83.4,101.6,83.5c-0.1-0.1-0.1-0.2-0.1-0.2c-0.1-0.1-0.2-0.2-0.4-0.2H77.7c-0.3,0-0.5,0.2-0.5,0.6
			c0,0.2,0.1,0.3,0.1,0.4c0.1,0.1,0.2,0.2,0.4,0.2h23.4c0.1,0,0.3-0.1,0.3-0.2c0.1-0.1,0.2-0.2,0.2-0.4
			C101.6,83.6,101.6,83.5,101.6,83.5z M101.5,86.5c0,0-0.1-0.1-0.2-0.1c-0.1,0-0.1,0-0.2,0H77.8c-0.1,0-0.3,0.1-0.4,0.2
			c0,0,0,0,0,0.1c-0.1,0.1-0.1,0.2-0.1,0.3c0,0.1,0.1,0.3,0.1,0.4c0,0,0.1,0.1,0.2,0.1c0.1,0,0.1,0,0.2,0h23.4c0.1,0,0.1,0,0.2,0
			c0.2-0.1,0.3-0.3,0.3-0.5C101.6,86.7,101.6,86.6,101.5,86.5z M101.5,89.7c-0.1-0.1-0.2-0.2-0.4-0.2H77.7c-0.3,0-0.5,0.3-0.5,0.6
			c0,0.2,0.1,0.3,0.1,0.4c0.1,0.1,0.2,0.2,0.4,0.2h23.4c0.1,0,0.3-0.1,0.3-0.2c0.1-0.1,0.2-0.2,0.2-0.4
			C101.6,89.9,101.6,89.8,101.5,89.7z M47.3,73.6c-0.2,0-0.4,0.2-0.5,0.4L47.3,73.6L47.3,73.6z M47.3,83.1c-0.2,0-0.4,0.2-0.5,0.4
			L47.3,83.1L47.3,83.1z M47.3,83.1c-0.2,0-0.4,0.2-0.5,0.4L47.3,83.1L47.3,83.1z M47.3,73.6c-0.2,0-0.4,0.2-0.5,0.4L47.3,73.6
			L47.3,73.6z M97.3,96.1v0.7l0.8-0.7H97.3z M101.5,89.7c-0.1-0.1-0.2-0.2-0.4-0.2H77.7c-0.3,0-0.5,0.3-0.5,0.6
			c0,0.2,0.1,0.3,0.1,0.4c0.1,0.1,0.2,0.2,0.4,0.2h23.4c0.1,0,0.3-0.1,0.3-0.2c0.1-0.1,0.2-0.2,0.2-0.4
			C101.6,89.9,101.6,89.8,101.5,89.7z M101.5,86.5c0,0-0.1-0.1-0.2-0.1c-0.1,0-0.1,0-0.2,0H77.8c-0.1,0-0.3,0.1-0.4,0.2
			c0,0,0,0,0,0.1c-0.1,0.1-0.1,0.2-0.1,0.3c0,0.1,0.1,0.3,0.1,0.4c0,0,0.1,0.1,0.2,0.1c0.1,0,0.1,0,0.2,0h23.4c0.1,0,0.1,0,0.2,0
			c0.2-0.1,0.3-0.3,0.3-0.5C101.6,86.7,101.6,86.6,101.5,86.5z M101.6,83.5C101.6,83.4,101.6,83.4,101.6,83.5
			c-0.1-0.1-0.1-0.2-0.1-0.2c-0.1-0.1-0.2-0.2-0.4-0.2H77.7c-0.3,0-0.5,0.2-0.5,0.6c0,0.2,0.1,0.3,0.1,0.4c0.1,0.1,0.2,0.2,0.4,0.2
			h23.4c0.1,0,0.3-0.1,0.3-0.2c0.1-0.1,0.2-0.2,0.2-0.4C101.6,83.6,101.6,83.5,101.6,83.5z M101.5,80.1c-0.1-0.1-0.2-0.2-0.4-0.2
			H77.7c-0.3,0-0.5,0.3-0.5,0.6c0,0.3,0.2,0.6,0.5,0.6h23.4c0.1,0,0.3-0.1,0.4-0.2c0.1-0.1,0.2-0.2,0.2-0.4S101.6,80.2,101.5,80.1z
			 M101.6,77.1c0-0.1-0.1-0.1-0.1-0.2c-0.1-0.1-0.2-0.2-0.4-0.2H77.7c-0.3,0-0.5,0.2-0.5,0.6c0,0.1,0.1,0.3,0.1,0.4
			c0.1,0.1,0.2,0.2,0.4,0.2h23.4c0.1,0,0.3-0.1,0.3-0.2c0.1-0.1,0.2-0.2,0.2-0.4C101.6,77.3,101.6,77.2,101.6,77.1z M101.5,73.8
			c-0.1-0.1-0.2-0.2-0.4-0.2H77.7c-0.1,0-0.1,0-0.2,0c0,0-0.1,0-0.1,0.1l0,0c0,0,0,0,0,0.1c-0.1,0.1-0.1,0.2-0.1,0.3
			c0,0.3,0.2,0.6,0.5,0.6h23.4c0.1,0,0.3-0.1,0.4-0.2c0.1-0.1,0.2-0.2,0.2-0.4C101.6,74,101.6,73.9,101.5,73.8z M101.6,70.8
			c0-0.1-0.1-0.2-0.3-0.3c-0.1,0-0.1,0-0.2,0H77.8c-0.1,0-0.3,0.1-0.4,0.2c-0.1,0-0.1,0.1-0.1,0.2c0,0.1,0,0.1,0,0.2
			c0,0.3,0.2,0.6,0.5,0.6h23.4c0.1,0,0.3-0.1,0.4-0.2c0.1-0.1,0.2-0.2,0.2-0.4C101.6,70.9,101.6,70.8,101.6,70.8z M48.4,20.8V24
			l3.9-3.2H48.4z M58.4,20.8l-10,8.2v2.2l12.7-10.5H58.4z M67.2,20.8L48.4,36.4v2.3L70,20.8H67.2z M76.1,20.8L48.4,43.6v2.3
			l30.4-25.1H76.1z M85,20.8L48.4,51v1.3h1.1l38.2-31.4H85z M93.8,20.8L55.6,52.3h2.7l38.2-31.4H93.8z M64.5,52.3h2.7l32.9-27.1
			v-2.2L64.5,52.3z M73.3,52.3H76l24.1-19.8v-2.3L73.3,52.3z M82.2,52.3h2.7l15.2-12.5v-2.2L82.2,52.3z M91,52.3h2.7l6.4-5.2v-2.3
			L91,52.3z M95.5,52.3h4.7v-3.8L95.5,52.3z M86.6,52.3h2.7l10.8-8.9v-2.3L86.6,52.3z M77.8,52.3h2.7l19.7-16.2v-2.2L77.8,52.3z
			 M68.9,52.3h2.7l28.5-23.5v-2.2L68.9,52.3z M98.3,20.8L60,52.3h2.7l37.4-30.7v-0.7H98.3z M89.4,20.8L51.2,52.3h2.7l38.2-31.4H89.4
			z M80.5,20.8L48.4,47.3v2.2l34.9-28.7H80.5z M71.6,20.8L48.4,40v2.3l26-21.4H71.6z M62.8,20.8L48.4,32.7V35l17.2-14.1H62.8z
			 M54,20.8l-5.6,4.6v2.2l8.3-6.8H54z M48.4,20.8V24l3.9-3.2H48.4z M58.4,20.8l-10,8.2v2.2l12.7-10.5H58.4z M67.2,20.8L48.4,36.4
			v2.3L70,20.8H67.2z M76.1,20.8L48.4,43.6v2.3l30.4-25.1H76.1z M85,20.8L48.4,51v1.3h1.1l38.2-31.4H85z M93.8,20.8L55.6,52.3h2.7
			l38.2-31.4H93.8z M64.5,52.3h2.7l32.9-27.1v-2.2L64.5,52.3z M73.3,52.3H76l24.1-19.8v-2.3L73.3,52.3z M82.2,52.3h2.7l15.2-12.5
			v-2.2L82.2,52.3z M91,52.3h2.7l6.4-5.2v-2.3L91,52.3z M95.5,52.3h4.7v-3.8L95.5,52.3z M86.6,52.3h2.7l10.8-8.9v-2.3L86.6,52.3z
			 M77.8,52.3h2.7l19.7-16.2v-2.2L77.8,52.3z M68.9,52.3h2.7l28.5-23.5v-2.2L68.9,52.3z M98.3,20.8L60,52.3h2.7l37.4-30.7v-0.7H98.3
			z M89.4,20.8L51.2,52.3h2.7l38.2-31.4H89.4z M80.5,20.8L48.4,47.3v2.2l34.9-28.7H80.5z M71.6,20.8L48.4,40v2.3l26-21.4H71.6z
			 M62.8,20.8L48.4,32.7V35l17.2-14.1H62.8z M54,20.8l-5.6,4.6v2.2l8.3-6.8H54z M101.6,70.8c0-0.1-0.1-0.2-0.3-0.3
			c-0.1,0-0.1,0-0.2,0H77.8c-0.1,0-0.3,0.1-0.4,0.2c-0.1,0-0.1,0.1-0.1,0.2c0,0.1,0,0.1,0,0.2c0,0.3,0.2,0.6,0.5,0.6h23.4
			c0.1,0,0.3-0.1,0.4-0.2c0.1-0.1,0.2-0.2,0.2-0.4C101.6,70.9,101.6,70.8,101.6,70.8z M101.5,73.8c-0.1-0.1-0.2-0.2-0.4-0.2H77.7
			c-0.1,0-0.1,0-0.2,0c0,0-0.1,0-0.1,0.1l0,0c0,0,0,0,0,0.1c-0.1,0.1-0.1,0.2-0.1,0.3c0,0.3,0.2,0.6,0.5,0.6h23.4
			c0.1,0,0.3-0.1,0.4-0.2c0.1-0.1,0.2-0.2,0.2-0.4C101.6,74,101.6,73.9,101.5,73.8z M101.6,77.1c0-0.1-0.1-0.1-0.1-0.2
			c-0.1-0.1-0.2-0.2-0.4-0.2H77.7c-0.3,0-0.5,0.2-0.5,0.6c0,0.1,0.1,0.3,0.1,0.4c0.1,0.1,0.2,0.2,0.4,0.2h23.4
			c0.1,0,0.3-0.1,0.3-0.2c0.1-0.1,0.2-0.2,0.2-0.4C101.6,77.3,101.6,77.2,101.6,77.1z M101.5,80.1c-0.1-0.1-0.2-0.2-0.4-0.2H77.7
			c-0.3,0-0.5,0.3-0.5,0.6c0,0.3,0.2,0.6,0.5,0.6h23.4c0.1,0,0.3-0.1,0.4-0.2c0.1-0.1,0.2-0.2,0.2-0.4S101.6,80.2,101.5,80.1z
			 M101.6,83.5C101.6,83.4,101.6,83.4,101.6,83.5c-0.1-0.1-0.1-0.2-0.1-0.2c-0.1-0.1-0.2-0.2-0.4-0.2H77.7c-0.3,0-0.5,0.2-0.5,0.6
			c0,0.2,0.1,0.3,0.1,0.4c0.1,0.1,0.2,0.2,0.4,0.2h23.4c0.1,0,0.3-0.1,0.3-0.2c0.1-0.1,0.2-0.2,0.2-0.4
			C101.6,83.6,101.6,83.5,101.6,83.5z M101.5,86.5c0,0-0.1-0.1-0.2-0.1c-0.1,0-0.1,0-0.2,0H77.8c-0.1,0-0.3,0.1-0.4,0.2
			c0,0,0,0,0,0.1c-0.1,0.1-0.1,0.2-0.1,0.3c0,0.1,0.1,0.3,0.1,0.4c0,0,0.1,0.1,0.2,0.1c0.1,0,0.1,0,0.2,0h23.4c0.1,0,0.1,0,0.2,0
			c0.2-0.1,0.3-0.3,0.3-0.5C101.6,86.7,101.6,86.6,101.5,86.5z M101.5,89.7c-0.1-0.1-0.2-0.2-0.4-0.2H77.7c-0.3,0-0.5,0.3-0.5,0.6
			c0,0.2,0.1,0.3,0.1,0.4c0.1,0.1,0.2,0.2,0.4,0.2h23.4c0.1,0,0.3-0.1,0.3-0.2c0.1-0.1,0.2-0.2,0.2-0.4
			C101.6,89.9,101.6,89.8,101.5,89.7z M47.3,73.6c-0.2,0-0.4,0.2-0.5,0.4L47.3,73.6L47.3,73.6z M47.3,83.1c-0.2,0-0.4,0.2-0.5,0.4
			L47.3,83.1L47.3,83.1z M47.3,73.6c-0.2,0-0.4,0.2-0.5,0.4L47.3,73.6L47.3,73.6z M47.3,83.1c-0.2,0-0.4,0.2-0.5,0.4L47.3,83.1
			L47.3,83.1z M97.3,96.1v0.7l0.8-0.7H97.3z M101.5,89.7c-0.1-0.1-0.2-0.2-0.4-0.2H77.7c-0.3,0-0.5,0.3-0.5,0.6
			c0,0.2,0.1,0.3,0.1,0.4c0.1,0.1,0.2,0.2,0.4,0.2h23.4c0.1,0,0.3-0.1,0.3-0.2c0.1-0.1,0.2-0.2,0.2-0.4
			C101.6,89.9,101.6,89.8,101.5,89.7z M101.5,86.5c0,0-0.1-0.1-0.2-0.1c-0.1,0-0.1,0-0.2,0H77.8c-0.1,0-0.3,0.1-0.4,0.2
			c0,0,0,0,0,0.1c-0.1,0.1-0.1,0.2-0.1,0.3c0,0.1,0.1,0.3,0.1,0.4c0,0,0.1,0.1,0.2,0.1c0.1,0,0.1,0,0.2,0h23.4c0.1,0,0.1,0,0.2,0
			c0.2-0.1,0.3-0.3,0.3-0.5C101.6,86.7,101.6,86.6,101.5,86.5z M101.6,83.5C101.6,83.4,101.6,83.4,101.6,83.5
			c-0.1-0.1-0.1-0.2-0.1-0.2c-0.1-0.1-0.2-0.2-0.4-0.2H77.7c-0.3,0-0.5,0.2-0.5,0.6c0,0.2,0.1,0.3,0.1,0.4c0.1,0.1,0.2,0.2,0.4,0.2
			h23.4c0.1,0,0.3-0.1,0.3-0.2c0.1-0.1,0.2-0.2,0.2-0.4C101.6,83.6,101.6,83.5,101.6,83.5z M101.5,80.1c-0.1-0.1-0.2-0.2-0.4-0.2
			H77.7c-0.3,0-0.5,0.3-0.5,0.6c0,0.3,0.2,0.6,0.5,0.6h23.4c0.1,0,0.3-0.1,0.4-0.2c0.1-0.1,0.2-0.2,0.2-0.4S101.6,80.2,101.5,80.1z
			 M101.6,77.1c0-0.1-0.1-0.1-0.1-0.2c-0.1-0.1-0.2-0.2-0.4-0.2H77.7c-0.3,0-0.5,0.2-0.5,0.6c0,0.1,0.1,0.3,0.1,0.4
			c0.1,0.1,0.2,0.2,0.4,0.2h23.4c0.1,0,0.3-0.1,0.3-0.2c0.1-0.1,0.2-0.2,0.2-0.4C101.6,77.3,101.6,77.2,101.6,77.1z M101.5,73.8
			c-0.1-0.1-0.2-0.2-0.4-0.2H77.7c-0.1,0-0.1,0-0.2,0c0,0-0.1,0-0.1,0.1l0,0c0,0,0,0,0,0.1c-0.1,0.1-0.1,0.2-0.1,0.3
			c0,0.3,0.2,0.6,0.5,0.6h23.4c0.1,0,0.3-0.1,0.4-0.2c0.1-0.1,0.2-0.2,0.2-0.4C101.6,74,101.6,73.9,101.5,73.8z M101.6,70.8
			c0-0.1-0.1-0.2-0.3-0.3c-0.1,0-0.1,0-0.2,0H77.8c-0.1,0-0.3,0.1-0.4,0.2c-0.1,0-0.1,0.1-0.1,0.2c0,0.1,0,0.1,0,0.2
			c0,0.3,0.2,0.6,0.5,0.6h23.4c0.1,0,0.3-0.1,0.4-0.2c0.1-0.1,0.2-0.2,0.2-0.4C101.6,70.9,101.6,70.8,101.6,70.8z M48.4,20.8V24
			l3.9-3.2H48.4z M58.4,20.8l-10,8.2v2.2l12.7-10.5H58.4z M67.2,20.8L48.4,36.4v2.3L70,20.8H67.2z M76.1,20.8L48.4,43.6v2.3
			l30.4-25.1H76.1z M85,20.8L48.4,51v1.3h1.1l38.2-31.4H85z M93.8,20.8L55.6,52.3h2.7l38.2-31.4H93.8z M64.5,52.3h2.7l32.9-27.1
			v-2.2L64.5,52.3z M73.3,52.3H76l24.1-19.8v-2.3L73.3,52.3z M82.2,52.3h2.7l15.2-12.5v-2.2L82.2,52.3z M91,52.3h2.7l6.4-5.2v-2.3
			L91,52.3z M95.5,52.3h4.7v-3.8L95.5,52.3z M86.6,52.3h2.7l10.8-8.9v-2.3L86.6,52.3z M77.8,52.3h2.7l19.7-16.2v-2.2L77.8,52.3z
			 M68.9,52.3h2.7l28.5-23.5v-2.2L68.9,52.3z M98.3,20.8L60,52.3h2.7l37.4-30.7v-0.7H98.3z M89.4,20.8L51.2,52.3h2.7l38.2-31.4H89.4
			z M80.5,20.8L48.4,47.3v2.2l34.9-28.7H80.5z M71.6,20.8L48.4,40v2.3l26-21.4H71.6z M62.8,20.8L48.4,32.7V35l17.2-14.1H62.8z
			 M54,20.8l-5.6,4.6v2.2l8.3-6.8H54z M48.4,20.8V24l3.9-3.2H48.4z M58.4,20.8l-10,8.2v2.2l12.7-10.5H58.4z M67.2,20.8L48.4,36.4
			v2.3L70,20.8H67.2z M76.1,20.8L48.4,43.6v2.3l30.4-25.1H76.1z M85,20.8L48.4,51v1.3h1.1l38.2-31.4H85z M93.8,20.8L55.6,52.3h2.7
			l38.2-31.4H93.8z M64.5,52.3h2.7l32.9-27.1v-2.2L64.5,52.3z M73.3,52.3H76l24.1-19.8v-2.3L73.3,52.3z M82.2,52.3h2.7l15.2-12.5
			v-2.2L82.2,52.3z M91,52.3h2.7l6.4-5.2v-2.3L91,52.3z M95.5,52.3h4.7v-3.8L95.5,52.3z M86.6,52.3h2.7l10.8-8.9v-2.3L86.6,52.3z
			 M77.8,52.3h2.7l19.7-16.2v-2.2L77.8,52.3z M68.9,52.3h2.7l28.5-23.5v-2.2L68.9,52.3z M98.3,20.8L60,52.3h2.7l37.4-30.7v-0.7H98.3
			z M89.4,20.8L51.2,52.3h2.7l38.2-31.4H89.4z M80.5,20.8L48.4,47.3v2.2l34.9-28.7H80.5z M71.6,20.8L48.4,40v2.3l26-21.4H71.6z
			 M62.8,20.8L48.4,32.7V35l17.2-14.1H62.8z M54,20.8l-5.6,4.6v2.2l8.3-6.8H54z M47.3,73.6c-0.2,0-0.4,0.2-0.5,0.4L47.3,73.6
			L47.3,73.6z M47.3,83.1c-0.2,0-0.4,0.2-0.5,0.4L47.3,83.1L47.3,83.1z M101.6,70.8c0-0.1-0.1-0.2-0.3-0.3c-0.1,0-0.1,0-0.2,0H77.8
			c-0.1,0-0.3,0.1-0.4,0.2c-0.1,0-0.1,0.1-0.1,0.2c0,0.1,0,0.1,0,0.2c0,0.3,0.2,0.6,0.5,0.6h23.4c0.1,0,0.3-0.1,0.4-0.2
			c0.1-0.1,0.2-0.2,0.2-0.4C101.6,70.9,101.6,70.8,101.6,70.8z M101.5,73.8c-0.1-0.1-0.2-0.2-0.4-0.2H77.7c-0.1,0-0.1,0-0.2,0
			c0,0-0.1,0-0.1,0.1l0,0c0,0,0,0,0,0.1c-0.1,0.1-0.1,0.2-0.1,0.3c0,0.3,0.2,0.6,0.5,0.6h23.4c0.1,0,0.3-0.1,0.4-0.2
			c0.1-0.1,0.2-0.2,0.2-0.4C101.6,74,101.6,73.9,101.5,73.8z M101.6,77.1c0-0.1-0.1-0.1-0.1-0.2c-0.1-0.1-0.2-0.2-0.4-0.2H77.7
			c-0.3,0-0.5,0.2-0.5,0.6c0,0.1,0.1,0.3,0.1,0.4c0.1,0.1,0.2,0.2,0.4,0.2h23.4c0.1,0,0.3-0.1,0.3-0.2c0.1-0.1,0.2-0.2,0.2-0.4
			C101.6,77.3,101.6,77.2,101.6,77.1z M101.5,80.1c-0.1-0.1-0.2-0.2-0.4-0.2H77.7c-0.3,0-0.5,0.3-0.5,0.6c0,0.3,0.2,0.6,0.5,0.6
			h23.4c0.1,0,0.3-0.1,0.4-0.2c0.1-0.1,0.2-0.2,0.2-0.4S101.6,80.2,101.5,80.1z M101.6,83.5C101.6,83.4,101.6,83.4,101.6,83.5
			c-0.1-0.1-0.1-0.2-0.1-0.2c-0.1-0.1-0.2-0.2-0.4-0.2H77.7c-0.3,0-0.5,0.2-0.5,0.6c0,0.2,0.1,0.3,0.1,0.4c0.1,0.1,0.2,0.2,0.4,0.2
			h23.4c0.1,0,0.3-0.1,0.3-0.2c0.1-0.1,0.2-0.2,0.2-0.4C101.6,83.6,101.6,83.5,101.6,83.5z M101.5,86.5c0,0-0.1-0.1-0.2-0.1
			c-0.1,0-0.1,0-0.2,0H77.8c-0.1,0-0.3,0.1-0.4,0.2c0,0,0,0,0,0.1c-0.1,0.1-0.1,0.2-0.1,0.3c0,0.1,0.1,0.3,0.1,0.4
			c0,0,0.1,0.1,0.2,0.1c0.1,0,0.1,0,0.2,0h23.4c0.1,0,0.1,0,0.2,0c0.2-0.1,0.3-0.3,0.3-0.5C101.6,86.7,101.6,86.6,101.5,86.5z
			 M101.5,89.7c-0.1-0.1-0.2-0.2-0.4-0.2H77.7c-0.3,0-0.5,0.3-0.5,0.6c0,0.2,0.1,0.3,0.1,0.4c0.1,0.1,0.2,0.2,0.4,0.2h23.4
			c0.1,0,0.3-0.1,0.3-0.2c0.1-0.1,0.2-0.2,0.2-0.4C101.6,89.9,101.6,89.8,101.5,89.7z M97.3,96.1v0.7l0.8-0.7H97.3z M101.5,89.7
			c-0.1-0.1-0.2-0.2-0.4-0.2H77.7c-0.3,0-0.5,0.3-0.5,0.6c0,0.2,0.1,0.3,0.1,0.4c0.1,0.1,0.2,0.2,0.4,0.2h23.4
			c0.1,0,0.3-0.1,0.3-0.2c0.1-0.1,0.2-0.2,0.2-0.4C101.6,89.9,101.6,89.8,101.5,89.7z M101.5,86.5c0,0-0.1-0.1-0.2-0.1
			c-0.1,0-0.1,0-0.2,0H77.8c-0.1,0-0.3,0.1-0.4,0.2c0,0,0,0,0,0.1c-0.1,0.1-0.1,0.2-0.1,0.3c0,0.1,0.1,0.3,0.1,0.4
			c0,0,0.1,0.1,0.2,0.1c0.1,0,0.1,0,0.2,0h23.4c0.1,0,0.1,0,0.2,0c0.2-0.1,0.3-0.3,0.3-0.5C101.6,86.7,101.6,86.6,101.5,86.5z
			 M101.6,83.5C101.6,83.4,101.6,83.4,101.6,83.5c-0.1-0.1-0.1-0.2-0.1-0.2c-0.1-0.1-0.2-0.2-0.4-0.2H77.7c-0.3,0-0.5,0.2-0.5,0.6
			c0,0.2,0.1,0.3,0.1,0.4c0.1,0.1,0.2,0.2,0.4,0.2h23.4c0.1,0,0.3-0.1,0.3-0.2c0.1-0.1,0.2-0.2,0.2-0.4
			C101.6,83.6,101.6,83.5,101.6,83.5z M101.5,80.1c-0.1-0.1-0.2-0.2-0.4-0.2H77.7c-0.3,0-0.5,0.3-0.5,0.6c0,0.3,0.2,0.6,0.5,0.6
			h23.4c0.1,0,0.3-0.1,0.4-0.2c0.1-0.1,0.2-0.2,0.2-0.4S101.6,80.2,101.5,80.1z M101.6,77.1c0-0.1-0.1-0.1-0.1-0.2
			c-0.1-0.1-0.2-0.2-0.4-0.2H77.7c-0.3,0-0.5,0.2-0.5,0.6c0,0.1,0.1,0.3,0.1,0.4c0.1,0.1,0.2,0.2,0.4,0.2h23.4
			c0.1,0,0.3-0.1,0.3-0.2c0.1-0.1,0.2-0.2,0.2-0.4C101.6,77.3,101.6,77.2,101.6,77.1z M101.5,73.8c-0.1-0.1-0.2-0.2-0.4-0.2H77.7
			c-0.1,0-0.1,0-0.2,0c0,0-0.1,0-0.1,0.1l0,0c0,0,0,0,0,0.1c-0.1,0.1-0.1,0.2-0.1,0.3c0,0.3,0.2,0.6,0.5,0.6h23.4
			c0.1,0,0.3-0.1,0.4-0.2c0.1-0.1,0.2-0.2,0.2-0.4C101.6,74,101.6,73.9,101.5,73.8z M101.6,70.8c0-0.1-0.1-0.2-0.3-0.3
			c-0.1,0-0.1,0-0.2,0H77.8c-0.1,0-0.3,0.1-0.4,0.2c-0.1,0-0.1,0.1-0.1,0.2c0,0.1,0,0.1,0,0.2c0,0.3,0.2,0.6,0.5,0.6h23.4
			c0.1,0,0.3-0.1,0.4-0.2c0.1-0.1,0.2-0.2,0.2-0.4C101.6,70.9,101.6,70.8,101.6,70.8z M47.3,73.6c-0.2,0-0.4,0.2-0.5,0.4L47.3,73.6
			L47.3,73.6z M47.3,83.1c-0.2,0-0.4,0.2-0.5,0.4L47.3,83.1L47.3,83.1z M64.5,52.3h2.7l32.9-27.1v-2.2L64.5,52.3z M73.3,52.3H76
			l24.1-19.8v-2.3L73.3,52.3z M82.2,52.3h2.7l15.2-12.5v-2.2L82.2,52.3z M91,52.3h2.7l6.4-5.2v-2.3L91,52.3z M95.5,52.3h4.7v-3.8
			L95.5,52.3z M86.6,52.3h2.7l10.8-8.9v-2.3L86.6,52.3z M77.8,52.3h2.7l19.7-16.2v-2.2L77.8,52.3z M68.9,52.3h2.7l28.5-23.5v-2.2
			L68.9,52.3z M98.3,20.8L60,52.3h2.7l37.4-30.7v-0.7H98.3z M47.3,73.6c-0.2,0-0.4,0.2-0.5,0.4L47.3,73.6L47.3,73.6z M47.3,83.1
			c-0.2,0-0.4,0.2-0.5,0.4L47.3,83.1L47.3,83.1z M101.6,70.8c0-0.1-0.1-0.2-0.3-0.3c-0.1,0-0.1,0-0.2,0H77.8c-0.1,0-0.3,0.1-0.4,0.2
			c-0.1,0-0.1,0.1-0.1,0.2c0,0.1,0,0.1,0,0.2c0,0.3,0.2,0.6,0.5,0.6h23.4c0.1,0,0.3-0.1,0.4-0.2c0.1-0.1,0.2-0.2,0.2-0.4
			C101.6,70.9,101.6,70.8,101.6,70.8z M101.5,73.8c-0.1-0.1-0.2-0.2-0.4-0.2H77.7c-0.1,0-0.1,0-0.2,0c0,0-0.1,0-0.1,0.1l0,0
			c0,0,0,0,0,0.1c-0.1,0.1-0.1,0.2-0.1,0.3c0,0.3,0.2,0.6,0.5,0.6h23.4c0.1,0,0.3-0.1,0.4-0.2c0.1-0.1,0.2-0.2,0.2-0.4
			C101.6,74,101.6,73.9,101.5,73.8z M101.6,77.1c0-0.1-0.1-0.1-0.1-0.2c-0.1-0.1-0.2-0.2-0.4-0.2H77.7c-0.3,0-0.5,0.2-0.5,0.6
			c0,0.1,0.1,0.3,0.1,0.4c0.1,0.1,0.2,0.2,0.4,0.2h23.4c0.1,0,0.3-0.1,0.3-0.2c0.1-0.1,0.2-0.2,0.2-0.4
			C101.6,77.3,101.6,77.2,101.6,77.1z M101.5,80.1c-0.1-0.1-0.2-0.2-0.4-0.2H77.7c-0.3,0-0.5,0.3-0.5,0.6c0,0.3,0.2,0.6,0.5,0.6
			h23.4c0.1,0,0.3-0.1,0.4-0.2c0.1-0.1,0.2-0.2,0.2-0.4S101.6,80.2,101.5,80.1z M101.6,83.5C101.6,83.4,101.6,83.4,101.6,83.5
			c-0.1-0.1-0.1-0.2-0.1-0.2c-0.1-0.1-0.2-0.2-0.4-0.2H77.7c-0.3,0-0.5,0.2-0.5,0.6c0,0.2,0.1,0.3,0.1,0.4c0.1,0.1,0.2,0.2,0.4,0.2
			h23.4c0.1,0,0.3-0.1,0.3-0.2c0.1-0.1,0.2-0.2,0.2-0.4C101.6,83.6,101.6,83.5,101.6,83.5z M101.5,86.5c0,0-0.1-0.1-0.2-0.1
			c-0.1,0-0.1,0-0.2,0H77.8c-0.1,0-0.3,0.1-0.4,0.2c0,0,0,0,0,0.1c-0.1,0.1-0.1,0.2-0.1,0.3c0,0.1,0.1,0.3,0.1,0.4
			c0,0,0.1,0.1,0.2,0.1c0.1,0,0.1,0,0.2,0h23.4c0.1,0,0.1,0,0.2,0c0.2-0.1,0.3-0.3,0.3-0.5C101.6,86.7,101.6,86.6,101.5,86.5z
			 M101.5,89.7c-0.1-0.1-0.2-0.2-0.4-0.2H77.7c-0.3,0-0.5,0.3-0.5,0.6c0,0.2,0.1,0.3,0.1,0.4c0.1,0.1,0.2,0.2,0.4,0.2h23.4
			c0.1,0,0.3-0.1,0.3-0.2c0.1-0.1,0.2-0.2,0.2-0.4C101.6,89.9,101.6,89.8,101.5,89.7z M97.3,96.1v0.7l0.8-0.7H97.3z M101.5,89.7
			c-0.1-0.1-0.2-0.2-0.4-0.2H77.7c-0.3,0-0.5,0.3-0.5,0.6c0,0.2,0.1,0.3,0.1,0.4c0.1,0.1,0.2,0.2,0.4,0.2h23.4
			c0.1,0,0.3-0.1,0.3-0.2c0.1-0.1,0.2-0.2,0.2-0.4C101.6,89.9,101.6,89.8,101.5,89.7z M101.5,86.5c0,0-0.1-0.1-0.2-0.1
			c-0.1,0-0.1,0-0.2,0H77.8c-0.1,0-0.3,0.1-0.4,0.2c0,0,0,0,0,0.1c-0.1,0.1-0.1,0.2-0.1,0.3c0,0.1,0.1,0.3,0.1,0.4
			c0,0,0.1,0.1,0.2,0.1c0.1,0,0.1,0,0.2,0h23.4c0.1,0,0.1,0,0.2,0c0.2-0.1,0.3-0.3,0.3-0.5C101.6,86.7,101.6,86.6,101.5,86.5z
			 M101.6,83.5C101.6,83.4,101.6,83.4,101.6,83.5c-0.1-0.1-0.1-0.2-0.1-0.2c-0.1-0.1-0.2-0.2-0.4-0.2H77.7c-0.3,0-0.5,0.2-0.5,0.6
			c0,0.2,0.1,0.3,0.1,0.4c0.1,0.1,0.2,0.2,0.4,0.2h23.4c0.1,0,0.3-0.1,0.3-0.2c0.1-0.1,0.2-0.2,0.2-0.4
			C101.6,83.6,101.6,83.5,101.6,83.5z M101.5,80.1c-0.1-0.1-0.2-0.2-0.4-0.2H77.7c-0.3,0-0.5,0.3-0.5,0.6c0,0.3,0.2,0.6,0.5,0.6
			h23.4c0.1,0,0.3-0.1,0.4-0.2c0.1-0.1,0.2-0.2,0.2-0.4S101.6,80.2,101.5,80.1z M101.6,77.1c0-0.1-0.1-0.1-0.1-0.2
			c-0.1-0.1-0.2-0.2-0.4-0.2H77.7c-0.3,0-0.5,0.2-0.5,0.6c0,0.1,0.1,0.3,0.1,0.4c0.1,0.1,0.2,0.2,0.4,0.2h23.4
			c0.1,0,0.3-0.1,0.3-0.2c0.1-0.1,0.2-0.2,0.2-0.4C101.6,77.3,101.6,77.2,101.6,77.1z M101.5,73.8c-0.1-0.1-0.2-0.2-0.4-0.2H77.7
			c-0.1,0-0.1,0-0.2,0c0,0-0.1,0-0.1,0.1l0,0c0,0,0,0,0,0.1c-0.1,0.1-0.1,0.2-0.1,0.3c0,0.3,0.2,0.6,0.5,0.6h23.4
			c0.1,0,0.3-0.1,0.4-0.2c0.1-0.1,0.2-0.2,0.2-0.4C101.6,74,101.6,73.9,101.5,73.8z M101.6,70.8c0-0.1-0.1-0.2-0.3-0.3
			c-0.1,0-0.1,0-0.2,0H77.8c-0.1,0-0.3,0.1-0.4,0.2c-0.1,0-0.1,0.1-0.1,0.2c0,0.1,0,0.1,0,0.2c0,0.3,0.2,0.6,0.5,0.6h23.4
			c0.1,0,0.3-0.1,0.4-0.2c0.1-0.1,0.2-0.2,0.2-0.4C101.6,70.9,101.6,70.8,101.6,70.8z M47.3,73.6c-0.2,0-0.4,0.2-0.5,0.4L47.3,73.6
			L47.3,73.6z M47.3,83.1c-0.2,0-0.4,0.2-0.5,0.4L47.3,83.1L47.3,83.1z M64.5,52.3h2.7l32.9-27.1v-2.2L64.5,52.3z M73.3,52.3H76
			l24.1-19.8v-2.3L73.3,52.3z M82.2,52.3h2.7l15.2-12.5v-2.2L82.2,52.3z M91,52.3h2.7l6.4-5.2v-2.3L91,52.3z M95.5,52.3h4.7v-3.8
			L95.5,52.3z M86.6,52.3h2.7l10.8-8.9v-2.3L86.6,52.3z M77.8,52.3h2.7l19.7-16.2v-2.2L77.8,52.3z M68.9,52.3h2.7l28.5-23.5v-2.2
			L68.9,52.3z M98.3,20.8L60,52.3h2.7l37.4-30.7v-0.7H98.3z M47.3,73.6c-0.2,0-0.4,0.2-0.5,0.4L47.3,73.6L47.3,73.6z M47.3,83.1
			c-0.2,0-0.4,0.2-0.5,0.4L47.3,83.1L47.3,83.1z M101.6,70.8c0-0.1-0.1-0.2-0.3-0.3c-0.1,0-0.1,0-0.2,0H77.8c-0.1,0-0.3,0.1-0.4,0.2
			c-0.1,0-0.1,0.1-0.1,0.2c0,0.1,0,0.1,0,0.2c0,0.3,0.2,0.6,0.5,0.6h23.4c0.1,0,0.3-0.1,0.4-0.2c0.1-0.1,0.2-0.2,0.2-0.4
			C101.6,70.9,101.6,70.8,101.6,70.8z M101.5,73.8c-0.1-0.1-0.2-0.2-0.4-0.2H77.7c-0.1,0-0.1,0-0.2,0c0,0-0.1,0-0.1,0.1l0,0
			c0,0,0,0,0,0.1c-0.1,0.1-0.1,0.2-0.1,0.3c0,0.3,0.2,0.6,0.5,0.6h23.4c0.1,0,0.3-0.1,0.4-0.2c0.1-0.1,0.2-0.2,0.2-0.4
			C101.6,74,101.6,73.9,101.5,73.8z M101.6,77.1c0-0.1-0.1-0.1-0.1-0.2c-0.1-0.1-0.2-0.2-0.4-0.2H77.7c-0.3,0-0.5,0.2-0.5,0.6
			c0,0.1,0.1,0.3,0.1,0.4c0.1,0.1,0.2,0.2,0.4,0.2h23.4c0.1,0,0.3-0.1,0.3-0.2c0.1-0.1,0.2-0.2,0.2-0.4
			C101.6,77.3,101.6,77.2,101.6,77.1z M101.5,80.1c-0.1-0.1-0.2-0.2-0.4-0.2H77.7c-0.3,0-0.5,0.3-0.5,0.6c0,0.3,0.2,0.6,0.5,0.6
			h23.4c0.1,0,0.3-0.1,0.4-0.2c0.1-0.1,0.2-0.2,0.2-0.4S101.6,80.2,101.5,80.1z M101.6,83.5C101.6,83.4,101.6,83.4,101.6,83.5
			c-0.1-0.1-0.1-0.2-0.1-0.2c-0.1-0.1-0.2-0.2-0.4-0.2H77.7c-0.3,0-0.5,0.2-0.5,0.6c0,0.2,0.1,0.3,0.1,0.4c0.1,0.1,0.2,0.2,0.4,0.2
			h23.4c0.1,0,0.3-0.1,0.3-0.2c0.1-0.1,0.2-0.2,0.2-0.4C101.6,83.6,101.6,83.5,101.6,83.5z M101.5,86.5c0,0-0.1-0.1-0.2-0.1
			c-0.1,0-0.1,0-0.2,0H77.8c-0.1,0-0.3,0.1-0.4,0.2c0,0,0,0,0,0.1c-0.1,0.1-0.1,0.2-0.1,0.3c0,0.1,0.1,0.3,0.1,0.4
			c0,0,0.1,0.1,0.2,0.1c0.1,0,0.1,0,0.2,0h23.4c0.1,0,0.1,0,0.2,0c0.2-0.1,0.3-0.3,0.3-0.5C101.6,86.7,101.6,86.6,101.5,86.5z
			 M101.5,89.7c-0.1-0.1-0.2-0.2-0.4-0.2H77.7c-0.3,0-0.5,0.3-0.5,0.6c0,0.2,0.1,0.3,0.1,0.4c0.1,0.1,0.2,0.2,0.4,0.2h23.4
			c0.1,0,0.3-0.1,0.3-0.2c0.1-0.1,0.2-0.2,0.2-0.4C101.6,89.9,101.6,89.8,101.5,89.7z M97.3,96.1v0.7l0.8-0.7H97.3z M101.5,89.7
			c-0.1-0.1-0.2-0.2-0.4-0.2H77.7c-0.3,0-0.5,0.3-0.5,0.6c0,0.2,0.1,0.3,0.1,0.4c0.1,0.1,0.2,0.2,0.4,0.2h23.4
			c0.1,0,0.3-0.1,0.3-0.2c0.1-0.1,0.2-0.2,0.2-0.4C101.6,89.9,101.6,89.8,101.5,89.7z M101.5,86.5c0,0-0.1-0.1-0.2-0.1
			c-0.1,0-0.1,0-0.2,0H77.8c-0.1,0-0.3,0.1-0.4,0.2c0,0,0,0,0,0.1c-0.1,0.1-0.1,0.2-0.1,0.3c0,0.1,0.1,0.3,0.1,0.4
			c0,0,0.1,0.1,0.2,0.1c0.1,0,0.1,0,0.2,0h23.4c0.1,0,0.1,0,0.2,0c0.2-0.1,0.3-0.3,0.3-0.5C101.6,86.7,101.6,86.6,101.5,86.5z
			 M101.6,83.5C101.6,83.4,101.6,83.4,101.6,83.5c-0.1-0.1-0.1-0.2-0.1-0.2c-0.1-0.1-0.2-0.2-0.4-0.2H77.7c-0.3,0-0.5,0.2-0.5,0.6
			c0,0.2,0.1,0.3,0.1,0.4c0.1,0.1,0.2,0.2,0.4,0.2h23.4c0.1,0,0.3-0.1,0.3-0.2c0.1-0.1,0.2-0.2,0.2-0.4
			C101.6,83.6,101.6,83.5,101.6,83.5z M101.5,80.1c-0.1-0.1-0.2-0.2-0.4-0.2H77.7c-0.3,0-0.5,0.3-0.5,0.6c0,0.3,0.2,0.6,0.5,0.6
			h23.4c0.1,0,0.3-0.1,0.4-0.2c0.1-0.1,0.2-0.2,0.2-0.4S101.6,80.2,101.5,80.1z M101.6,77.1c0-0.1-0.1-0.1-0.1-0.2
			c-0.1-0.1-0.2-0.2-0.4-0.2H77.7c-0.3,0-0.5,0.2-0.5,0.6c0,0.1,0.1,0.3,0.1,0.4c0.1,0.1,0.2,0.2,0.4,0.2h23.4
			c0.1,0,0.3-0.1,0.3-0.2c0.1-0.1,0.2-0.2,0.2-0.4C101.6,77.3,101.6,77.2,101.6,77.1z M101.5,73.8c-0.1-0.1-0.2-0.2-0.4-0.2H77.7
			c-0.1,0-0.1,0-0.2,0c0,0-0.1,0-0.1,0.1l0,0c0,0,0,0,0,0.1c-0.1,0.1-0.1,0.2-0.1,0.3c0,0.3,0.2,0.6,0.5,0.6h23.4
			c0.1,0,0.3-0.1,0.4-0.2c0.1-0.1,0.2-0.2,0.2-0.4C101.6,74,101.6,73.9,101.5,73.8z M101.6,70.8c0-0.1-0.1-0.2-0.3-0.3
			c-0.1,0-0.1,0-0.2,0H77.8c-0.1,0-0.3,0.1-0.4,0.2c-0.1,0-0.1,0.1-0.1,0.2c0,0.1,0,0.1,0,0.2c0,0.3,0.2,0.6,0.5,0.6h23.4
			c0.1,0,0.3-0.1,0.4-0.2c0.1-0.1,0.2-0.2,0.2-0.4C101.6,70.9,101.6,70.8,101.6,70.8z M47.3,73.6c-0.2,0-0.4,0.2-0.5,0.4L47.3,73.6
			L47.3,73.6z M47.3,83.1c-0.2,0-0.4,0.2-0.5,0.4L47.3,83.1L47.3,83.1z M101.6,70.8c0-0.1-0.1-0.2-0.3-0.3c-0.1,0-0.1,0-0.2,0H77.8
			c-0.1,0-0.3,0.1-0.4,0.2c-0.1,0-0.1,0.1-0.1,0.2c0,0.1,0,0.1,0,0.2c0,0.3,0.2,0.6,0.5,0.6h23.4c0.1,0,0.3-0.1,0.4-0.2
			c0.1-0.1,0.2-0.2,0.2-0.4C101.6,70.9,101.6,70.8,101.6,70.8z M101.5,73.8c-0.1-0.1-0.2-0.2-0.4-0.2H77.7c-0.1,0-0.1,0-0.2,0
			c0,0-0.1,0-0.1,0.1l0,0c0,0,0,0,0,0.1c-0.1,0.1-0.1,0.2-0.1,0.3c0,0.3,0.2,0.6,0.5,0.6h23.4c0.1,0,0.3-0.1,0.4-0.2
			c0.1-0.1,0.2-0.2,0.2-0.4C101.6,74,101.6,73.9,101.5,73.8z M101.6,77.1c0-0.1-0.1-0.1-0.1-0.2c-0.1-0.1-0.2-0.2-0.4-0.2H77.7
			c-0.3,0-0.5,0.2-0.5,0.6c0,0.1,0.1,0.3,0.1,0.4c0.1,0.1,0.2,0.2,0.4,0.2h23.4c0.1,0,0.3-0.1,0.3-0.2c0.1-0.1,0.2-0.2,0.2-0.4
			C101.6,77.3,101.6,77.2,101.6,77.1z M101.5,80.1c-0.1-0.1-0.2-0.2-0.4-0.2H77.7c-0.3,0-0.5,0.3-0.5,0.6c0,0.3,0.2,0.6,0.5,0.6
			h23.4c0.1,0,0.3-0.1,0.4-0.2c0.1-0.1,0.2-0.2,0.2-0.4S101.6,80.2,101.5,80.1z M101.6,83.5C101.6,83.4,101.6,83.4,101.6,83.5
			c-0.1-0.1-0.1-0.2-0.1-0.2c-0.1-0.1-0.2-0.2-0.4-0.2H77.7c-0.3,0-0.5,0.2-0.5,0.6c0,0.2,0.1,0.3,0.1,0.4c0.1,0.1,0.2,0.2,0.4,0.2
			h23.4c0.1,0,0.3-0.1,0.3-0.2c0.1-0.1,0.2-0.2,0.2-0.4C101.6,83.6,101.6,83.5,101.6,83.5z M101.5,86.5c0,0-0.1-0.1-0.2-0.1
			c-0.1,0-0.1,0-0.2,0H77.8c-0.1,0-0.3,0.1-0.4,0.2c0,0,0,0,0,0.1c-0.1,0.1-0.1,0.2-0.1,0.3c0,0.1,0.1,0.3,0.1,0.4
			c0,0,0.1,0.1,0.2,0.1c0.1,0,0.1,0,0.2,0h23.4c0.1,0,0.1,0,0.2,0c0.2-0.1,0.3-0.3,0.3-0.5C101.6,86.7,101.6,86.6,101.5,86.5z
			 M101.5,89.7c-0.1-0.1-0.2-0.2-0.4-0.2H77.7c-0.3,0-0.5,0.3-0.5,0.6c0,0.2,0.1,0.3,0.1,0.4c0.1,0.1,0.2,0.2,0.4,0.2h23.4
			c0.1,0,0.3-0.1,0.3-0.2c0.1-0.1,0.2-0.2,0.2-0.4C101.6,89.9,101.6,89.8,101.5,89.7z M97.3,96.1v0.7l0.8-0.7H97.3z M101.5,89.7
			c-0.1-0.1-0.2-0.2-0.4-0.2H77.7c-0.3,0-0.5,0.3-0.5,0.6c0,0.2,0.1,0.3,0.1,0.4c0.1,0.1,0.2,0.2,0.4,0.2h23.4
			c0.1,0,0.3-0.1,0.3-0.2c0.1-0.1,0.2-0.2,0.2-0.4C101.6,89.9,101.6,89.8,101.5,89.7z M101.5,86.5c0,0-0.1-0.1-0.2-0.1
			c-0.1,0-0.1,0-0.2,0H77.8c-0.1,0-0.3,0.1-0.4,0.2c0,0,0,0,0,0.1c-0.1,0.1-0.1,0.2-0.1,0.3c0,0.1,0.1,0.3,0.1,0.4
			c0,0,0.1,0.1,0.2,0.1c0.1,0,0.1,0,0.2,0h23.4c0.1,0,0.1,0,0.2,0c0.2-0.1,0.3-0.3,0.3-0.5C101.6,86.7,101.6,86.6,101.5,86.5z
			 M101.6,83.5C101.6,83.4,101.6,83.4,101.6,83.5c-0.1-0.1-0.1-0.2-0.1-0.2c-0.1-0.1-0.2-0.2-0.4-0.2H77.7c-0.3,0-0.5,0.2-0.5,0.6
			c0,0.2,0.1,0.3,0.1,0.4c0.1,0.1,0.2,0.2,0.4,0.2h23.4c0.1,0,0.3-0.1,0.3-0.2c0.1-0.1,0.2-0.2,0.2-0.4
			C101.6,83.6,101.6,83.5,101.6,83.5z M101.5,80.1c-0.1-0.1-0.2-0.2-0.4-0.2H77.7c-0.3,0-0.5,0.3-0.5,0.6c0,0.3,0.2,0.6,0.5,0.6
			h23.4c0.1,0,0.3-0.1,0.4-0.2c0.1-0.1,0.2-0.2,0.2-0.4S101.6,80.2,101.5,80.1z M101.6,77.1c0-0.1-0.1-0.1-0.1-0.2
			c-0.1-0.1-0.2-0.2-0.4-0.2H77.7c-0.3,0-0.5,0.2-0.5,0.6c0,0.1,0.1,0.3,0.1,0.4c0.1,0.1,0.2,0.2,0.4,0.2h23.4
			c0.1,0,0.3-0.1,0.3-0.2c0.1-0.1,0.2-0.2,0.2-0.4C101.6,77.3,101.6,77.2,101.6,77.1z M101.5,73.8c-0.1-0.1-0.2-0.2-0.4-0.2H77.7
			c-0.1,0-0.1,0-0.2,0c0,0-0.1,0-0.1,0.1l0,0c0,0,0,0,0,0.1c-0.1,0.1-0.1,0.2-0.1,0.3c0,0.3,0.2,0.6,0.5,0.6h23.4
			c0.1,0,0.3-0.1,0.4-0.2c0.1-0.1,0.2-0.2,0.2-0.4C101.6,74,101.6,73.9,101.5,73.8z M101.6,70.8c0-0.1-0.1-0.2-0.3-0.3
			c-0.1,0-0.1,0-0.2,0H77.8c-0.1,0-0.3,0.1-0.4,0.2c-0.1,0-0.1,0.1-0.1,0.2c0,0.1,0,0.1,0,0.2c0,0.3,0.2,0.6,0.5,0.6h23.4
			c0.1,0,0.3-0.1,0.4-0.2c0.1-0.1,0.2-0.2,0.2-0.4C101.6,70.9,101.6,70.8,101.6,70.8z M101.6,70.8c0-0.1-0.1-0.2-0.3-0.3
			c-0.1,0-0.1,0-0.2,0H77.8c-0.1,0-0.3,0.1-0.4,0.2c-0.1,0-0.1,0.1-0.1,0.2c0,0.1,0,0.1,0,0.2c0,0.3,0.2,0.6,0.5,0.6h23.4
			c0.1,0,0.3-0.1,0.4-0.2c0.1-0.1,0.2-0.2,0.2-0.4C101.6,70.9,101.6,70.8,101.6,70.8z M101.5,73.8c-0.1-0.1-0.2-0.2-0.4-0.2H77.7
			c-0.1,0-0.1,0-0.2,0c0,0-0.1,0-0.1,0.1l0,0c0,0,0,0,0,0.1c-0.1,0.1-0.1,0.2-0.1,0.3c0,0.3,0.2,0.6,0.5,0.6h23.4
			c0.1,0,0.3-0.1,0.4-0.2c0.1-0.1,0.2-0.2,0.2-0.4C101.6,74,101.6,73.9,101.5,73.8z M101.6,77.1c0-0.1-0.1-0.1-0.1-0.2
			c-0.1-0.1-0.2-0.2-0.4-0.2H77.7c-0.3,0-0.5,0.2-0.5,0.6c0,0.1,0.1,0.3,0.1,0.4c0.1,0.1,0.2,0.2,0.4,0.2h23.4
			c0.1,0,0.3-0.1,0.3-0.2c0.1-0.1,0.2-0.2,0.2-0.4C101.6,77.3,101.6,77.2,101.6,77.1z M101.5,80.1c-0.1-0.1-0.2-0.2-0.4-0.2H77.7
			c-0.3,0-0.5,0.3-0.5,0.6c0,0.3,0.2,0.6,0.5,0.6h23.4c0.1,0,0.3-0.1,0.4-0.2c0.1-0.1,0.2-0.2,0.2-0.4S101.6,80.2,101.5,80.1z
			 M101.6,83.5C101.6,83.4,101.6,83.4,101.6,83.5c-0.1-0.1-0.1-0.2-0.1-0.2c-0.1-0.1-0.2-0.2-0.4-0.2H77.7c-0.3,0-0.5,0.2-0.5,0.6
			c0,0.2,0.1,0.3,0.1,0.4c0.1,0.1,0.2,0.2,0.4,0.2h23.4c0.1,0,0.3-0.1,0.3-0.2c0.1-0.1,0.2-0.2,0.2-0.4
			C101.6,83.6,101.6,83.5,101.6,83.5z M101.5,86.5c0,0-0.1-0.1-0.2-0.1c-0.1,0-0.1,0-0.2,0H77.8c-0.1,0-0.3,0.1-0.4,0.2
			c0,0,0,0,0,0.1c-0.1,0.1-0.1,0.2-0.1,0.3c0,0.1,0.1,0.3,0.1,0.4c0,0,0.1,0.1,0.2,0.1c0.1,0,0.1,0,0.2,0h23.4c0.1,0,0.1,0,0.2,0
			c0.2-0.1,0.3-0.3,0.3-0.5C101.6,86.7,101.6,86.6,101.5,86.5z M101.5,89.7c-0.1-0.1-0.2-0.2-0.4-0.2H77.7c-0.3,0-0.5,0.3-0.5,0.6
			c0,0.2,0.1,0.3,0.1,0.4c0.1,0.1,0.2,0.2,0.4,0.2h23.4c0.1,0,0.3-0.1,0.3-0.2c0.1-0.1,0.2-0.2,0.2-0.4
			C101.6,89.9,101.6,89.8,101.5,89.7z M101.5,89.7c-0.1-0.1-0.2-0.2-0.4-0.2H77.7c-0.3,0-0.5,0.3-0.5,0.6c0,0.2,0.1,0.3,0.1,0.4
			c0.1,0.1,0.2,0.2,0.4,0.2h23.4c0.1,0,0.3-0.1,0.3-0.2c0.1-0.1,0.2-0.2,0.2-0.4C101.6,89.9,101.6,89.8,101.5,89.7z M101.5,86.5
			c0,0-0.1-0.1-0.2-0.1c-0.1,0-0.1,0-0.2,0H77.8c-0.1,0-0.3,0.1-0.4,0.2c0,0,0,0,0,0.1c-0.1,0.1-0.1,0.2-0.1,0.3
			c0,0.1,0.1,0.3,0.1,0.4c0,0,0.1,0.1,0.2,0.1c0.1,0,0.1,0,0.2,0h23.4c0.1,0,0.1,0,0.2,0c0.2-0.1,0.3-0.3,0.3-0.5
			C101.6,86.7,101.6,86.6,101.5,86.5z M101.6,83.5C101.6,83.4,101.6,83.4,101.6,83.5c-0.1-0.1-0.1-0.2-0.1-0.2
			c-0.1-0.1-0.2-0.2-0.4-0.2H77.7c-0.3,0-0.5,0.2-0.5,0.6c0,0.2,0.1,0.3,0.1,0.4c0.1,0.1,0.2,0.2,0.4,0.2h23.4
			c0.1,0,0.3-0.1,0.3-0.2c0.1-0.1,0.2-0.2,0.2-0.4C101.6,83.6,101.6,83.5,101.6,83.5z M101.5,80.1c-0.1-0.1-0.2-0.2-0.4-0.2H77.7
			c-0.3,0-0.5,0.3-0.5,0.6c0,0.3,0.2,0.6,0.5,0.6h23.4c0.1,0,0.3-0.1,0.4-0.2c0.1-0.1,0.2-0.2,0.2-0.4S101.6,80.2,101.5,80.1z
			 M101.6,77.1c0-0.1-0.1-0.1-0.1-0.2c-0.1-0.1-0.2-0.2-0.4-0.2H77.7c-0.3,0-0.5,0.2-0.5,0.6c0,0.1,0.1,0.3,0.1,0.4
			c0.1,0.1,0.2,0.2,0.4,0.2h23.4c0.1,0,0.3-0.1,0.3-0.2c0.1-0.1,0.2-0.2,0.2-0.4C101.6,77.3,101.6,77.2,101.6,77.1z M101.5,73.8
			c-0.1-0.1-0.2-0.2-0.4-0.2H77.7c-0.1,0-0.1,0-0.2,0c0,0-0.1,0-0.1,0.1l0,0c0,0,0,0,0,0.1c-0.1,0.1-0.1,0.2-0.1,0.3
			c0,0.3,0.2,0.6,0.5,0.6h23.4c0.1,0,0.3-0.1,0.4-0.2c0.1-0.1,0.2-0.2,0.2-0.4C101.6,74,101.6,73.9,101.5,73.8z M101.6,70.8
			c0-0.1-0.1-0.2-0.3-0.3c-0.1,0-0.1,0-0.2,0H77.8c-0.1,0-0.3,0.1-0.4,0.2c-0.1,0-0.1,0.1-0.1,0.2c0,0.1,0,0.1,0,0.2
			c0,0.3,0.2,0.6,0.5,0.6h23.4c0.1,0,0.3-0.1,0.4-0.2c0.1-0.1,0.2-0.2,0.2-0.4C101.6,70.9,101.6,70.8,101.6,70.8z M101.6,70.8
			c0-0.1-0.1-0.2-0.3-0.3c-0.1,0-0.1,0-0.2,0H77.8c-0.1,0-0.3,0.1-0.4,0.2c-0.1,0-0.1,0.1-0.1,0.2c0,0.1,0,0.1,0,0.2
			c0,0.3,0.2,0.6,0.5,0.6h23.4c0.1,0,0.3-0.1,0.4-0.2c0.1-0.1,0.2-0.2,0.2-0.4C101.6,70.9,101.6,70.8,101.6,70.8z M101.5,73.8
			c-0.1-0.1-0.2-0.2-0.4-0.2H77.7c-0.1,0-0.1,0-0.2,0c0,0-0.1,0-0.1,0.1l0,0c0,0,0,0,0,0.1c-0.1,0.1-0.1,0.2-0.1,0.3
			c0,0.3,0.2,0.6,0.5,0.6h23.4c0.1,0,0.3-0.1,0.4-0.2c0.1-0.1,0.2-0.2,0.2-0.4C101.6,74,101.6,73.9,101.5,73.8z M101.6,77.1
			c0-0.1-0.1-0.1-0.1-0.2c-0.1-0.1-0.2-0.2-0.4-0.2H77.7c-0.3,0-0.5,0.2-0.5,0.6c0,0.1,0.1,0.3,0.1,0.4c0.1,0.1,0.2,0.2,0.4,0.2
			h23.4c0.1,0,0.3-0.1,0.3-0.2c0.1-0.1,0.2-0.2,0.2-0.4C101.6,77.3,101.6,77.2,101.6,77.1z M101.5,80.1c-0.1-0.1-0.2-0.2-0.4-0.2
			H77.7c-0.3,0-0.5,0.3-0.5,0.6c0,0.3,0.2,0.6,0.5,0.6h23.4c0.1,0,0.3-0.1,0.4-0.2c0.1-0.1,0.2-0.2,0.2-0.4S101.6,80.2,101.5,80.1z
			 M101.6,83.5C101.6,83.4,101.6,83.4,101.6,83.5c-0.1-0.1-0.1-0.2-0.1-0.2c-0.1-0.1-0.2-0.2-0.4-0.2H77.7c-0.3,0-0.5,0.2-0.5,0.6
			c0,0.2,0.1,0.3,0.1,0.4c0.1,0.1,0.2,0.2,0.4,0.2h23.4c0.1,0,0.3-0.1,0.3-0.2c0.1-0.1,0.2-0.2,0.2-0.4
			C101.6,83.6,101.6,83.5,101.6,83.5z M101.5,86.5c0,0-0.1-0.1-0.2-0.1c-0.1,0-0.1,0-0.2,0H77.8c-0.1,0-0.3,0.1-0.4,0.2
			c0,0,0,0,0,0.1c-0.1,0.1-0.1,0.2-0.1,0.3c0,0.1,0.1,0.3,0.1,0.4c0,0,0.1,0.1,0.2,0.1c0.1,0,0.1,0,0.2,0h23.4c0.1,0,0.1,0,0.2,0
			c0.2-0.1,0.3-0.3,0.3-0.5C101.6,86.7,101.6,86.6,101.5,86.5z M101.5,89.7c-0.1-0.1-0.2-0.2-0.4-0.2H77.7c-0.3,0-0.5,0.3-0.5,0.6
			c0,0.2,0.1,0.3,0.1,0.4c0.1,0.1,0.2,0.2,0.4,0.2h23.4c0.1,0,0.3-0.1,0.3-0.2c0.1-0.1,0.2-0.2,0.2-0.4
			C101.6,89.9,101.6,89.8,101.5,89.7z"/>
		<path d="M71.2,90.1c0,0.3-0.2,0.6-0.5,0.6H47.3c0,0-0.1,0-0.1,0c-0.2-0.1-0.4-0.3-0.4-0.5c0-0.3,0.2-0.6,0.5-0.6h23.4
			C71,89.5,71.2,89.8,71.2,90.1z"/>
		<path d="M71.2,80.5c0,0.3-0.2,0.6-0.5,0.6H47.3c0,0-0.1,0-0.1,0c-0.2-0.1-0.4-0.3-0.4-0.5c0-0.3,0.2-0.6,0.5-0.6h23.4
			C71,79.9,71.2,80.2,71.2,80.5z"/>
		<path d="M71.2,86.9c0,0.3-0.2,0.6-0.5,0.6H47.3c-0.2,0-0.4-0.1-0.4-0.3c-0.1-0.1-0.1-0.2-0.1-0.3c0-0.3,0.2-0.6,0.5-0.6h23.4
			C71,86.3,71.2,86.6,71.2,86.9z"/>
		<path d="M71.2,74.2c0,0.3-0.2,0.6-0.5,0.6H47.3c-0.3,0-0.5-0.2-0.5-0.6c0,0,0-0.1,0-0.1l0.5-0.4h23.3C71,73.6,71.2,73.8,71.2,74.2
			z"/>
		<path fill="#231F20" d="M97,107.8c-0.2,0.1-0.3,0.2-0.5,0.3C96.7,108,96.9,107.9,97,107.8l12.9-12L97,107.8z"/>
		<path d="M109.2,9.8H39.1c-0.6,0-1,0.5-1,1.1v96c0,0.6,0.4,1.1,1,1.1h57.2c0.1,0,0.1,0,0.2,0c0.2,0,0.3-0.1,0.5-0.3l12.9-12
			c0.2-0.2,0.3-0.4,0.3-0.6c0-0.1,0-0.2,0-0.3v-84C110.2,10.3,109.8,9.8,109.2,9.8z M97.3,104.5v-2.8l6.9-5.7h2.2L97.3,104.5z
			 M99.8,96.1h2.8l-5.2,4.3v-2.3L99.8,96.1z M97.3,96.7v-0.7h0.8L97.3,96.7z M108.2,93.8H96.3c-0.6,0-1,0.5-1,1.1v10.9H40.1V12h68.1
			V93.8z"/>
		<path fill="none" d="M101.1,70.4c0.1,0,0.1,0,0.2,0C101.3,70.4,101.2,70.4,101.1,70.4l-23.4,0c-0.1,0-0.3,0.1-0.4,0.2
			c0.1-0.1,0.2-0.2,0.4-0.2H101.1z M77.7,86.3c-0.1,0-0.3,0.1-0.4,0.2C77.5,86.4,77.6,86.3,77.7,86.3l23.4,0c0.1,0,0.1,0,0.2,0
			c-0.1,0-0.1-0.1-0.2-0.1H77.7z"/>
		<path fill="#FFFFFF" d="M40.1,12v93.8h55.2V94.9c0-0.6,0.4-1.1,1-1.1h11.9V12H40.1z M70.7,90.6H47.3c0,0-0.1,0-0.1,0
			c-0.2-0.1-0.4-0.3-0.4-0.5c0-0.3,0.2-0.6,0.5-0.6h23.4c0.3,0,0.5,0.3,0.5,0.6C71.2,90.4,71,90.6,70.7,90.6z M70.7,87.4H47.3
			c-0.2,0-0.4-0.1-0.4-0.3c-0.1-0.1-0.1-0.2-0.1-0.3c0-0.3,0.2-0.6,0.5-0.6h23.4c0.3,0,0.5,0.2,0.5,0.6C71.2,87.2,71,87.4,70.7,87.4
			z M70.7,84.3H47.3c-0.3,0-0.5-0.3-0.5-0.6c0,0,0-0.1,0-0.1c0-0.3,0.2-0.4,0.5-0.4h23.4c0.3,0,0.5,0.3,0.5,0.6
			C71.2,84,71,84.3,70.7,84.3z M70.7,81.1H47.3c0,0-0.1,0-0.1,0c-0.2-0.1-0.4-0.3-0.4-0.5c0-0.3,0.2-0.6,0.5-0.6h23.4
			c0.3,0,0.5,0.3,0.5,0.6C71.2,80.8,71,81.1,70.7,81.1z M70.7,77.9H47.3c-0.2,0-0.4-0.1-0.4-0.3c-0.1-0.1-0.1-0.2-0.1-0.3
			c0-0.3,0.2-0.6,0.5-0.6h23.4c0.3,0,0.5,0.3,0.5,0.6C71.2,77.6,71,77.9,70.7,77.9z M70.7,74.7H47.3c-0.3,0-0.5-0.2-0.5-0.6
			c0,0,0-0.1,0-0.1c0-0.2,0.2-0.4,0.5-0.4h23.4c0.3,0,0.5,0.3,0.5,0.6S71,74.7,70.7,74.7z M70.7,71.5H47.3c-0.3,0-0.5-0.2-0.5-0.6
			c0-0.3,0.2-0.6,0.5-0.6h23.4c0.2,0,0.4,0.2,0.5,0.4c0,0,0,0.1,0,0.2C71.2,71.3,71,71.5,70.7,71.5z M101.5,90.4
			c-0.1,0.1-0.2,0.2-0.3,0.2H77.8c-0.1,0-0.3-0.1-0.4-0.2c-0.1-0.1-0.1-0.2-0.1-0.4c0-0.3,0.2-0.6,0.5-0.6h23.4
			c0.1,0,0.3,0.1,0.4,0.2c0.1,0.1,0.2,0.2,0.2,0.4C101.6,90.2,101.6,90.4,101.5,90.4z M101.3,87.4c-0.1,0-0.1,0-0.2,0H77.7
			c-0.1,0-0.1,0-0.2,0c-0.1,0-0.1-0.1-0.2-0.1c-0.1-0.1-0.1-0.2-0.1-0.4c0-0.1,0-0.2,0.1-0.3c0,0,0,0,0-0.1c0.1-0.1,0.2-0.2,0.4-0.2
			h23.4c0.1,0,0.1,0,0.2,0.1c0.1,0,0.1,0.1,0.2,0.1c0.1,0.1,0.1,0.2,0.1,0.4C101.6,87.1,101.5,87.3,101.3,87.4z M101.5,84.1
			c-0.1,0.1-0.2,0.2-0.3,0.2H77.8c-0.1,0-0.3-0.1-0.4-0.2c-0.1-0.1-0.1-0.2-0.1-0.4c0-0.3,0.2-0.6,0.5-0.6h23.4
			c0.1,0,0.3,0.1,0.4,0.2c0,0,0,0,0.1,0.1c0,0,0,0.1,0,0.1c0,0.1,0.1,0.1,0.1,0.2C101.6,83.9,101.6,84,101.5,84.1z M101.5,80.9
			c-0.1,0.1-0.2,0.2-0.4,0.2H77.7c-0.3,0-0.5-0.3-0.5-0.6c0-0.3,0.2-0.6,0.5-0.6h23.4c0.1,0,0.3,0.1,0.4,0.2
			c0.1,0.1,0.2,0.2,0.2,0.4S101.6,80.8,101.5,80.9z M101.5,77.7c-0.1,0.1-0.2,0.2-0.3,0.2H77.8c-0.1,0-0.3-0.1-0.4-0.2
			c-0.1-0.1-0.1-0.3-0.1-0.4c0-0.3,0.2-0.6,0.5-0.6h23.4c0.1,0,0.3,0.1,0.4,0.2c0,0,0.1,0.1,0.1,0.2c0,0.1,0.1,0.2,0.1,0.2
			C101.6,77.5,101.6,77.7,101.5,77.7z M101.5,74.6c-0.1,0.1-0.2,0.2-0.4,0.2H77.7c-0.3,0-0.5-0.3-0.5-0.6c0-0.1,0-0.2,0.1-0.3
			c0,0,0,0,0-0.1c0,0,0,0,0,0c0,0,0.1-0.1,0.1-0.1c0.1,0,0.1,0,0.2,0h23.4c0.1,0,0.3,0.1,0.4,0.2c0.1,0.1,0.1,0.2,0.1,0.4
			C101.6,74.3,101.6,74.5,101.5,74.6z M101.5,71.4c-0.1,0.1-0.2,0.2-0.4,0.2H77.7c-0.3,0-0.5-0.2-0.5-0.6c0-0.1,0-0.2,0-0.2
			c0-0.1,0-0.1,0.1-0.2c0.1-0.1,0.2-0.2,0.4-0.2h23.4c0.1,0,0.1,0,0.2,0.1c0.1,0,0.2,0.2,0.3,0.3c0,0.1,0.1,0.1,0.1,0.2
			C101.6,71.1,101.6,71.3,101.5,71.4z M101.1,65.9H47.3c-0.3,0-0.5-0.1-0.8-0.3c-0.2-0.2-0.3-0.5-0.3-0.8c0-0.6,0.5-1.1,1-1.1h53.8
			c0.6,0,1,0.5,1,1.1C102.1,65.4,101.7,65.9,101.1,65.9z M101.1,61.1H47.3c-0.5,0-1-0.5-1-1.1c0,0,0,0,0,0c0-0.6,0.5-1.1,1-1.1h53.8
			c0.6,0,1,0.5,1,1.1C102.1,60.6,101.7,61.1,101.1,61.1z M102.1,53.4c0,0.6-0.4,1.1-1,1.1H47.3c-0.1,0-0.3,0-0.4-0.1
			c-0.3-0.2-0.6-0.6-0.6-1V19.7c0-0.6,0.5-1.1,1-1.1h53.8c0.6,0,1,0.5,1,1.1V53.4z"/>
		<path d="M101.1,18.6H47.3c-0.5,0-1,0.5-1,1.1v33.7c0,0.4,0.3,0.8,0.6,1c0.1,0.1,0.3,0.1,0.4,0.1h53.8c0.6,0,1-0.5,1-1.1V19.7
			C102.1,19.1,101.7,18.6,101.1,18.6z M48.4,20.8h3.9L48.4,24V20.8z M48.4,25.4l5.6-4.6h2.7l-8.3,6.8V25.4z M48.4,29.1l10-8.2h2.7
			L48.4,31.3V29.1z M48.4,32.7l14.4-11.9h2.8L48.4,35V32.7z M48.4,36.4l18.9-15.5H70L48.4,38.6V36.4z M48.4,40l23.3-19.2h2.8
			l-26,21.4V40z M48.4,43.6l27.7-22.8h2.7L48.4,45.9V43.6z M48.4,47.3l32.2-26.5h2.7L48.4,49.5V47.3z M48.4,52.3V51L85,20.8h2.7
			L49.5,52.3H48.4z M51.2,52.3l38.2-31.4h2.7L53.9,52.3H51.2z M55.6,52.3l38.2-31.4h2.7L58.3,52.3H55.6z M100.1,52.3h-4.7l4.7-3.8
			V52.3z M100.1,47l-6.4,5.2H91l9.1-7.5V47z M100.1,43.4l-10.8,8.9h-2.7l13.5-11.1V43.4z M100.1,39.7L84.9,52.3h-2.7l18-14.8V39.7z
			 M100.1,36.1L80.5,52.3h-2.7l22.4-18.4V36.1z M100.1,32.5L76,52.3h-2.7l26.8-22.1V32.5z M100.1,28.8L71.6,52.3h-2.7l31.2-25.7
			V28.8z M100.1,25.2L67.2,52.3h-2.7l35.7-29.3V25.2z M100.1,21.5L62.8,52.3H60l38.2-31.4h1.9V21.5z"/>
		<path d="M71.2,83.7c0,0.3-0.2,0.6-0.5,0.6H47.3c-0.3,0-0.5-0.3-0.5-0.6c0,0,0-0.1,0-0.1l0.5-0.4h23.3C71,83.1,71.2,83.4,71.2,83.7
			z"/>
	</g>
	<g>
		<polygon fill="#A09C9E" points="98.1,96.1 97.3,96.7 97.3,96.1 		"/>
		<polygon fill="#A09C9E" points="102.6,96.1 97.3,100.3 97.3,98.1 99.8,96.1 		"/>
		<polygon fill="#A09C9E" points="106.4,96.1 97.3,104.5 97.3,101.7 104.2,96.1 		"/>
	</g>
	<g>
		<polygon fill="#A09C9E" points="52.3,20.8 48.3,24.1 48.3,20.8 		"/>
		<polygon fill="#A09C9E" points="56.7,20.8 48.3,27.7 48.3,25.4 54,20.8 		"/>
		<polygon fill="#A09C9E" points="61.1,20.8 48.3,31.3 48.3,29.1 58.4,20.8 		"/>
		<polygon fill="#A09C9E" points="65.5,20.8 48.3,35 48.3,32.7 62.8,20.8 		"/>
		<polygon fill="#A09C9E" points="70,20.8 48.3,38.6 48.3,36.4 67.2,20.8 		"/>
		<polygon fill="#A09C9E" points="74.4,20.8 48.3,42.3 48.3,40 71.6,20.8 		"/>
		<polygon fill="#A09C9E" points="78.8,20.8 48.3,45.9 48.3,43.7 76.1,20.8 		"/>
		<polygon fill="#A09C9E" points="83.2,20.8 48.3,49.5 48.3,47.3 80.5,20.8 		"/>
		<polygon fill="#A09C9E" points="87.7,20.8 49.5,52.3 48.3,52.3 48.3,50.9 85,20.8 		"/>
		<polygon fill="#A09C9E" points="92.1,20.8 53.9,52.3 51.2,52.3 89.4,20.8 		"/>
		<polygon fill="#A09C9E" points="96.5,20.8 58.3,52.3 55.6,52.3 93.8,20.8 		"/>
		<polygon fill="#A09C9E" points="100.1,20.8 100.1,21.5 62.8,52.3 60,52.3 98.3,20.8 		"/>
		<polygon fill="#A09C9E" points="100.1,22.9 100.1,25.2 67.2,52.3 64.5,52.3 		"/>
		<polygon fill="#A09C9E" points="100.1,26.6 100.1,28.8 71.6,52.3 68.9,52.3 		"/>
		<polygon fill="#A09C9E" points="100.1,30.2 100.1,32.5 76,52.3 73.3,52.3 		"/>
		<polygon fill="#A09C9E" points="100.1,33.9 100.1,36.1 80.5,52.3 77.7,52.3 		"/>
		<polygon fill="#A09C9E" points="100.1,37.5 100.1,39.7 84.9,52.3 82.2,52.3 		"/>
		<polygon fill="#A09C9E" points="100.1,41.1 100.1,43.4 89.3,52.3 86.6,52.3 		"/>
		<polygon fill="#A09C9E" points="100.1,44.8 100.1,47 93.8,52.3 91,52.3 		"/>
		<polygon fill="#A09C9E" points="95.5,52.3 100.1,48.4 100.1,52.3 		"/>
	</g>
	<path d="M102.1,59.9c0,0.6-0.4,1.1-1,1.1H47.3c-0.5,0-1-0.5-1-1.1c0,0,0,0,0,0c0-0.6,0.5-1.1,1-1.1h53.8
		C101.7,58.8,102.1,59.3,102.1,59.9z"/>
	<path d="M102.1,64.8c0,0.6-0.4,1.1-1,1.1H47.3c-0.3,0-0.5-0.1-0.8-0.3c-0.2-0.2-0.3-0.5-0.3-0.8c0-0.6,0.5-1.1,1-1.1h53.8
		C101.7,63.7,102.1,64.2,102.1,64.8z"/>
	<path d="M101.6,71c0,0.2-0.1,0.3-0.1,0.4c-0.1,0.1-0.2,0.2-0.4,0.2H77.7c-0.3,0-0.5-0.2-0.5-0.6c0-0.1,0-0.1,0-0.2
		c0-0.1,0-0.1,0.1-0.2c0.1-0.1,0.2-0.2,0.4-0.2h23.4c0.1,0,0.1,0,0.2,0.1c0.1,0,0.2,0.2,0.3,0.3C101.6,70.8,101.6,70.9,101.6,71z"/>
	<path d="M71.2,71c0,0.3-0.2,0.6-0.5,0.6H47.3c-0.3,0-0.5-0.2-0.5-0.6c0-0.3,0.2-0.6,0.5-0.6h23.4c0.2,0,0.4,0.2,0.5,0.4
		C71.2,70.9,71.2,70.9,71.2,71z"/>
	<path d="M101.6,74.2c0,0.2-0.1,0.3-0.1,0.4c-0.1,0.1-0.2,0.2-0.4,0.2H77.7c-0.3,0-0.5-0.3-0.5-0.6c0-0.1,0-0.2,0.1-0.3
		c0,0,0,0,0-0.1l0,0c0,0,0.1-0.1,0.1-0.1c0.1,0,0.1,0,0.2,0h23.4c0.1,0,0.3,0.1,0.4,0.2C101.6,73.9,101.6,74,101.6,74.2z"/>
	<path d="M47.4,73.6L46.9,74C46.9,73.8,47.1,73.6,47.4,73.6L47.4,73.6z"/>
	<path d="M101.6,77.3c0,0.1-0.1,0.3-0.1,0.4c-0.1,0.1-0.2,0.2-0.4,0.2H77.7c-0.1,0-0.3-0.1-0.4-0.2c-0.1-0.1-0.1-0.3-0.1-0.4
		c0-0.3,0.2-0.6,0.5-0.6h23.4c0.1,0,0.3,0.1,0.4,0.2c0,0,0.1,0.1,0.1,0.2C101.6,77.2,101.6,77.3,101.6,77.3z"/>
	<path d="M71.2,77.4c0,0.3-0.2,0.6-0.5,0.6H47.3c-0.2,0-0.4-0.1-0.4-0.3c-0.1-0.1-0.1-0.2-0.1-0.3c0-0.3,0.2-0.6,0.5-0.6h23.4
		C71,76.8,71.2,77,71.2,77.4z"/>
	<path d="M101.6,80.5c0,0.2-0.1,0.3-0.1,0.4c-0.1,0.1-0.2,0.2-0.4,0.2H77.7c-0.3,0-0.5-0.3-0.5-0.6c0-0.3,0.2-0.6,0.5-0.6h23.4
		c0.1,0,0.3,0.1,0.4,0.2C101.6,80.2,101.6,80.4,101.6,80.5z"/>
	<path d="M101.6,83.7c0,0.2-0.1,0.3-0.1,0.4c-0.1,0.1-0.2,0.2-0.4,0.2H77.7c-0.1,0-0.3-0.1-0.4-0.2c-0.1-0.1-0.1-0.2-0.1-0.4
		c0-0.3,0.2-0.6,0.5-0.6h23.4c0.1,0,0.3,0.1,0.4,0.2c0,0,0.1,0.1,0.1,0.2C101.6,83.5,101.6,83.6,101.6,83.7z"/>
	<path d="M47.4,83.1l-0.5,0.4C46.9,83.3,47.1,83.1,47.4,83.1L47.4,83.1z"/>
	<path d="M101.6,86.9c0,0.2-0.1,0.4-0.3,0.5c-0.1,0-0.1,0-0.2,0H77.7c-0.1,0-0.1,0-0.2,0c-0.1,0-0.1-0.1-0.2-0.1
		c-0.1-0.1-0.1-0.2-0.1-0.4c0-0.1,0-0.2,0.1-0.3c0,0,0,0,0-0.1c0.1-0.1,0.2-0.2,0.4-0.2h23.4c0.1,0,0.1,0,0.2,0.1
		c0.1,0,0.1,0.1,0.2,0.1C101.6,86.6,101.6,86.7,101.6,86.9z"/>
	<path d="M101.6,90.1c0,0.2-0.1,0.3-0.1,0.4c-0.1,0.1-0.2,0.2-0.4,0.2H77.7c-0.1,0-0.3-0.1-0.4-0.2c-0.1-0.1-0.1-0.2-0.1-0.4
		c0-0.3,0.2-0.6,0.5-0.6h23.4c0.1,0,0.3,0.1,0.4,0.2C101.6,89.8,101.6,89.9,101.6,90.1z"/>
	<path d="M47.4,73.6L46.9,74C46.9,73.8,47.1,73.6,47.4,73.6L47.4,73.6z"/>
</g>
<rect x="24.1" y="119" fill="none" width="102.8" height="26"/>
<text transform="matrix(1 0 0 1 44.8579 127.5671)" font-family="'HelveticaNeue'" font-size="12">Print Media</text>
</svg>
