<?xml version="1.0" encoding="utf-8"?>
<!-- Generator: Adobe Illustrator 18.1.0, SVG Export Plug-In . SVG Version: 6.00 Build 0)  -->
<!DOCTYPE svg PUBLIC "-//W3C//DTD SVG 1.1//EN" "http://www.w3.org/Graphics/SVG/1.1/DTD/svg11.dtd">
<svg version="1.1" id="Layer_1" xmlns="http://www.w3.org/2000/svg" xmlns:xlink="http://www.w3.org/1999/xlink" x="0px" y="0px"
	 viewBox="0 0 144 144" enable-background="new 0 0 144 144" xml:space="preserve">
<g>
	<path fill="#FFFFFF" d="M100.2,53.2c-0.2,0.2-0.3,0.4-0.4,0.6c-0.1,0.1-0.2,0.2-0.2,0.3c-1.3,1.7-2.7,3.5-4.1,5.1
		c0.6,0.7,1.5,2,2.7,4c0.1,0.3,0.1,0.6,0,0.9C83.7,85,58.5,88.9,58.2,88.9h-0.1c-0.3,0-0.5-0.1-0.6-0.3l-2.7-3.5
		c-0.7,0.2-1.3,0.3-1.9,0.5c-3,0.7-5.2,1-6.5,1c-0.4,0-1.3,0-1.8-0.7l-0.5-0.7c-1-1.4-3.4-4.7-5.1-7.2c-0.3-0.4-0.6-0.8-0.8-1.2
		c-0.1-0.1-0.2-0.3-0.2-0.4c-0.7-0.4-1.1-1-1.4-1.5c-0.8-1.5-0.3-3.5,1.1-4.6c5-3.9,8.9-9.7,10.4-12.1c0.3-0.5,0.5-1,0.7-1.5
		c2.8-10.8-5.5-16.2-8.8-17.8c0,0,0,0,0,0c-7.6-1.6-13.4-8.3-13.4-16.4c0-10.1,9.1-18.2,19.5-16.5c8.2,1.3,14.4,9,13.9,17.3
		c0,0.7-0.1,1.4-0.3,2c0.1,3,1.2,13.8,12.9,15.8c0.5,0.1,1,0.1,1.6,0c2.7-0.3,9.6-1.5,15.2-4.5c1.7-0.9,3.6-0.5,4.7,0.8
		c0.7,0.9,1,1.9,0.9,3.1l1,1.7l3.3,6.4c0,0,0,0,0.1,0.1l1,2C100.7,51.6,100.7,52.4,100.2,53.2z"/>
	<path fill="#A09C9E" d="M100.4,50.9l-1-2c0,0-0.1-0.1-0.1-0.1L96,42.4l-1-1.7c0.1-1.1-0.2-2.2-0.9-3.1c-1.1-1.4-3-1.7-4.7-0.8
		c-5.6,3-12.5,4.1-15.2,4.5c-0.6,0.1-1.1,0.1-1.6,0c-11.7-2-12.8-12.8-12.9-15.8c0.1-0.6,0.2-1.3,0.3-2c0.5-8.3-5.7-16-13.9-17.3
		c-10.4-1.7-19.5,6.4-19.5,16.5c0,8,5.8,14.8,13.4,16.4c0,0,0,0,0,0c3.3,1.7,11.7,7,8.8,17.8c-0.1,0.4-0.3,1-0.7,1.5
		c-1.4,2.3-5.3,8.1-10.4,12.1c-1.5,1.1-1.9,3.1-1.1,4.6c0.3,0.4,0.7,1,1.4,1.5c0.1,0.1,0.1,0.3,0.2,0.4c0.2,0.3,0.5,0.8,0.8,1.2
		c1.6,2.4,4,5.8,5.1,7.2l0.5,0.7c0.5,0.7,1.4,0.7,1.8,0.7c1.2,0,3.5-0.3,6.5-1c0.6-0.1,1.2-0.3,1.9-0.5l2.7,3.5
		c0.2,0.2,0.4,0.3,0.6,0.3h0.1c0.3,0,25.5-3.9,39.9-24.9c0.2-0.3,0.2-0.6,0-0.9c-1.2-2.1-2.1-3.3-2.7-4c1.4-1.6,2.8-3.3,4.1-5.1
		c0-0.1,0.1-0.2,0.2-0.3c0.1-0.2,0.3-0.4,0.4-0.6C100.7,52.4,100.7,51.6,100.4,50.9z M56.8,22.6c0,0.4,0,0.9-0.1,1.3l-0.2,1.3
		c0,1.1,0.2,3.4,1,6.1c1.5,5.1,5.2,11.5,14.6,13.1c0.8,0.1,1.6,0.1,2.5,0c2.9-0.4,10.2-1.6,16.3-4.8c0.3-0.2,0.6-0.1,0.7,0
		c0.1,0.2,0.3,0.5,0.2,1c0,0.1,0,0.3-0.1,0.4c-0.2,0.7-0.6,1.7-1.6,2.9c-0.1,0.1-0.2,0.2-0.3,0.3c0,0.1-0.1,0.1-0.1,0.2
		c-0.2,0.2-0.4,0.5-0.6,0.7c0,0-0.1,0.1-0.1,0.1c-2.9,3.3-8.6,8.4-19.6,16c-1.6,1-3.1,1.8-4.5,2.6c1.1-6.7,1.3-20.4-11.5-29.6
		c-13.3-9.4-15-20.3-15-24.4c0.5-0.2,1-0.3,1.5-0.5C48.8,7.3,56.8,14.1,56.8,22.6z M96.5,63.5c-6,8.5-13.8,14.1-20.8,17.6l-2.3-3.9
		c6.6-3.8,13.8-9.1,20.4-16.3c0.2-0.2,0.4-0.4,0.6-0.6C95,61.1,95.8,62.4,96.5,63.5z M85.4,64.7l-0.2,0.1c-0.4,0.4-0.8,0.7-1.2,1
		c-4.5,3.9-9.1,6.9-13.4,9.3L66,67c1.6-0.9,3.3-1.9,5.1-3c12-8.3,19.4-14.7,22.4-19.4l3.8,7.3C93.5,56.9,89.5,61.2,85.4,64.7z"/>
	<path fill="#282626" d="M100.4,50.9l-1-2c0,0-0.1-0.1-0.1-0.1L96,42.4l-1-1.7c0.1-1.1-0.2-2.2-0.9-3.1c-1.1-1.4-3-1.7-4.7-0.8
		c-5.6,3-12.5,4.1-15.2,4.5c-0.6,0.1-1.1,0.1-1.6,0c-11.7-2-12.8-12.8-12.9-15.8c0.1-0.6,0.2-1.3,0.3-2c0.5-8.3-5.7-16-13.9-17.3
		c-10.4-1.7-19.5,6.4-19.5,16.5c0,8,5.8,14.8,13.4,16.4c0,0,0,0,0,0c3.3,1.7,11.7,7,8.8,17.8c-0.1,0.4-0.3,1-0.7,1.5
		c-1.4,2.3-5.3,8.1-10.4,12.1c-1.5,1.1-1.9,3.1-1.1,4.6c0.3,0.4,0.7,1,1.4,1.5c0.1,0.1,0.1,0.3,0.2,0.4c0.2,0.3,0.5,0.8,0.8,1.2
		c1.6,2.4,4,5.8,5.1,7.2l0.5,0.7c0.5,0.7,1.4,0.7,1.8,0.7c1.2,0,3.5-0.3,6.5-1c0.6-0.1,1.2-0.3,1.9-0.5c0.3-0.1,0.5-0.1,0.8-0.2
		c0.3-0.1,0.5-0.2,0.8-0.3c4.4-1.3,9.8-3.3,15.7-6.6c0.4-0.3,0.9-0.5,1.4-0.8c6.6-3.8,13.8-9.1,20.4-16.3c0.2-0.2,0.4-0.4,0.6-0.6
		c0.1-0.1,0.3-0.3,0.4-0.4c0.3-0.3,0.5-0.5,0.7-0.8c1.4-1.6,2.8-3.3,4.1-5.1c0-0.1,0.1-0.2,0.2-0.3c0.1-0.2,0.3-0.4,0.4-0.6
		C100.7,52.4,100.7,51.6,100.4,50.9z M40.1,73.8c-0.5-0.1-0.6-0.3-0.7-0.4c-0.1-0.1,0-0.4,0.3-0.6l0,0c0.3-0.2,0.5-0.4,0.8-0.7
		c5-4.2,8.8-9.8,10.2-12.2c0.5-0.8,0.8-1.6,1-2.3c2.4-9.1-1.9-15.1-6-18.5c-1.9-1.6-3.8-2.6-4.9-3.2c-0.7-0.1-1.4-0.3-2.1-0.5
		c-6.3-2.2-10.5-8.9-8.6-16.3c0.9-3.6,3.4-6.7,6.7-8.4c0.5-0.3,1-0.5,1.6-0.7c0.5-0.2,1-0.3,1.5-0.5c8.9-2.2,16.9,4.6,16.9,13.1
		c0,0.4,0,0.9-0.1,1.3l-0.2,1.3c0,1.1,0.2,3.4,1,6.1c1.5,5.1,5.2,11.5,14.6,13.1c0.8,0.1,1.6,0.1,2.5,0c2.9-0.4,10.2-1.6,16.3-4.8
		c0.3-0.2,0.6-0.1,0.7,0c0.1,0.2,0.3,0.5,0.2,1c0,0.1,0,0.3-0.1,0.4c-0.2,0.7-0.6,1.7-1.6,2.9c-0.1,0.1-0.2,0.2-0.3,0.3
		c0,0.1-0.1,0.1-0.1,0.2c-0.2,0.2-0.4,0.5-0.6,0.7c0,0-0.1,0.1-0.1,0.1c-2.9,3.3-8.6,8.4-19.6,16c-1.6,1-3.1,1.8-4.5,2.6
		c-0.6,0.4-1.2,0.7-1.8,1C46.9,74.1,41.7,74.2,40.1,73.8z M85.4,64.7l-0.2,0.1c-0.4,0.4-0.8,0.7-1.2,1c-4.5,3.9-9.1,6.9-13.4,9.3
		c-0.5,0.3-1,0.5-1.4,0.7c-2.1,1.1-4.1,2-6,2.8l0,0c-1.2,0.5-2.3,0.9-3.4,1.3c-6.8,2.4-11.7,3.1-13,3.2h0c-0.9-1.3-2.8-4-4.5-6.3
		c4.7-0.4,12.1-3.5,22.4-9.3c0.4-0.3,0.9-0.5,1.4-0.8c1.6-0.9,3.3-1.9,5.1-3c12-8.3,19.4-14.7,22.4-19.4l3.8,7.3
		C93.5,56.9,89.5,61.2,85.4,64.7z"/>
	<path fill="#282626" d="M65,63.9c-0.1,0.3-0.1,0.6-0.2,0.8c-0.2,1-0.3,1.7-0.5,2.3v0C64.1,67.7,64,68,64,68l-1.5-0.5
		c0,0,0.3-1,0.6-2.5c1.2-5.7,2.4-20-10.6-29.3c-13.3-9.5-15.5-20.2-15.7-25c-0.1-1.5,0-2.4,0-2.6l1.6,0.2c0,0-0.1,0.6-0.1,1.7
		c0.1,4.1,1.7,15,15,24.4C66.3,43.5,66.1,57.2,65,63.9z"/>
	<path fill="#282626" d="M98.2,63.2c-1.2-2.1-2.1-3.3-2.7-4C94.6,58,94.2,58,94,58c-0.2,0-0.5,0.1-0.6,0.3
		C85.6,66,77.6,71.6,70.8,75.3c-0.5,0.3-1,0.5-1.4,0.8c-8.8,4.7-15.1,6.4-15.2,6.4c-0.3,0.1-0.5,0.3-0.6,0.5c-0.1,0.3,0,0.5,0.1,0.7
		l1,1.3l2.7,3.5c0.2,0.2,0.4,0.3,0.6,0.3h0.1c0.3,0,25.5-3.9,39.9-24.9C98.3,63.8,98.3,63.4,98.2,63.2z M75.7,81.2
		c-0.5,0.3-1,0.5-1.4,0.7c-7.6,3.7-14.1,5.1-15.8,5.4l-2.1-2.7l-0.7-0.9c2.3-0.7,7.6-2.6,14.4-6.3l1.4-0.8
		C78.3,73,86.3,67.5,94,59.8c0.1,0.1,0.2,0.3,0.4,0.5c0.6,0.8,1.4,2,2.1,3.2C90.5,72,82.7,77.6,75.7,81.2z"/>
	<polygon fill="#282626" points="71.5,76.7 70.1,77.5 69.4,76.1 69.3,75.9 64.7,67.7 64.3,67.1 63.3,65.3 64.7,64.5 64.8,64.7 
		66,67 70.7,75.2 70.8,75.3 	"/>
	<polygon fill="#282626" points="76.2,82.1 74.8,82.8 74.2,81.9 72,78 71.4,77 72.8,76.2 73.4,77.3 75.7,81.2 	"/>
	<path fill="#282626" d="M116.9,96.6L116.9,96.6c-0.1-0.6-0.4-1.1-0.8-1.6c-0.4-0.5-0.9-0.9-1.5-1.4c-0.5-0.3-1-0.6-1.6-0.9
		c-0.6-0.3-1.4-0.6-2.1-0.9c-0.6-0.2-1.3-0.4-2-0.6c-0.8-0.2-1.6-0.4-2.5-0.6c-0.7-0.2-1.5-0.3-2.3-0.4c-0.9-0.1-1.8-0.3-2.7-0.4
		c-0.8-0.1-1.6-0.2-2.4-0.3c-0.9-0.1-1.9-0.2-2.9-0.2c-0.9-0.1-1.7-0.1-2.6-0.1c-1,0-2.1-0.1-3.1-0.1c-0.3,0-0.6,0-0.9,0
		c-0.6,0-1.2,0-1.8,0c-1.1,0-2.2,0.1-3.3,0.1c-1,0.1-2.1,0.1-3.1,0.2c-1.2,0.1-2.5,0.2-3.7,0.4c-1.2,0.1-2.3,0.3-3.4,0.5
		c-1.6,0.3-3.1,0.6-4.5,1c-4.6,1.4-7.7,3.3-7.7,5.8c0,0.2,0,0.3,0,0.5c0.1,0.7,0.4,1.3,0.9,1.8c0.4,0.4,0.8,0.8,1.3,1.2
		c0.5,0.4,1.2,0.7,1.9,1c0.6,0.3,1.2,0.5,1.9,0.7c0.7,0.3,1.5,0.5,2.3,0.7c0.7,0.2,1.4,0.4,2.1,0.5c0.8,0.2,1.7,0.3,2.6,0.5
		c0.8,0.1,1.5,0.2,2.4,0.3c0.9,0.1,1.8,0.2,2.8,0.3c0.8,0.1,1.7,0.2,2.5,0.2c1,0.1,2,0.1,3,0.1c0.9,0,1.8,0.1,2.7,0.1
		c0.3,0,0.6,0,1,0c0.7,0,1.5,0,2.3,0c1,0,2,0,2.9-0.1c1.2-0.1,2.4-0.2,3.5-0.3c1.1-0.1,2.2-0.2,3.2-0.4c1.4-0.2,2.7-0.4,3.9-0.6
		c1.4-0.3,2.7-0.6,3.9-0.9c4.7-1.3,7.8-3.3,7.8-5.8C116.9,96.9,116.9,96.8,116.9,96.6z M66,99.2c-0.6-0.4-1.1-0.7-1.4-1.1l6.1-5
		c1.1-0.3,2.5-0.6,3.9-0.9L66,99.2z M70,100.8c-0.7-0.2-1.4-0.4-2-0.7l10.4-8.5c1-0.1,2.1-0.3,3.2-0.3L70,100.8z M74.6,101.9
		c-0.8-0.2-1.5-0.3-2.2-0.5l12.7-10.4c0.9,0,1.9-0.1,2.9-0.1L74.6,101.9z M79.7,102.7c-0.8-0.1-1.6-0.2-2.4-0.3l13.9-11.3
		c0.9,0,1.8,0,2.7,0.1L79.7,102.7z M85.1,103.1c-0.9-0.1-1.7-0.1-2.6-0.2l14.3-11.6c0.9,0.1,1.7,0.2,2.5,0.2L85.1,103.1z M91,103.2
		c-0.5,0-1,0-1.5,0c-0.4,0-0.9,0-1.3,0L102,91.9c0.8,0.1,1.6,0.3,2.3,0.4L91,103.2z M97.3,102.9c-1,0.1-2,0.2-3,0.2l12.6-10.3
		c0.7,0.2,1.4,0.4,2.1,0.6L97.3,102.9z M101,102.5l10.2-8.3c0.7,0.3,1.2,0.5,1.7,0.8l-8.5,7C103.3,102.1,102.2,102.3,101,102.5z
		 M108.9,100.9l5.6-4.6c0.2,0.3,0.4,0.6,0.4,0.9C114.9,98.3,112.8,99.7,108.9,100.9z"/>
</g>
<rect x="20.3" y="119" fill="none" width="102.8" height="26"/>
<text transform="matrix(1 0 0 1 20.3332 127.5671)" font-family="'HelveticaNeue'" font-size="12">Branding &amp; Identity</text>
</svg>
