<?xml version="1.0" encoding="utf-8"?>
<!-- Generator: Adobe Illustrator 18.1.0, SVG Export Plug-In . SVG Version: 6.00 Build 0)  -->
<!DOCTYPE svg PUBLIC "-//W3C//DTD SVG 1.1//EN" "http://www.w3.org/Graphics/SVG/1.1/DTD/svg11.dtd">
<svg version="1.1" id="Layer_1" xmlns="http://www.w3.org/2000/svg" xmlns:xlink="http://www.w3.org/1999/xlink" x="0px" y="0px"
	 viewBox="0 0 144 144" enable-background="new 0 0 144 144" xml:space="preserve">
<g>
	<path fill="#FCFCFC" d="M94.8,20.2v76.3c0,3.6-1.6,6.5-4,7.7c-0.1,0.1-0.2,0.2-0.4,0.2l-0.6,0.2l-4.3,1.6c-0.6,0.4-1.3,0.6-2,0.7h0
		c-0.2,0.1-0.3,0.1-0.4,0.1c0,0,0,0-0.1,0H83c-0.2,0.1-0.4,0.1-0.6,0.1c-0.5,0-0.9-0.1-1.4-0.2L56,101.3c-4.1-0.9-7.3-5.7-7.3-10.9
		V16.2c0-3.2,1.2-5.8,3.2-7.3c0.1,0,0.1-0.1,0.1-0.1c0.1-0.1,0.2-0.1,0.2-0.2l0.1-0.1c0.7-0.4,1.4-0.7,2.1-0.9l4-1.6h0l0.8-0.3
		c0.1,0,0.2-0.1,0.3-0.1c0.8-0.3,1.6-0.3,2.5-0.2l25.1,3.9C91.4,10.1,94.8,14.9,94.8,20.2z"/>
	<path fill="#A09C9E" d="M69,93.4c-1.2,0-2.1,1.3-2.1,3c0,1.6,0.9,2.9,2.1,2.9c1.2,0,2.1-1.3,2.1-2.9C71.1,94.7,70.1,93.4,69,93.4z
		 M69,93.4c-1.2,0-2.1,1.3-2.1,3c0,1.6,0.9,2.9,2.1,2.9c1.2,0,2.1-1.3,2.1-2.9C71.1,94.7,70.1,93.4,69,93.4z M87.2,9.5L62.1,5.5
		c-0.9-0.1-1.7-0.1-2.5,0.2c-0.1,0-0.2,0.1-0.3,0.1l-0.8,0.3h0l-4,1.6c-0.8,0.1-1.5,0.4-2.1,0.9l-0.1,0.1c-0.1,0-0.2,0.1-0.2,0.2
		c-0.1,0-0.1,0.1-0.1,0.1c-1.9,1.5-3.2,4.2-3.2,7.3v74.2c0,5.2,3.2,10,7.3,10.9l25.1,5.6c0.5,0.1,0.9,0.2,1.4,0.2
		c0.2,0,0.4-0.1,0.6-0.1h0.1c0,0,0,0,0.1,0c0.1,0,0.3,0,0.4-0.1h0c0.7-0.2,1.4-0.4,2-0.7l4.3-1.6l0.6-0.2c0.2-0.1,0.3-0.1,0.4-0.2
		c2.4-1.2,4-4.1,4-7.7V20.2C94.8,14.9,91.4,10.1,87.2,9.5z M86.5,98.7c0,1.2-0.2,2.3-0.6,3.2c-0.4,0.9-1,1.6-1.7,2l-0.4,0.2l0.1,0
		c-0.3,0.2-0.7,0.3-1,0.3h0c-0.4,0.1-0.8,0.1-1.2-0.1l-25.1-5.6c-2.8-0.6-5.2-4.4-5.2-8.3V16.2c0-2.2,0.8-4.1,2-5.2l1.7-0.7l0.2-0.1
		c0.1,0,0.2,0,0.3,0c0.2,0,0.4,0,0.5,0l1.7,0.3l23.3,3.7c3,0.5,5.4,4.2,5.4,8.2V98.7z M69,93.4c-1.2,0-2.1,1.3-2.1,3
		c0,1.6,0.9,2.9,2.1,2.9c1.2,0,2.1-1.3,2.1-2.9C71.1,94.7,70.1,93.4,69,93.4z"/>
	<path fill="#282626" d="M60,8.3c-0.1,0.1-0.3,0.1-0.4,0.2L60,8.3L60,8.3z M52.3,8.6l2.1-0.9C53.7,7.9,53,8.2,52.3,8.6z M83.6,106.9
		c0.7-0.2,1.4-0.4,2-0.7L83.6,106.9z"/>
	<path fill="#282626" d="M87.2,9.5L62.1,5.5c-0.9-0.1-1.7-0.1-2.5,0.2c-0.1,0-0.2,0.1-0.3,0.1l-0.8,0.3h0l-4,1.6l-2.1,0.9l-0.1,0.1
		c-0.1,0-0.2,0.1-0.2,0.2c-0.1,0-0.1,0.1-0.1,0.1c-1.9,1.5-3.2,4.2-3.2,7.3v74.2c0,5.2,3.2,10,7.3,10.9l25.1,5.6
		c0.5,0.1,0.9,0.2,1.4,0.2c0.2,0,0.4-0.1,0.6-0.1h0.1c0,0,0,0,0.1,0c0.1,0,0.3,0,0.4-0.1h0l2-0.7l4.3-1.6l0.6-0.2
		c0.2-0.1,0.3-0.1,0.4-0.2c2.4-1.2,4-4.1,4-7.7V20.2C94.8,14.9,91.4,10.1,87.2,9.5z M86.5,98.7c0,1.2-0.2,2.3-0.6,3.2
		c-0.4,0.9-1,1.6-1.7,2c-0.1,0.1-0.2,0.1-0.3,0.2c-0.3,0.2-0.7,0.3-1,0.3h0c-0.4,0.1-0.8,0.1-1.2-0.1l-25.1-5.6
		c-2.8-0.6-5.2-4.4-5.2-8.3V16.2c0-2.2,0.8-4.1,2-5.2c0.5-0.4,1.1-0.7,1.7-0.8h0.2c0.1,0,0.2,0,0.3,0c0.2,0,0.4,0,0.5,0l1.7,0.3
		l23.3,3.7c3,0.5,5.4,4.2,5.4,8.2V98.7z M92.2,96.5c0,2.7-1.1,4.8-2.8,5.5l-0.5,0.2l-0.3,0.1c0,0,0-0.1,0-0.1
		c0.4-1.1,0.6-2.3,0.6-3.6V22.4c0-5.4-3.3-10.1-7.6-10.7L60.1,8.3l-0.4,0.2c0.1-0.1,0.2-0.1,0.4-0.2c0.1,0,0.2-0.1,0.3-0.1
		c0.3-0.1,0.6-0.1,0.9-0.1c0.2,0,0.4,0,0.5,0.1l25.1,3.9c2.9,0.5,5.4,4.2,5.4,8.2V96.5z"/>
	<path fill="#282626" d="M88.6,102.2C88.6,102.2,88.6,102.3,88.6,102.2l0.3-0.1C88.8,102.2,88.7,102.2,88.6,102.2z M55,10.3
		C55,10.3,55,10.4,55,10.3h0.2H55z M88.6,102.2C88.6,102.2,88.6,102.3,88.6,102.2l0.3-0.1C88.8,102.2,88.7,102.2,88.6,102.2z
		 M88.6,102.2C88.6,102.2,88.6,102.3,88.6,102.2l0.3-0.1C88.8,102.2,88.7,102.2,88.6,102.2z M88.6,102.2
		C88.6,102.2,88.6,102.3,88.6,102.2l0.3-0.1C88.8,102.2,88.7,102.2,88.6,102.2z M83.8,104.1l0.1,0c0.1-0.1,0.2-0.1,0.3-0.2
		L83.8,104.1z"/>
	<path fill="#282626" d="M83.2,107c-0.1,0-0.1,0-0.1,0L83.2,107C83.1,107,83.1,107,83.2,107z"/>
	<path fill="#282626" d="M84.2,103.9c-0.1,0.1-0.2,0.1-0.3,0.2c-0.3,0.2-0.7,0.3-1,0.3l0.9-0.3L84.2,103.9z"/>
	<path fill="#282626" d="M55.2,10.3L55,10.4l-1.7,0.7c0.5-0.4,1.1-0.7,1.7-0.8H55.2z"/>
	<path fill="#282626" d="M60.3,8.2l-0.2,0.1l-0.4,0.2c0.1-0.1,0.2-0.1,0.4-0.2C60.1,8.3,60.2,8.2,60.3,8.2z"/>
	<path fill="#282626" d="M87.6,95.9c0,0-0.1,0-0.1,0l-37.3-8.9c-0.2-0.1-0.4-0.3-0.3-0.5s0.3-0.4,0.5-0.3l0.9,0.2L87.7,95
		c0.2,0.1,0.4,0.3,0.3,0.5C88,95.7,87.8,95.9,87.6,95.9z"/>
	<path fill="#282626" d="M69,99.9c-1.6,0-2.8-1.6-2.8-3.6c0-2,1.2-3.6,2.8-3.6c1.6,0,2.8,1.6,2.8,3.6C71.7,98.4,70.5,99.9,69,99.9z
		 M69,94.1c-0.8,0-1.5,1.1-1.5,2.3c0,1.2,0.7,2.3,1.5,2.3c0.8,0,1.5-1,1.5-2.3C70.4,95.1,69.8,94.1,69,94.1z"/>
	<g>
		<g>
			<polygon fill="#282626" points="81.4,51 81.4,51.5 80.2,51.3 56.4,25.5 56.4,25 57.6,25.2 			"/>
			<polygon fill="#282626" points="76.7,50.6 74.9,50.2 56.4,30.1 56.4,28.5 			"/>
			<polygon fill="#282626" points="71.4,49.5 69.7,49.2 56.4,34.7 56.4,33.1 			"/>
			<polygon fill="#282626" points="66.2,48.5 64.5,48.1 56.4,39.3 56.4,37.7 			"/>
			<polygon fill="#282626" points="61,47.4 59.3,47.1 56.4,43.9 56.4,42.4 			"/>
			<polygon fill="#282626" points="81.4,32.4 81.4,33.9 76.4,28.6 78.2,28.9 			"/>
			<polygon fill="#282626" points="81.4,37.1 81.4,38.6 71.2,27.6 72.9,28 			"/>
			<polygon fill="#282626" points="81.4,41.8 81.4,43.4 65.9,26.7 67.7,27 			"/>
			<polygon fill="#282626" points="81.4,46.4 81.4,48 60.8,25.8 62.5,26.1 			"/>
			<path fill="#282626" d="M82.2,53.3c-0.1,0-0.1,0-0.2,0l-26.5-5.2c-0.4-0.1-0.7-0.4-0.7-0.9v-23c0-0.3,0.1-0.5,0.3-0.7
				c0.2-0.2,0.5-0.2,0.7-0.2l26.5,4.7c0.4,0.1,0.7,0.4,0.7,0.9v23.5c0,0.3-0.1,0.5-0.3,0.7C82.6,53.3,82.4,53.3,82.2,53.3z
				 M56.6,46.6l24.8,4.8V29.7l-24.8-4.4V46.6z"/>
		</g>
		<path fill="#282626" d="M81.3,61c-0.1,0-0.1,0-0.2,0l-24.9-5.1c-0.5-0.1-0.8-0.6-0.7-1c0.1-0.5,0.6-0.8,1-0.7l24.9,5.1
			c0.5,0.1,0.8,0.6,0.7,1C82.1,60.7,81.8,61,81.3,61z"/>
		<path fill="#282626" d="M81.1,66.1c-0.1,0-0.1,0-0.2,0L56.1,61c-0.5-0.1-0.8-0.6-0.7-1c0.1-0.5,0.6-0.8,1-0.7l24.9,5.1
			c0.5,0.1,0.8,0.6,0.7,1C81.9,65.8,81.5,66.1,81.1,66.1z"/>
		<path fill="none" stroke="#282626" stroke-linecap="round" stroke-linejoin="round" stroke-miterlimit="10" d="M58.2,57.8"/>
		<path fill="#282626" d="M81.1,71.4c-0.1,0-0.1,0-0.2,0L56,65.9c-0.5-0.1-0.8-0.6-0.7-1c0.1-0.5,0.6-0.8,1-0.7l24.9,5.5
			c0.5,0.1,0.8,0.6,0.7,1C81.9,71.2,81.5,71.4,81.1,71.4z"/>
		<path fill="#282626" d="M77.3,77.4C77.3,77.4,77.3,77.4,77.3,77.4l-19.1-4.3c-0.2-0.1-0.4-0.3-0.3-0.5c0.1-0.2,0.3-0.4,0.5-0.3
			l19,4.3c0.2,0.1,0.4,0.3,0.3,0.5C77.7,77.2,77.5,77.4,77.3,77.4z"/>
		<path fill="#282626" d="M77.3,81.7C77.3,81.7,77.3,81.7,77.3,81.7l-19.1-4.3c-0.2-0.1-0.4-0.3-0.3-0.5c0.1-0.2,0.3-0.4,0.5-0.3
			l19,4.3c0.2,0.1,0.4,0.3,0.3,0.5C77.7,81.5,77.5,81.7,77.3,81.7z"/>
		<path fill="#282626" d="M77.3,86C77.3,86,77.3,86,77.3,86l-19.1-4.3c-0.2-0.1-0.4-0.3-0.3-0.5c0.1-0.2,0.3-0.4,0.5-0.3l19,4.3
			c0.2,0.1,0.4,0.3,0.3,0.5C77.7,85.8,77.5,86,77.3,86z"/>
	</g>
</g>
<rect x="20.3" y="119" fill="none" width="102.8" height="26"/>
<text transform="matrix(1 0 0 1 50.7502 127.5671)" font-family="'HelveticaNeue'" font-size="12">UI &amp; UX</text>
</svg>
